<?xml version="1.0" encoding="UTF-8" standalone="no"?> <svg xmlns="http://www.w3.org/2000/svg" viewBox="0 0 32 32"><defs><style>.cls-1{fill:#f7bb7f;}.cls-2{fill:#ffd188;}.cls-3{fill:#2d4a60;}</style></defs><title>Negotiation</title><g id="Negotiation"><path class="cls-1" d="M3,19.164h.854a4.291,4.291,0,0,1,2.572.857L10.394,23A8.575,8.575,0,0,0,18,24.351l3.7-1.111a2.144,2.144,0,0,0,1.128-3.3l-3.617-5.064L16.345,10.4l-4.2-1.438a4.3,4.3,0,0,0-2.985.075L6.05,10.283a4.288,4.288,0,0,1-1.594.307H3Z"/><path class="cls-2" d="M29,10.59H27.543a4.293,4.293,0,0,1-1.592-.306L22.93,9.075a4.289,4.289,0,0,0-3.148-.014l-7.091,2.762a2.143,2.143,0,0,0-1.046,2.917h0A2.939,2.939,0,0,0,15.2,16.214l4.011-1.337,3.617,5.064a1.947,1.947,0,0,1,.273,1.97l2.462-1.872a4.284,4.284,0,0,1,2.595-.875H29Z"/><rect class="cls-3" x="27" y="9" width="3" height="12" rx="1.5"/><rect class="cls-3" x="2" y="9" width="3" height="12" rx="1.5"/></g></svg>