<?xml version="1.0" encoding="UTF-8" standalone="no"?> <svg id="icons" xmlns="http://www.w3.org/2000/svg" viewBox="0 0 500 500"><path d="M448.615,91.9c3.3,62.425-84.5,76.082-84.5,76.082L319.153,207.75l-24.077-33.756s47.221-33.113,92.164-52.776C443.15,96.757,400.781,52.2,400.781,52.2S445.367,30.516,448.615,91.9Z" style="fill:#9b4036"/><path d="M378.458,47.509s-34.656-14-52.058,18.317-10.994,51.316-50.044,82.334l12.167,25.834s40.6-29.629,58.735-75.716S378.458,47.509,378.458,47.509Z" style="fill:#9b4036"/><path d="M430.331,111.544s15.274-30.145-4.514-45.891c0,0-29.488-26.935-57.929,39.076a147.936,147.936,0,0,1-37.741,51.739c-11.378-6.683-13.438-20.074-7.158-31.23A139.985,139.985,0,0,0,347.533,81.8c17.283-50.644,50.844-56.245,80.167-45.387,42.243,15.642,38.853,50.469,28.839,81.311Z" style="fill:#e57e62"/><path d="M463.875,115.362c-21.33-5.958-46.116-11.609-65.4-15.74a27.131,27.131,0,0,0-32.818,26.2l-1.468,120.1a71.623,71.623,0,0,1-5.246,26.457c-20.715,50.218,23.115,77.091,59.706,62.048,25.362-10.426,26.559-39.16,24.285-58.015a74.087,74.087,0,0,1,5.5-38.234L483.62,156.6A30.344,30.344,0,0,0,463.875,115.362Zm-5.409,39.225-33.685,83.149a77.192,77.192,0,0,0-4.334,41.891c3.047,18.05.012,37.558-26.259,32.06-24.663-5.162-18.876-28.867-12.665-43.481a77.618,77.618,0,0,0,6.143-29.417l1.22-98.255a15.758,15.758,0,0,1,19.47-15.118l39.635,9.611A14.437,14.437,0,0,1,458.466,154.587Z" style="fill:#dceaef"/><polygon points="388.614 162.432 365.124 169.453 364.736 201.155 387.896 220.318 388.614 162.432" style="fill:#abbbc4"/><path d="M441.8,195.716l-17.023,42.02a73.825,73.825,0,0,0-3.325,10.352l20.977,17.358a73.889,73.889,0,0,1,6-27.271l10.682-24.763Z" style="fill:#abbbc4"/><path d="M336.1,173.944c10.5-8.021,25.857-16.412,47.706-21.658,20.776-4.989,28.223-9.882,37.758-23.667l22.789,5.526s-8.426,30.483-56.6,38.984c-17.036,3.007-30.374,12.192-40.5,22.811C337.64,193.67,332.535,183.74,336.1,173.944Z" style="fill:#e57e62"/><path d="M447.926,184.835l15.685,7.53C477.679,224.931,436.7,230.761,424,208.7a75.239,75.239,0,0,1,10.143-20.345A11.037,11.037,0,0,1,447.926,184.835Z" style="fill:#abbbc4"/><path d="M286.036,158.168l8.5,22.194s16.877-7.194,35.61-23.9a284.259,284.259,0,0,1-7.158-31.228C305.032,147.116,286.036,158.168,286.036,158.168Z" style="fill:#9b4036"/><path d="M333.748,213.388a112.928,112.928,0,0,1,13.5-17.447,121.109,121.109,0,0,1-11.147-21.99c-14.786,11.3-19.926,21.873-19.926,21.873Z" style="fill:#9b4036"/><path d="M51.229,418.977s-11.522-35.622,39.586-54.3c42.67-15.591,60.677-22.952,88.688-60.3L155.6,286.925l-45.383,32.2S15.355,340.841,51.229,418.977Z" style="fill:#9b4036"/><path d="M59.406,454.141s41.076,30.19,80.881,2.179c19.195-13.508,28.56-39.18,33.649-62.034a90.709,90.709,0,0,1,17.46-36.5l13.963-17.66L180.95,321.219s-21.294,14-32.1,47.906S109.04,448.244,59.406,454.141Z" style="fill:#9b4036"/><path d="M143,340.047a113.919,113.919,0,0,0-17.521,39.759c-5.125,22.447-18.454,50.183-53.009,51.016,0,0-37.921-2.809-22.471-49.157,9.792-29.376,34.535-41.224,51.343-45.962a93.893,93.893,0,0,0,34.119-17.81,41.714,41.714,0,0,0-8.956-26.286A95.946,95.946,0,0,1,93.226,307.35c-23.31,6-62.717,24.192-76.236,79.231-19.662,80.055,61.1,78.651,61.1,78.651s55.229,5.729,70.774-67.838a117.053,117.053,0,0,1,6.523-20.967C161.168,359.5,153.854,342.831,143,340.047Z" style="fill:#e57e62"/><path d="M136.562,316.973,158.843,298.1l-7.725-26.57L130.11,288.79c-1.181.971-2.388,1.9-3.612,2.811l8.955,26.286C135.823,317.583,136.2,317.283,136.562,316.973Z" style="fill:#9b4036"/><path d="M177.9,342l11.84-12.305-20.365-18.258-13.114,12.888A110.751,110.751,0,0,0,143,340.051L155.4,376.433A111.663,111.663,0,0,1,177.9,342Z" style="fill:#9b4036"/><path d="M163.334,246.6s-15.1-7.553-20.392,15.1c-4.033,17.284,3.361,54.346,38.61,76.988,53.7,8.766,147.97-114.162,134.952-151.411-10.824-12.655-22.535-30.291-28.974-52.339a11.337,11.337,0,0,0-11.5-8.181c-7.534.429-17.154,4.248-19.8,20.144,0,0-20.392-3.021-22.658,23.413,0,0-22.067,2.251-25.088,26.2,0,0-21.1-3.837-22.493,24.364C185.991,220.878,164.089,216.387,163.334,246.6Z" style="fill:#e57e62"/><path d="M337.33,207.56a155.805,155.805,0,0,1-20.825-20.282c-2.021,28.2-28.793,28.794-28.793,28.794,1.879,23.019-22.53,22.549-22.53,22.549.959,24.428-21.629,25.368-21.629,25.368,2.349,23.958-20.67,24.428-20.67,24.428.94,22.549-21.609,26.777-21.609,26.777.629,18.553-11.576,22.744-19.719,23.491,10.959,7.04,24.606,12.689,41.444,15.913,0,0,16.952-.755,12.63-17.37,0,0,23.622,4.278,21.356-24.3,0,0,21.9-5.16,18.882-26.308,0,0,24.923-1.51,21.9-25.678,0,0,24.169-2.266,22.658-24.924,0,0,20.991-1.253,21.171-19.732A11.1,11.1,0,0,0,337.33,207.56Z" style="fill:#9b4036"/><path d="M464.938,228.916a92.59,92.59,0,0,0,8.942-21.8,11.012,11.012,0,0,0-5.945-12.674l-4.324-2.076c.905,2.749,1.165,6.8-1.177,12.225l-2.669,5.932a13,13,0,0,1-17.18,6.524l-18.58-8.345c-.2.618-.387,1.224-.557,1.8a11.074,11.074,0,0,0,5.976,13.188l21.25,9.8A11.052,11.052,0,0,0,464.938,228.916Z" style="fill:#72848c"/><path d="M488.1,129.17a35.9,35.9,0,0,0-22.749-19.1c-.249-.07-.5-.138-.755-.208,4.476-16.952,5.042-30.946,1.733-42.689-4.659-16.532-17.014-28.614-36.723-35.912-18.119-6.708-35.351-6.618-49.831.265a55.843,55.843,0,0,0-12.095,7.854c-12.217-1.424-33.364.143-46.127,23.843-5.721,10.624-9.017,20.021-11.926,28.312-4.422,12.609-8.317,23.7-19.562,36.4a16.671,16.671,0,0,0-14.35-6.661c-7.215.411-19.36,3.668-23.911,20.145a24.621,24.621,0,0,0-12.961,5.136c-5.382,4.256-8.814,10.681-10.232,19.134a34.391,34.391,0,0,0-24.681,25.255,23.747,23.747,0,0,0-12.942,4.95c-5.347,4.243-8.691,10.74-9.974,19.354a23.2,23.2,0,0,0-12.7,4.861c-5.393,4.288-8.732,10.927-9.965,19.79a17.316,17.316,0,0,0-8.071,1.621c-6.169,2.9-10.441,9.268-12.7,18.938a52.8,52.8,0,0,0-.9,15.82l-10.062,8.269a89.348,89.348,0,0,1-34.763,17.483c-23.824,6.129-65.925,25.1-80.206,83.245-6.3,25.634-3.432,46.221,8.516,61.188,18.967,23.762,53.828,24.34,57.71,24.276.514.041,1.535.1,2.974.1.53,0,1.132-.012,1.77-.033a78,78,0,0,0,20.76,2.907,68.428,68.428,0,0,0,40.072-12.892c17-11.962,28.726-33.334,35.852-65.335A85.694,85.694,0,0,1,195.71,361.2l5.423-6.859A137.3,137.3,0,0,0,221.964,360a5.532,5.532,0,0,0,1.035.1c.081,0,.163,0,.245,0,1.033-.046,10.246-.652,15.412-7.651a16.673,16.673,0,0,0,3.162-9.663,22.947,22.947,0,0,0,13.132-5.557c5.071-4.587,7.649-11.421,7.688-20.352,8.311-3.363,18.708-11.374,19.011-25.675,4.678-1.165,11.394-3.767,16.176-9.526a25.279,25.279,0,0,0,5.7-16.2c9.329-2.457,21.123-9.537,22.367-24.727,9.188-2.138,21.057-8.87,21.209-24.4a16.375,16.375,0,0,0-2.533-8.816,90.627,90.627,0,0,1,14.779-15.292l-.655,53.615a65.814,65.814,0,0,1-4.83,24.426c-9.662,23.423-6.991,45.079,7.329,59.417,9.389,9.4,22.7,14.373,36.647,14.372a60.341,60.341,0,0,0,22.905-4.556c21.715-8.927,31.536-31.571,27.654-63.761a68.68,68.68,0,0,1,5.087-35.4l.188-.435c.532.052,1.065.085,1.6.085a16.6,16.6,0,0,0,14.469-8.394,98.541,98.541,0,0,0,9.465-23.094,16.458,16.458,0,0,0-4.927-16.361l14.4-33.376A35.79,35.79,0,0,0,488.1,129.17ZM384.5,41.456c14.835-7.048,30.641-3.828,41.29.116C454.328,52.138,463.1,72.388,453.978,107c-4.872-1.273-9.816-2.518-14.732-3.719,4.953-17.661,1.44-32.753-9.9-41.852A29.489,29.489,0,0,0,404.6,55.371c-15.679,3.373-29.731,19.248-41.767,47.182-14.33,33.259-39.111,53.695-54.9,64.01a137.241,137.241,0,0,1-6.9-12.228c15.179-11.9,39.648-35.463,51.694-70.758C360.043,62.172,370.729,48,384.5,41.456Zm-65.232,140.63q-2.541-3.05-5.09-6.46a167.373,167.373,0,0,0,31.955-27.309,5.559,5.559,0,0,0,.756-.353c4.849-2.767,8.933-5.03,13.085-7.24l-.165,13.5C339.24,162.708,326.557,173.758,319.268,182.086ZM404.6,66.78c5.863,9.879,8.587,18.925,4.063,29.427-3.177-.7-6.216-1.359-9.035-1.963A32.512,32.512,0,0,0,377.369,97.4C387.723,76.862,397.45,69.246,404.6,66.78Zm12.635.162a17.487,17.487,0,0,1,4.876,2.772c.092.084.186.165.284.243,10.285,8.184,8.738,21.759,6.146,30.763-3.066-.719-6.083-1.416-9.027-2.086C424.192,85.931,421.019,74.792,417.233,66.942ZM320.011,95.171c2.91-8.3,5.919-16.873,11.232-26.737,6.949-12.907,17.014-17.385,26.3-18.267q-9.1,12.016-15.217,29.857c-10.6,31.047-31.7,52.373-45.907,63.926q-.924-2.355-1.765-4.8C310.182,123.192,314.962,109.567,320.011,95.171ZM56.272,416.539a31.849,31.849,0,0,1,.835-16.069c4.06-13.009,16.368-23.6,35.6-30.623,14.243-5.2,25.341-9.366,35-13.886a120.517,120.517,0,0,0-7.592,22.621c-6.913,30.279-22.873,46-47.44,46.733C71.109,425.126,61.826,423.709,56.272,416.539Zm81.435-78.482c-.025.016-.052.023-.077.039-12.63,8-26.826,13.426-48.7,21.419-15.781,5.767-25.957,13.189-32.51,20.607C65.893,356.031,86.69,345.546,102.832,341a98.756,98.756,0,0,0,37.285-19.827l9.009-7.632q.6.971,1.223,1.938c.877,1.349,1.834,2.733,2.864,4.139l-.805.791A116.5,116.5,0,0,0,137.707,338.057ZM28.727,439.55c-9.677-12.158-11.828-29.538-6.395-51.657,12.917-52.591,50.82-69.7,72.264-75.216A100.267,100.267,0,0,0,133.6,293.04l5.14-4.224a86.965,86.965,0,0,0,5.121,14.765l-10.856,9.195a87.808,87.808,0,0,1-33.16,17.633c-15.9,4.481-44.187,16.873-55.069,49.517-5.8,17.383-5.276,31.389,1.544,41.627.146.219.3.426.448.639.02.027.038.055.058.082,8.989,12.68,24.562,13.983,25.233,14.033.136.01.271.015.406.015l.133,0c29.577-.713,50.261-20.348,58.238-55.29a107.2,107.2,0,0,1,29.281-52.778l.144-.142a95.4,95.4,0,0,0,12.6,11.237,119.075,119.075,0,0,0-29.388,56.909c-14.275,67.559-62.787,63.7-64.825,63.505a6.459,6.459,0,0,0-.655-.029C77.665,459.754,44.983,459.973,28.727,439.55Zm158.355-85.169a96.738,96.738,0,0,0-18.514,38.71c-6.413,28.8-16.993,48.56-31.446,58.73a58.726,58.726,0,0,1-23.231,9.967c14.825-8.548,32.545-26.324,40.349-63.257a107.987,107.987,0,0,1,27.626-52.714l.3-.313q3.959,2.325,8.417,4.446Zm49.943-22.514a104.3,104.3,0,0,1-12.874-6.5,5.5,5.5,0,1,0-5.555,9.5,124.06,124.06,0,0,0,12.173,6.292,6.755,6.755,0,0,1-.941,4.726c-1.554,2.138-4.877,2.959-6.54,3.172-36-7.1-54.513-25.406-63.715-39.57-11.189-17.22-13.688-36.191-11.275-46.53,1.418-6.078,3.693-10.034,6.578-11.442a6.371,6.371,0,0,1,2.81-.617c.149,0,.29.009.433.017,1.11,10.392,6.581,37.721,33.517,63.6q1.158,1.111,2.314,2.173a5.5,5.5,0,0,0,7.439-8.1q-1.065-.978-2.131-2c-29.333-28.185-30.392-58.556-30.423-59.934.229-8.554,2.384-14.73,6.239-17.861a11.774,11.774,0,0,1,5.207-2.367c.25,10.448,3.634,32.489,24.559,57.251.877,1.049,20.823,24.634,46.78,33.367-.055,5.54-1.381,9.579-4,11.983C244.007,332.336,238.544,332.027,237.025,331.867ZM257,307.208c-23.824-7.119-43.524-30.356-43.741-30.614-25.022-29.61-21.877-54.571-21.83-54.91.021-.142.032-.284.042-.426,0-.036.009-.072.011-.109v-.023h0c.4-7.936,2.5-13.5,6.25-16.546a12.423,12.423,0,0,1,5.836-2.537,120.18,120.18,0,0,0,9.648,32.169A110.874,110.874,0,0,0,270.638,290.4C270.645,301.681,260.768,305.981,257,307.208Zm41.56-51.922c-32.294-14.182-47.5-42.812-54.577-64.493a5.5,5.5,0,1,0-10.457,3.411c7.656,23.47,24.084,54.4,58.978,70.431a14.8,14.8,0,0,1-3.106,9.96c-3.782,4.6-10.147,6-12.722,6.4-24.364-10.145-42.3-27.28-53.283-50.981a106.064,106.064,0,0,1-9.38-33.291c2.644-18.7,19.429-20.853,20.115-20.932a5.5,5.5,0,0,0,4.921-5c.628-7.317,2.82-12.54,6.515-15.526a13.44,13.44,0,0,1,6.111-2.712A153.231,153.231,0,0,0,262.834,185.6c12.028,25.527,29.985,44.133,52.079,54.048C313.919,251.553,302.662,254.579,298.563,255.286Zm22.7-24.875c-46.8-19.6-58.123-75.845-59.447-83.434,1.794-9.442,6.548-14.272,14.532-14.727a5.813,5.813,0,0,1,5.9,4.232c11.761,40.273,40.041,66.132,51.653,75.38a5.625,5.625,0,0,1,2.194,4.376C335.989,227.45,325.083,229.9,321.261,230.411Zm15.365-30.592c-2.891-2.5-6.3-5.663-9.961-9.468,8.273-9.85,25.624-24.841,58.424-32.717,20.189-4.848,29.229-9.992,38.782-22.8l12.8,3.1c-4.694,8.336-17.611,24.077-49.88,29.771C367.9,171.048,350.637,182.118,336.626,199.819Zm57.724-56.254.036-2.963a10.258,10.258,0,0,1,12.674-9.841l5.046,1.224C407.548,137.268,402.665,140.65,394.35,143.565Zm48.6,34.67a16.414,16.414,0,0,0-13.3,6.943,81.309,81.309,0,0,0-11.485,23.778,16.464,16.464,0,0,0,5.279,17.418l-3.766,9.3a82.73,82.73,0,0,0-4.659,44.873c1.911,11.325.737,19.7-3.307,23.593-3.174,3.052-8.7,3.781-16.4,2.168-6.021-1.26-9.928-3.75-11.945-7.613-3.138-6.009-2-16.072,3.215-28.334a82.775,82.775,0,0,0,6.582-31.5l.761-61.349c35.663-7.846,49.2-27.557,53.724-36.891a8.924,8.924,0,0,1,5.716,11.905Zm-26.393,151.1c-17.039,7-36.162,4.024-47.587-7.415-11.189-11.2-12.944-28.053-4.944-47.448a76.783,76.783,0,0,0,5.662-28.488l.747-61.113A62.165,62.165,0,0,1,382.9,179.88l-.73,58.84a71.835,71.835,0,0,1-5.7,27.334c-4.615,10.858-8.854,26.218-2.842,37.73,3.586,6.866,10.127,11.337,19.441,13.286a46.324,46.324,0,0,0,9.453,1.062c6.988,0,12.628-2.028,16.828-6.067,6.843-6.581,9.1-18.114,6.528-33.354a71.75,71.75,0,0,1,4.008-38.911l3.36-8.291,10.077,4.649a79.692,79.692,0,0,0-5.842,40.909C439.762,296.049,437.992,320.526,416.558,329.337Zm52-123.621a87.433,87.433,0,0,1-8.418,20.506,5.567,5.567,0,0,1-7.164,2.28l-21.25-9.8a5.547,5.547,0,0,1-3-6.646,70.2,70.2,0,0,1,9.909-20.521,5.451,5.451,0,0,1,4.467-2.3,5.645,5.645,0,0,1,2.444.56l20.01,9.607A5.5,5.5,0,0,1,468.56,205.716Zm10.01-51.3-13.946,32.33-11.1-5.328,10.035-24.772A19.934,19.934,0,0,0,449.2,129.662l-3.551-.861h0l-22.789-5.526h0l-13.2-3.2a21.258,21.258,0,0,0-26.266,20.394l-.078,6.28-.787.193c-4.105.985-7.981,2.084-11.661,3.263l.3-24.316A21.631,21.631,0,0,1,397.323,105c17.627,3.775,43.225,9.557,65.073,15.66a24.843,24.843,0,0,1,16.174,33.761Z" style="fill:#31313f"/></svg>