<?xml version="1.0" encoding="UTF-8" standalone="no"?> <svg width="64" height="64" viewBox="0 0 64 64" fill="none" xmlns="http://www.w3.org/2000/svg">
<path d="M57 20H7V24H57V20Z" fill="#8B5E3C"/>
<path d="M53 33H52L52.67 35L53 36H47L47.33 35L48 33H47V30C47 29.7348 47.1054 29.4804 47.2929 29.2929C47.4804 29.1054 47.7348 29 48 29H52C52.2652 29 52.5196 29.1054 52.7071 29.2929C52.8946 29.4804 53 29.7348 53 30V33Z" fill="#FF9811"/>
<path d="M52 24V29H48V24V20V10H52V20V24Z" fill="#C6C5CA"/>
<path d="M52 6V10H48V6L50 3L52 6Z" fill="#ACABB1"/>
<path d="M42 3L44 11L42 13V16H38V13L36 11L38 3H42Z" fill="#ACABB1"/>
<path d="M43 33H42L42.67 35L43 36H37L37.33 35L38 33H37V30C37 29.7348 37.1054 29.4804 37.2929 29.2929C37.4804 29.1054 37.7348 29 38 29H42C42.2652 29 42.5196 29.1054 42.7071 29.2929C42.8946 29.4804 43 29.7348 43 30V33Z" fill="#FF9811"/>
<path d="M42 24V29H38V24V20V16H42V20V24Z" fill="#C6C5CA"/>
<path d="M32 3V8.97L31 9.97L28 12.97L25 15.97L24 16.98V10.98L25 9.97L28 6.97L31.97 3H32Z" fill="#C6C5CA"/>
<path d="M31.97 3L28 6.97L25 9.97L24 10.98V3H31.97Z" fill="#ACABB1"/>
<path d="M32 8.96997V14.97L31 15.97L28 18.97L24 22.98V20V16.98L25 15.97L28 12.97L31 9.96997L32 8.96997Z" fill="#ACABB1"/>
<path d="M32 33H30L31.33 35L32 36H24L24.67 35L26 33H24V30C24 29.7348 24.1054 29.4804 24.2929 29.2929C24.4804 29.1054 24.7348 29 25 29H31C31.2652 29 31.5196 29.1054 31.7071 29.2929C31.8946 29.4804 32 29.7348 32 30V33Z" fill="#FF5023"/>
<path d="M32 20V24L30 26V29H26V26L24 24V22.98L28 18.97L31 15.97L32 14.97V20Z" fill="#C6C5CA"/>
<path d="M20 32V36H12V24V20V3H20V8V12V16V20V24V28V32Z" fill="#FF9811"/>
<path d="M61 13V61H57V57V36V24V20V13H61Z" fill="#8B5E3C"/>
<path d="M57 36V57H7V36H12H20H24H32H37H43H47H53H57Z" fill="#A97C50"/>
<path d="M57 57H7V61H57V57Z" fill="#8B5E3C"/>
<path d="M7 57V61H3V13H7V20V24V36V57Z" fill="#8B5E3C"/>
<path d="M31.33 35H24.67L26 33H30L31.33 35Z" fill="#DB451E"/>
<path d="M42.67 35H37.33L38 33H42L42.67 35Z" fill="#EE8700"/>
<path d="M52.67 35H47.33L48 33H52L52.67 35Z" fill="#EE8700"/>
<path d="M61 12H57C56.7348 12 56.4804 12.1054 56.2929 12.2929C56.1054 12.4804 56 12.7348 56 13V19H53V6C53.0005 5.80366 52.9412 5.61182 52.83 5.45L50.83 2.45C50.7343 2.31978 50.6093 2.2139 50.4651 2.14092C50.3209 2.06794 50.1616 2.02992 50 2.02992C49.8384 2.02992 49.6791 2.06794 49.5349 2.14092C49.3907 2.2139 49.2657 2.31978 49.17 2.45L47.17 5.45C47.0588 5.61182 46.9995 5.80366 47 6V19H43V13.41L44.71 11.71C44.8329 11.5884 44.9216 11.4366 44.9673 11.2698C45.0129 11.1031 45.0138 10.9272 44.97 10.76L42.97 2.76C42.9164 2.5432 42.7918 2.35058 42.616 2.21284C42.4402 2.0751 42.2233 2.00017 42 2H38C37.7767 2.00017 37.5598 2.0751 37.384 2.21284C37.2082 2.35058 37.0836 2.5432 37.03 2.76L35.03 10.76C34.9862 10.9272 34.9871 11.1031 35.0327 11.2698C35.0784 11.4366 35.1671 11.5884 35.29 11.71L37 13.41V19H33V3C33 2.73478 32.8946 2.48043 32.7071 2.29289C32.5196 2.10536 32.2652 2 32 2H24C23.7348 2 23.4804 2.10536 23.2929 2.29289C23.1054 2.48043 23 2.73478 23 3V19H21V3C21 2.73478 20.8946 2.48043 20.7071 2.29289C20.5196 2.10536 20.2652 2 20 2H12C11.7348 2 11.4804 2.10536 11.2929 2.29289C11.1054 2.48043 11 2.73478 11 3V19H8V13C8 12.7348 7.89464 12.4804 7.70711 12.2929C7.51957 12.1054 7.26522 12 7 12H3C2.73478 12 2.48043 12.1054 2.29289 12.2929C2.10536 12.4804 2 12.7348 2 13V61C2 61.2652 2.10536 61.5196 2.29289 61.7071C2.48043 61.8946 2.73478 62 3 62H61C61.2652 62 61.5196 61.8946 61.7071 61.7071C61.8946 61.5196 62 61.2652 62 61V13C62 12.7348 61.8946 12.4804 61.7071 12.2929C61.5196 12.1054 61.2652 12 61 12ZM6 60H4V14H6V60ZM49 6.3L50 4.8L51 6.3V9H49V6.3ZM49 11H51V28H49V11ZM48 30H52V32C51.8411 31.9993 51.6844 32.0372 51.5433 32.1103C51.4022 32.1835 51.281 32.2897 51.19 32.42C51.0971 32.5482 51.0359 32.6967 51.0116 32.8531C50.9872 33.0096 51.0004 33.1696 51.05 33.32L51.61 35H48.39L48.95 33.32C48.9996 33.1696 49.0128 33.0096 48.9884 32.8531C48.9641 32.6967 48.9029 32.5482 48.81 32.42C48.719 32.2897 48.5978 32.1835 48.4567 32.1103C48.3156 32.0372 48.1589 31.9993 48 32V30ZM43 21H47V23H43V21ZM43 25H47V28.28C46.6969 28.4536 46.4449 28.704 46.2694 29.0059C46.0938 29.3079 46.0009 29.6507 46 30V33C45.9991 33.2018 46.0599 33.3991 46.1743 33.5653C46.2887 33.7315 46.4512 33.8588 46.64 33.93L46.28 35H43.72L43.36 33.93C43.5488 33.8588 43.7113 33.7315 43.8257 33.5653C43.9401 33.3991 44.0009 33.2018 44 33V30C43.9991 29.6507 43.9062 29.3079 43.7306 29.0059C43.5551 28.704 43.3031 28.4536 43 28.28V25ZM38.78 4H41.22L42.89 10.69L41.29 12.29C41.1058 12.4807 41.002 12.7349 41 13V15H39V13C38.998 12.7349 38.8942 12.4807 38.71 12.29L37.11 10.69L38.78 4ZM41.05 33.32L41.61 35H38.39L38.95 33.32C38.9996 33.1696 39.0128 33.0096 38.9884 32.8531C38.9641 32.6967 38.9029 32.5482 38.81 32.42C38.719 32.2897 38.5978 32.1835 38.4567 32.1103C38.3156 32.0372 38.1589 31.9993 38 32V30H42V32C41.8411 31.9993 41.6844 32.0372 41.5433 32.1103C41.4022 32.1835 41.281 32.2897 41.19 32.42C41.0971 32.5482 41.0359 32.6967 41.0116 32.8531C40.9872 33.0096 41.0004 33.1696 41.05 33.32V33.32ZM39 28V17H41V28H39ZM33 21H37V23H33V21ZM32.41 25H37V28.28C36.6969 28.4536 36.4449 28.704 36.2694 29.0059C36.0938 29.3079 36.0009 29.6507 36 30V33C35.9991 33.2018 36.0599 33.3991 36.1743 33.5653C36.2887 33.7315 36.4512 33.8588 36.64 33.93L36.28 35H32.54L31.87 34H32C32.2652 34 32.5196 33.8946 32.7071 33.7071C32.8946 33.5196 33 33.2652 33 33V30C32.9984 29.4701 32.7872 28.9623 32.4125 28.5875C32.0377 28.2128 31.5299 28.0016 31 28V26.41L32.41 25ZM25 4H29.56L25 8.56V4ZM25 11.39L31 5.39V8.56L25 14.56V11.39ZM25 17.39L31 11.39V14.56L25 20.56V17.39ZM25 23.39L31 17.39V23.59L29.29 25.29C29.1058 25.4807 29.002 25.7349 29 26V28H27V26C26.998 25.7349 26.8942 25.4807 26.71 25.29L25 23.59V23.39ZM29.17 33.55L30.13 35H25.87L26.83 33.55C26.9331 33.4018 26.9925 33.2275 27.0013 33.0472C27.0102 32.8668 26.9681 32.6876 26.88 32.53C26.7964 32.3692 26.6699 32.2346 26.5147 32.141C26.3594 32.0475 26.1813 31.9987 26 32H25V30H31V32H30C29.8187 31.9987 29.6406 32.0475 29.4853 32.141C29.3301 32.2346 29.2036 32.3692 29.12 32.53C29.0319 32.6876 28.9898 32.8668 28.9987 33.0472C29.0075 33.2275 29.0669 33.4018 29.17 33.55V33.55ZM21 21H23V23H21V21ZM21 25H23.59L25 26.41V28C24.4701 28.0016 23.9623 28.2128 23.5875 28.5875C23.2128 28.9623 23.0016 29.4701 23 30V33C23 33.2652 23.1054 33.5196 23.2929 33.7071C23.4804 33.8946 23.7348 34 24 34H24.13L23.46 35H21V25ZM13 4H19V7H16V9H19V11H16V13H19V15H16V17H19V19H16V21H19V23H16V25H19V27H16V29H19V31H16V33H19V35H13V4ZM8 21H11V23H8V21ZM8 25H11V35H8V25ZM56 60H8V58H56V60ZM56 56H8V37H56V56ZM56 35H53.72L53.36 33.93C53.5488 33.8588 53.7113 33.7315 53.8257 33.5653C53.9401 33.3991 54.0009 33.2018 54 33V30C53.9991 29.6507 53.9062 29.3079 53.7306 29.0059C53.5551 28.704 53.3031 28.4536 53 28.28V25H56V35ZM56 23H53V21H56V23ZM60 60H58V14H60V60Z" fill="black"/>
</svg>
