<svg width="40" height="30" viewBox="0 0 40 30" fill="none" xmlns="http://www.w3.org/2000/svg">
<path d="M17.9029 10.3323C18.1841 10.4538 18.5121 10.2837 18.6059 9.99193C18.6996 9.70019 18.559 9.38415 18.2778 9.2869L18.2309 9.26259V2.45543L18.2778 2.43112C18.559 2.33387 18.6996 1.99352 18.6059 1.70178C18.5121 1.41005 18.1841 1.26418 17.9029 1.36142L15.2081 2.3825C14.9269 2.47974 14.7629 2.79579 14.88 3.08752C14.9269 3.2577 15.0675 3.37926 15.2081 3.45219V8.26583C15.0675 8.31445 14.9269 8.43601 14.88 8.60618C14.7629 8.89792 14.9269 9.21397 15.2081 9.33552L17.9029 10.3323Z" fill="#5D5360"/>
<path d="M37.4921 1.55591C37.1874 1.55591 36.9297 1.79902 36.9297 2.11507C36.9297 2.79578 36.9297 9.23827 36.9297 9.28689C36.9297 9.60294 37.1874 9.84605 37.4921 9.84605H38.4528C38.8746 9.84605 39.273 9.67587 39.5542 9.38414C39.8119 9.0924 39.9994 8.70342 39.9994 8.26582V3.13614C39.9994 2.69854 39.8119 2.30956 39.5542 2.01782C39.273 1.72609 38.8746 1.55591 38.4528 1.55591H37.4921Z" fill="#5D5360"/>
<path d="M22.1694 17.5283C22.474 17.5283 22.7318 17.2852 22.7318 16.9691C22.7318 16.6531 22.474 16.3856 22.1694 16.3856V10.3564C21.8648 10.3564 19.498 10.5996 19.498 10.9156V15.8508C19.498 16.2884 19.6621 16.7017 19.9198 16.9934C19.9433 17.0177 19.9433 17.0177 19.9667 17.042C20.2479 17.3338 20.6697 17.5283 21.1149 17.5283H22.1694Z" fill="#5D5360"/>
<path d="M22.1694 12.1069V10.3564C21.8648 10.3564 19.498 10.5996 19.498 10.9156V12.1069H22.1694Z" fill="#544B56"/>
<path d="M33.0153 10.9156C33.0153 10.5996 32.7575 10.3564 32.4529 10.3564C32.2889 10.3564 32.1483 10.4294 32.0311 10.5509H22.5877C22.494 10.4294 22.3299 10.3564 22.1659 10.3564C21.8613 10.3564 21.627 10.5996 21.627 10.9156V17.3338C21.627 17.7714 21.791 18.1604 22.0487 18.4521C22.0722 18.4764 22.0722 18.4764 22.0956 18.5007C22.3768 18.7925 22.7752 18.9869 23.2204 18.9869C24.5795 18.9869 25.5168 22.7309 26.1495 25.3079C26.2432 25.6726 26.3369 26.0372 26.4072 26.3533H24.7904C24.3217 26.3533 23.8999 26.5478 23.5719 26.8638L23.5484 26.8881C23.2204 27.2285 23.0095 27.6904 23.0095 28.1766V29.4408C23.0095 29.7568 23.2672 30 23.5719 30H35.8741C36.1787 30 36.413 29.7568 36.413 29.4408V28.1766C36.413 27.6904 36.2256 27.2528 35.9444 26.9367C35.921 26.9124 35.921 26.9124 35.8975 26.8881C35.5695 26.5478 35.1477 26.3533 34.6556 26.3533H34.2338L32.1014 18.8168C32.242 18.7438 32.3826 18.6466 32.4998 18.525C32.5232 18.525 32.5232 18.5007 32.5466 18.5007C32.8278 18.1847 33.0153 17.7714 33.0153 17.3338V10.9156Z" fill="#5D5360"/>
<path d="M19.2614 0H36.3204C36.7891 0 37.2109 0.19449 37.5155 0.534848L37.1406 0.923829L37.539 0.534848L37.5624 0.559159C37.8436 0.875206 38.031 1.31281 38.031 1.77472V9.72451C38.031 10.2107 37.8436 10.6483 37.539 10.9644C37.2109 11.2804 36.7891 11.4749 36.3204 11.4749H19.2614C18.7693 11.4749 18.3475 11.2804 18.0429 10.9644C17.7382 10.6483 17.5508 10.2107 17.5508 9.72451V1.77472C17.5508 1.2885 17.7382 0.850895 18.0429 0.534848C18.0663 0.510537 18.0663 0.510537 18.0897 0.486226C18.3944 0.19449 18.7927 0 19.2614 0Z" fill="#FCBE37"/>
<path d="M21.607 1.82324H28.2853C28.8712 1.82324 29.4101 2.06635 29.8085 2.47965C30.1834 2.86863 30.4412 3.42779 30.4412 4.05988V7.09879C30.4412 7.73088 30.1834 8.29004 29.8085 8.67902C29.785 8.70333 29.785 8.70333 29.7616 8.72765C29.3867 9.11663 28.8477 9.33543 28.2853 9.33543H21.607C21.0212 9.33543 20.4822 9.09231 20.0839 8.67902L20.0604 8.65471C19.6855 8.24142 19.4512 7.70657 19.4512 7.09879V4.05988C19.4512 3.42779 19.6855 2.86863 20.0839 2.47965V2.45534C20.4822 2.06635 21.0212 1.82324 21.607 1.82324Z" fill="#5D5360"/>
<path d="M32.0565 2.26086C31.7519 2.26086 31.5176 2.50398 31.5176 2.82002C31.5176 3.13607 31.7519 3.37918 32.0565 3.37918H35.22C35.5246 3.37918 35.7589 3.13607 35.7589 2.82002C35.7589 2.50398 35.5246 2.26086 35.22 2.26086H32.0565Z" fill="#5D5360"/>
<path d="M32.0565 4.20593C31.7519 4.20593 31.5176 4.44905 31.5176 4.76509C31.5176 5.08114 31.7519 5.32425 32.0565 5.32425H35.22C35.5246 5.32425 35.7589 5.08114 35.7589 4.76509C35.7589 4.44905 35.5246 4.20593 35.22 4.20593H32.0565Z" fill="#5D5360"/>
<path d="M32.0565 6.15076C31.7519 6.15076 31.5176 6.39387 31.5176 6.70992C31.5176 7.02596 31.7519 7.29339 32.0565 7.29339H35.22C35.5246 7.29339 35.7589 7.02596 35.7589 6.70992C35.7589 6.39387 35.5246 6.15076 35.22 6.15076H32.0565Z" fill="#5D5360"/>
<path d="M8.06191 4.44905C8.06191 4.15732 7.82758 3.88989 7.52295 3.88989H6.58564C6.21072 3.88989 5.85922 4.01145 5.60146 4.23025C5.29684 4.44905 5.10938 4.78941 5.10938 5.17839V6.29671C5.10938 6.68569 5.29684 7.02605 5.60146 7.26916C5.85922 7.46365 6.21072 7.58521 6.58564 7.58521H7.52295C7.82758 7.58521 8.06191 7.34209 8.06191 7.02605C8.06191 6.73431 8.06191 4.7651 8.06191 4.44905Z" fill="#BBB7BD"/>
<path d="M11.9014 2.13945C11.8076 1.84772 11.503 1.67754 11.2218 1.77479L7.35539 3.03897C7.12106 3.11191 6.95703 3.35502 6.95703 3.59813V7.90123C6.95703 8.16865 7.14449 8.38745 7.37882 8.46039L11.2218 9.70026C11.503 9.79751 11.8076 9.62733 11.9014 9.33559C11.9951 9.04386 11.9951 2.4555 11.9014 2.13945Z" fill="#5D5360"/>
<path d="M32.0565 8.09558C31.7519 8.09558 31.5176 8.36301 31.5176 8.67905C31.5176 8.9951 31.7519 9.23821 32.0565 9.23821H35.22C35.5246 9.23821 35.7589 8.9951 35.7589 8.67905C35.7589 8.36301 35.5246 8.09558 35.22 8.09558H32.0565Z" fill="#5D5360"/>
<path d="M11.6912 1.45862H15.3936C15.6748 1.45862 15.9326 1.70173 15.9326 2.01778V9.45703C15.9326 9.77308 15.6748 10.0405 15.3936 10.0405H11.6912C11.4569 10.0405 11.246 9.94325 11.082 9.77308C10.9414 9.62721 10.8477 9.3841 10.8477 9.14098V2.33382C10.8477 2.09071 10.9414 1.87191 11.082 1.70173C11.246 1.55586 11.4569 1.45862 11.6912 1.45862Z" fill="#BBB7BD"/>
<path d="M5.50671 6.32085C5.81133 6.32085 6.04566 6.05343 6.04566 5.73738C6.04566 5.42134 5.81133 5.17822 5.50671 5.17822H0.538954C0.234328 5.17822 0 5.42134 0 5.73738C0 6.05343 0.234328 6.32085 0.538954 6.32085H5.50671Z" fill="#BBB7BD"/>
<path fill-rule="evenodd" clip-rule="evenodd" d="M21.627 11.475V17.334C21.627 17.4069 21.627 17.4556 21.627 17.5285C21.6738 17.8932 21.8378 18.2092 22.0487 18.4523L22.0956 18.5009C22.3768 18.7927 22.7752 18.9872 23.2204 18.9872C24.5795 18.9872 25.5168 22.7311 26.1495 25.3081C26.2432 25.6728 26.3369 26.0374 26.4072 26.3535H34.2338L32.1014 18.817C32.242 18.744 32.3826 18.6468 32.4998 18.5252L32.5466 18.5009C32.8278 18.1849 33.0153 17.7716 33.0153 17.334V11.475H22.1659H21.627Z" fill="#FCBE37"/>
<path fill-rule="evenodd" clip-rule="evenodd" d="M21.627 11.475V12.1071H33.0153V11.475H22.1659H21.627Z" fill="#E3AB32"/>
</svg>
