<?xml version="1.0" encoding="utf-8"?>
<!-- Generator: Adobe Illustrator 24.0.2, SVG Export Plug-In . SVG Version: 6.00 Build 0)  -->
<svg version="1.1" id="Layer_1" xmlns="http://www.w3.org/2000/svg" xmlns:xlink="http://www.w3.org/1999/xlink" x="0px" y="0px"
	 viewBox="0 0 512 512" style="enable-background:new 0 0 512 512;" xml:space="preserve">
<style type="text/css">
	.st0{fill:#C1E8F7;}
	.st1{fill:#D59A80;}
	.st2{fill:#F8F8F8;}
	.st3{fill:#ECEEEE;}
	.st4{fill:#005467;}
	.st5{fill:#E0A384;}
	.st6{fill:#36373D;}
	.st7{fill:#245E6E;}
	.st8{fill:#FFC211;}
	.st9{fill:#FFB21D;}
</style>
<circle id="XMLID_8229_" class="st0" cx="256.0887" cy="255.7101" r="245.858"/>
<g id="XMLID_7710_">
	<path id="XMLID_7730_" class="st1" d="M260.1473,351.8411c39.9694-0.4149,57.4-18.55,64.3852-34.3033
		c-13.7208-7.9852-20.3225-18.5972-23.4481-28.5896c-0.3956,0.3586-0.7766,0.7338-1.1783,1.0862
		c-3.7434,3.2901-7.7494,6.2972-12.0536,8.818c-3.6703,2.1483-7.5548,3.9335-11.6061,5.2351
		c-3.6813,1.1823-7.4861,1.96-11.3323,2.3501c-4.7781,0.483-9.6838,0.3364-14.429-0.4168
		c-3.8963-0.6186-7.7209-1.6584-11.3919-3.1011c-4.1204-1.6193-8.0353-3.731-11.7162-6.1857
		c-4.3781-2.9197-8.4298-6.3133-12.2134-9.9657c-0.1064-0.1035-0.2044-0.2186-0.3097-0.3232
		c-2.3859,9.7134-7.6861,20.7287-19.0703,30.9444C202.7174,333.177,220.0522,351.4243,260.1473,351.8411z"/>
	<path id="XMLID_7729_" class="st2" d="M157.0541,458.9136c-5.0582-48.3465-11.2965-114.8658-12.5907-130.537
		c-21.891,6.699-42.7919,14.0254-42.7919,16.2274l0.0011,0.0055c13.346-0.9988,17.1366,18.6005,27.3739,36.8833
		c5.6011,10.0015,7.2441,50.7083,6.5845,88.5228c5.0443,2.8418,10.1836,5.5305,15.4402,8.0188
		c0.3612-6.7995,0.9685-11.657,1.9359-13.8582C153.6393,462.7357,154.1347,460.0675,157.0541,458.9136z"/>
	<path id="XMLID_7728_" class="st2" d="M180.8487,318.1894l9.3957-2.001C187.9915,316.5453,184.7622,317.2406,180.8487,318.1894z"/>
	<path id="XMLID_7727_" class="st2" d="M330.2685,316.2257l8.2751,1.7798C335.1662,317.1873,332.3294,316.5705,330.2685,316.2257z"
		/>
	<path id="XMLID_7726_" class="st2" d="M390.2819,381.4928c10.1583-18.1428,13.9789-37.5619,27.0785-36.8819l0.0051-0.0479
		c0-2.2039-20.6625-9.5357-42.28-16.2318c-1.2873,15.6004-7.5362,82.2322-12.5998,130.6241
		c2.8082,1.1809,3.2857,3.8016,3.9094,5.2209c0.7875,1.7922,1.3085,5.4066,1.6416,10.4033
		c5.302-2.7179,10.528-5.5609,15.5982-8.6429C383.1599,429.3198,384.8815,391.1356,390.2819,381.4928z"/>
	<path id="XMLID_7725_" class="st2" d="M190.0265,458.344h139.4903c5.6662-53.7903,14.7313-132.3398,19.1552-137.7197
		c-3.6634-0.9933-7.0364-1.8671-10.0026-2.5874c-6.3747,16.4815-25.6611,46.7861-77.1116,47.782v0.094
		c-0.4899,0-0.9264-0.0421-1.4105-0.0464c-0.4826,0.0044-0.9202,0.0464-1.4101,0.0464v-0.094
		c-51.4498-0.9959-71.6571-31.1119-78.0329-47.5945c-2.9205,0.7093-6.201,1.5545-9.7434,2.5062
		C175.4173,327.052,184.3995,404.9171,190.0265,458.344z"/>
	<path id="XMLID_7724_" class="st3" d="M258.7372,365.8189v0.094c0.4899,0,0.9275-0.0421,1.4101-0.0464
		c0.4841,0.0044,0.9206,0.0464,1.4105,0.0464v-0.094c51.4505-0.9959,70.7369-31.3005,77.1116-47.782l0.0018-0.0037l-0.1276-0.0278
		l-8.2751-1.7798l-4.747-1.02c-0.2961,0.7685-0.6416,1.5502-0.989,2.3322c-6.9853,15.7532-24.4158,33.8883-64.3852,34.3033
		c-40.0952-0.4168-57.43-18.6641-64.3636-34.4513c-0.3214-0.7319-0.6471-1.4657-0.9246-2.1841l-4.6147,0.9827l-9.3957,2.001
		l-0.1462,0.0314c0.0007,0.0007,0.0018,0.0026,0.0018,0.0026C187.0801,334.7071,207.2874,364.823,258.7372,365.8189z"/>
	<path id="XMLID_7723_" class="st3" d="M129.0465,381.4928c-10.2373-18.2828-14.0279-37.8822-27.3739-36.8833
		c-0.989,0.0739-2.0192,0.2362-3.1204,0.5451c-11.3403,3.1921-24.0089,34.5219-32.3352,66.7463
		c19.2765,23.4064,42.8266,43.1377,69.4141,58.1147C136.2906,432.2011,134.6476,391.4943,129.0465,381.4928z"/>
	<path id="XMLID_7722_" class="st3" d="M420.7755,345.1546c-1.2142-0.3407-2.3351-0.4873-3.4151-0.5436
		c-13.0996-0.68-16.9202,18.7391-27.0785,36.8819c-5.4004,9.6428-7.122,47.827-6.6471,84.4438
		c26.1696-15.9115,49.093-36.6044,67.6544-60.8177C443.0061,375.408,431.317,348.1215,420.7755,345.1546z"/>
	<path id="XMLID_7721_" class="st4" d="M160.3441,458.344h29.6824c-5.627-53.4269-14.6092-131.292-19.0656-137.6133
		c-0.1824-0.2581-0.3572-0.4099-0.5232-0.423c-4.2257-0.3305-26.344,3.565-26.0011,7.7519c0.007,0.0929,0.0186,0.2216,0.0267,0.317
		c1.2943,15.6713,7.5326,82.1906,12.5907,130.537C157.9209,458.5707,158.9768,458.344,160.3441,458.344z"/>
	<path id="XMLID_7720_" class="st4" d="M329.5168,458.344h29.5394c1.4343,0,2.5421,0.2384,3.4294,0.6113
		c5.0636-48.3918,11.3125-115.0237,12.5998-130.6241c0.0062-0.0815,0.0161-0.192,0.0223-0.2716
		c0.3437-4.1869-21.7765-8.0824-26.0022-7.7519c-0.1393,0.0106-0.2848,0.1345-0.4336,0.3166
		C344.2482,326.0042,335.183,404.5537,329.5168,458.344z"/>
	<path id="XMLID_7719_" class="st5" d="M192.6256,229.8775c0.442-22.752-2.2565-24.2356-9.6739-29.4305
		c-2.3922,1.1487-4.0078,5.3528-3.3142,11.9374c1.0061,9.5624,5.7868,24.9935,13.2872,23.3585
		C192.657,233.5774,192.5971,231.3699,192.6256,229.8775z"/>
	<path id="XMLID_7718_" class="st5" d="M325.9858,229.8775c0.0296,1.4924-0.0303,3.6999-0.298,5.8654
		c7.5004,1.635,12.2799-13.7961,13.2868-23.3585c0.6928-6.5845-0.9221-10.7886-3.3142-11.9374
		C328.2431,205.6419,325.5449,207.1255,325.9858,229.8775z"/>
	<path id="XMLID_7717_" class="st5" d="M227.3771,296.7342c3.6809,2.4547,7.5958,4.5664,11.7162,6.1857
		c3.671,1.4427,7.4956,2.4825,11.3919,3.1011c4.7452,0.7531,9.6509,0.8997,14.429,0.4168c3.8462-0.3901,7.651-1.1678,11.3323-2.3501
		c4.0513-1.3016,7.9358-3.0868,11.6061-5.2351c4.3043-2.5208,8.3102-5.528,12.0536-8.818c0.4018-0.3524,0.7827-0.7276,1.1783-1.0862
		c0.7933-0.7202,1.5922-1.4354,2.3633-2.1797c11.3359-10.9451,14.6191-33.6389,16.9272-45.15l-3.2747-0.0026
		c-2.1743,0.4391-1.786,3.2053-1.7227-7.4496c0.0812-13.6798-0.0662-25.928-1.7191-38.7921
		c-16.8354,4.0151-36.5079,7.0141-54.3527,7.0141c-17.5322,0-37.3272-3.0535-54.3355-7.1227
		c-1.6675,12.9033-1.8163,25.1825-1.7352,38.9007c0.0632,10.6548,0.4515,7.8887-1.7227,7.4496l-3.2751,0.0026
		c2.2861,11.4028,5.5378,33.7677,16.6167,44.8268c0.1053,0.1046,0.2033,0.2197,0.3097,0.3232
		C218.9473,290.421,222.9989,293.8145,227.3771,296.7342z"/>
	<path id="XMLID_7716_" class="st6" d="M203.2351,234.1664c-0.0812-13.7182,0.0676-25.9974,1.7352-38.9007
		c-13.878-3.3204-25.8772-7.3139-33.2741-10.8899c-0.015,0.2804-0.0614,0.5517-0.0614,0.8358c0,6.465,4.1248,11.9516,9.8801,14.0136
		c0.2943,0.3159,0.5915,0.6292,0.955,0.8855c0.1678,0.1166,0.3195,0.223,0.4819,0.3364c7.4174,5.1949,10.1159,6.6785,9.6739,29.4305
		c-0.0285,1.4924,0.0314,3.6999,0.2991,5.8654c0.2855,2.3136,0.8087,4.5796,1.7326,5.8786l3.58-0.0029l3.2751-0.0026
		C203.6866,242.0551,203.2983,244.8212,203.2351,234.1664z"/>
	<path id="XMLID_7715_" class="st6" d="M313.6584,195.3743c1.6529,12.8642,1.8002,25.1123,1.7191,38.7921
		c-0.0632,10.6548-0.4515,7.8887,1.7227,7.4496l3.2747,0.0026l3.5793,0.0029c0.925-1.299,1.4478-3.565,1.7337-5.8786
		c0.2676-2.1655,0.3276-4.373,0.298-5.8654c-0.4409-22.752,2.2572-24.2356,9.6747-29.4305
		c0.1627-0.1133,0.3144-0.2197,0.4811-0.3364c0.3642-0.2563,0.6614-0.5696,0.9561-0.8855c5.7546-2.062,9.8801-7.5486,9.8801-14.0136
		c0-0.2618-0.0446-0.5115-0.057-0.7703C339.5487,188.0391,327.5872,192.0524,313.6584,195.3743z"/>
	<path id="XMLID_7714_" class="st7" d="M362.4857,458.9553c-0.8873-0.3729-1.9951-0.6113-3.4294-0.6113h-29.5394H190.0265h-29.6824
		c-1.3674,0-2.4232,0.2267-3.2901,0.5696c-2.9194,1.1539-3.4147,3.8221-4.0469,5.2625c-0.9674,2.2013-1.5747,7.0587-1.9359,13.8582
		c31.8511,15.0717,67.4413,23.5333,105.0174,23.5333c40.3347,0,78.3623-9.7748,111.9479-26.9882
		c-0.3331-4.9967-0.8541-8.6111-1.6416-10.4033C365.7713,462.7569,365.2939,460.1362,362.4857,458.9553z"/>
	<path id="XMLID_7713_" class="st8" d="M271.6664,187.3902c12.6185-0.8826,31.7718-2.4901,42.0928-4.6852
		c20.7506-4.4129,31.0673-7.571,36.1656-8.285c0.7286-0.3009,1.1089-0.4767,1.1089-0.4767c0-24.9997-5.6771-69.938-43.0526-90.7914
		C305.4992,87.3157,273.8444,141.2523,271.6664,187.3902z"/>
	<path id="XMLID_7712_" class="st8" d="M204.8525,182.705c10.3218,2.1951,29.4751,3.8034,42.0943,4.6852
		c-2.1794-46.1379-33.8335-100.0752-36.3159-104.2384c-37.3754,20.8534-43.0522,65.7917-43.0522,90.7914
		c0,0,0.3813,0.1758,1.1096,0.4767C173.7867,175.134,184.1033,178.2921,204.8525,182.705z"/>
	<path id="XMLID_7711_" class="st9" d="M204.9702,195.2657c17.0083,4.0692,36.8033,7.1227,54.3355,7.1227
		c17.8448,0,37.5173-2.9991,54.3527-7.0141c13.9288-3.3219,25.8903-7.3351,33.2624-10.9331
		c4.9423-2.4126,7.8411-4.6388,7.8411-6.3348c0-3.2517-0.7272-4.2611-4.8369-3.6864c-5.0984,0.714-15.415,3.8721-36.1656,8.285
		c-10.321,2.1951-29.4743,3.8027-42.0928,4.6852c2.1779-46.1379,33.8327-100.0745,36.3148-104.2384
		c0.1009-0.1696,0.1715-0.2866,0.1715-0.2866c-10.7923-10.9111-32.0117-17.3991-50.4261-17.2324
		c-17.5062,0.159-37.3612,7.1907-47.2669,17.2324c0,0,0.0695,0.1159,0.1711,0.2866c2.4825,4.1631,34.1365,58.1005,36.3159,104.2384
		c-12.6192-0.8818-31.7725-2.4901-42.0943-4.6852c-20.7492-4.4129-31.0658-7.571-36.1642-8.285
		c-4.1112-0.5747-4.8381,0.4347-4.8381,3.6864c0,1.6818,2.9066,3.882,7.8459,6.2694
		C179.0931,187.9518,191.0922,191.9453,204.9702,195.2657z"/>
</g>
</svg>
