<?xml version="1.0" encoding="utf-8"?>
<!-- Generator: Adobe Illustrator 24.3.0, SVG Export Plug-In . SVG Version: 6.00 Build 0)  -->
<svg version="1.1" id="Layer_1" xmlns="http://www.w3.org/2000/svg" xmlns:xlink="http://www.w3.org/1999/xlink" x="0px" y="0px"
	 viewBox="0 0 64 64" enable-background="new 0 0 64 64" xml:space="preserve">
<rect x="8" y="24" fill="#FFFFFF" width="48" height="37"/>
<path fill="#FCBC04" d="M8,24v37h14V41.5c0-0.8,0.7-1.5,1.5-1.5h0c0.8,0,1.5,0.7,1.5,1.5v3c0,1.4,1.1,2.5,2.5,2.5h0
	c1.4,0,2.5-1.1,2.5-2.5v-7c0-0.8,0.7-1.5,1.5-1.5h0c0.8,0,1.5,0.7,1.5,1.5v3c0,1.4,1.1,2.5,2.5,2.5h0c1.4,0,2.5-1.1,2.5-2.5V24H8z"
	/>
<path fill="#EBAF04" d="M38,32H20c-0.6,0-1-0.4-1-1v-7h19V32z"/>
<polygon fill="#656B76" points="32,3 3,24 61,24 "/>
<path fill="#E59730" d="M22,23v6c0,0.6,0.4,1,1,1h11l-8-8h-3C22.4,22,22,22.4,22,23z"/>
<path fill="#E59730" d="M45,30c0.6,0,1-0.4,1-1v-3v-3c0-0.6-0.4-1-1-1H33l8,8H45z"/>
<polygon fill="#FCBC04" points="33,22 26,22 34,30 38,30 41,30 "/>
<rect x="27" y="12" fill="#FCE39A" width="10" height="8"/>
<g>
	<path fill="#D6DEE0" d="M43,44h-2v-8c0-0.4,0.3-0.8,0.7-1l9.3-2.8V27h-5v-2h6c0.6,0,1,0.4,1,1v7c0,0.4-0.3,0.8-0.7,1L43,36.7V44z"
		/>
</g>
<g>
	<path fill="#E59730" d="M23,52h-2V41.5c0-1.4,1.1-2.5,2.5-2.5s2.5,1.1,2.5,2.5v3c0,0.8,0.7,1.5,1.5,1.5s1.5-0.7,1.5-1.5v-7
		c0-1.4,1.1-2.5,2.5-2.5s2.5,1.1,2.5,2.5v3c0,0.8,0.7,1.5,1.5,1.5s1.5-0.7,1.5-1.5V30h2v10.5c0,1.9-1.6,3.5-3.5,3.5S32,42.4,32,40.5
		v-3c0-0.3-0.2-0.5-0.5-0.5S31,37.2,31,37.5v7c0,1.9-1.6,3.5-3.5,3.5S24,46.4,24,44.5v-3c0-0.3-0.2-0.5-0.5-0.5S23,41.2,23,41.5V52z
		"/>
</g>
<g>
	<rect x="21" y="54" fill="#E59730" width="2" height="2"/>
</g>
<path fill="#876502" d="M37,11H27c-0.6,0-1,0.4-1,1v8c0,0.6,0.4,1,1,1h10c0.6,0,1-0.4,1-1v-8C38,11.4,37.6,11,37,11z M36,15h-3v-2h3
	V15z M31,13v2h-3v-2H31z M28,17h3v2h-3V17z M33,19v-2h3v2H33z"/>
<g>
	<path fill="#D6DEE0" d="M18,47h-2v-1c0-3.3-2.7-6-6-6s-6,2.7-6,6v1H2v-1c0-4.4,3.6-8,8-8s8,3.6,8,8V47z"/>
</g>
<rect x="40" y="44" fill="#656B76" width="4" height="17"/>
<path fill="#656B76" d="M2,47v14c0,0.6,0.4,1,1,1h14c0.6,0,1-0.4,1-1V47H2z"/>
<path fill="#FCBC04" d="M5,55c1.1,0,2-0.9,2-2v-3v-1v1c0,1.1,0.9,2,2,2s2-0.9,2-2v-3H3v5v1C3,54.1,3.9,55,5,55z"/>
<path fill="#33363B" d="M3,62h14c0.6,0,1-0.4,1-1V47c0,0-1.4,7.5-5,11C9,62,2.7,62,3,62z"/>
</svg>
