<svg width="32" height="30" viewBox="0 0 32 30" fill="none" xmlns="http://www.w3.org/2000/svg">
<path d="M0 24.8074C0 25.502 0.288411 26.1544 0.8125 26.6458L2.24479 27.9885C2.76888 28.4799 3.46484 28.7502 4.20573 28.7502C5.13477 28.7502 5.9974 28.3175 6.51367 27.593C7.82617 25.7467 9.45117 24.136 11.3438 22.8054C12.9954 21.6439 14.3874 20.223 15.4811 18.5824L17.1917 16.0169L19.8047 13.5671C20.6081 12.8152 22.3359 12.2201 23.9525 12.6034C24.765 12.839 25.3333 13.5543 25.3333 14.3752C25.3333 14.5046 25.3151 14.642 25.278 14.7946C25.2279 15.0039 25.2949 15.223 25.457 15.375L26.862 16.6921C26.9922 16.8142 27.1628 16.8752 27.3333 16.8752C27.5039 16.8752 27.6745 16.8142 27.8047 16.6921L31.8047 12.9421C32.0651 12.698 32.0651 12.3025 31.8047 12.0583L30.3997 10.7412C30.2389 10.5892 30.0046 10.5245 29.7806 10.5734C29.6178 10.6082 29.4714 10.6252 29.3333 10.6252C28.2305 10.6252 27.3333 9.78418 27.3333 8.75024C27.3333 8.61597 27.3542 8.47314 27.3997 8.30042C27.4551 8.09045 27.3906 7.8689 27.2292 7.71387L23.5612 4.19763C21.5267 2.29028 18.8483 1.25024 16 1.25024C13.8424 1.25024 12.4154 1.91919 11.0352 2.56616C10.7585 2.69556 10.6133 2.98669 10.6842 3.26868C10.7552 3.55066 11.0241 3.75024 11.3333 3.75024C14.3906 3.75024 15.5358 4.82385 16.862 6.06714C17.8431 6.98694 17.0065 9.42285 16.1953 10.1833L13.5823 12.6331L10.8457 14.2367C9.0957 15.2621 7.58008 16.567 6.34115 18.1149C4.92188 19.8898 3.20378 21.4132 1.23503 22.6437C0.461588 23.1277 0 23.9364 0 24.8074Z" fill="#303C42"/>
<path d="M18.862 12.6833L16.6667 14.7415L14.9427 13.1252L17.138 11.0671C18.3574 9.92395 19.4531 6.72815 17.8047 5.18335C16.8307 4.26965 15.7617 3.26807 13.8672 2.78833C14.498 2.61133 15.1895 2.50024 16 2.50024C18.4922 2.50024 20.8359 3.41028 22.5983 5.0625L26.0312 8.35352C26.0104 8.49023 26 8.62146 26 8.75024C26 10.5868 27.6764 12.0931 29.7012 11.8539L30.3906 12.5002L27.3333 15.3665L26.6439 14.7201C26.6595 14.6029 26.6667 14.4888 26.6667 14.3752C26.6667 13.0026 25.7201 11.8069 24.3112 11.3998C22.1628 10.8944 19.9505 11.6628 18.862 12.6833Z" fill="#D7CCC8"/>
<path d="M1.33398 24.8074C1.33398 24.3551 1.57357 23.9352 1.97591 23.6837C4.07031 22.3745 5.89844 20.7534 7.4082 18.865C8.54818 17.441 9.94271 16.2405 11.5534 15.2963L13.9043 13.9187L15.821 15.7156L14.3516 17.9196C13.3444 19.4296 12.0638 20.7369 10.5449 21.8057C8.5306 23.2211 6.80143 24.9349 5.40495 26.899C4.92253 27.5759 3.80143 27.6803 3.18815 27.1047L1.75586 25.762C1.48372 25.5068 1.33398 25.1681 1.33398 24.8074Z" fill="#FF8F00"/>
<path opacity="0.1" d="M29.7013 11.8539C27.6765 12.0931 26.0001 10.5868 26.0001 8.75021C26.0001 8.62143 26.0105 8.4902 26.0313 8.35349L23.9177 6.32727L15.8047 13.9332L16.6667 14.7414L18.8621 12.6833C19.9506 11.6628 22.1628 10.8944 24.3113 11.3998C25.7201 11.8069 26.6667 13.0025 26.6667 14.3752C26.6667 14.4887 26.6596 14.6029 26.644 14.7201L27.3334 15.3664L30.3907 12.5002L29.7013 11.8539Z" fill="black"/>
<path opacity="0.1" d="M3.18693 27.1047C3.80021 27.6803 4.92131 27.5759 5.40373 26.899C6.80021 24.9349 8.52938 23.221 10.5437 21.8056C12.0626 20.7369 13.3432 19.4295 14.3503 17.9195L15.8197 15.7155L14.8613 14.817L2.4707 26.4332L3.18693 27.1047Z" fill="black"/>
<path d="M30.862 23.0493L22.3776 15.0958C22.2045 14.9335 21.9499 14.8718 21.7149 14.939C21.5671 14.9805 21.446 15 21.3334 15C20.5983 15 20 14.4391 20 13.75C20 13.6444 20.0209 13.5309 20.0651 13.393C20.1361 13.1726 20.0723 12.9334 19.8985 12.7704L18.9434 11.8756C18.0847 11.0693 16.584 11.0687 15.724 11.875L15.6667 11.9287L8.00002 4.74122V3.85011C8.00002 3.17933 7.61396 2.55555 6.99221 2.2223L2.99742 0.0824089C2.89263 0.0257129 2.77719 -0.000629344 2.66281 1.1406e-05C2.49152 0.000970906 2.3226 0.0634439 2.19534 0.183117L0.195335 2.05812C-0.0175553 2.25709 -0.0611751 2.56532 0.0879135 2.81007L2.37047 6.55519C2.72593 7.13807 3.39195 7.50001 4.10744 7.50001H5.05731L12.724 14.6875L12.6673 14.7406C12.237 15.1434 12 15.6793 12 16.25C12 16.8201 12.237 17.356 12.6667 17.7588L13.6224 18.6542C13.7969 18.8178 14.0508 18.8788 14.2852 18.811C14.433 18.7695 14.5541 18.75 14.6667 18.75C15.4017 18.75 16 19.3109 16 20C16 20.1056 15.9792 20.2185 15.9349 20.3558C15.8633 20.5762 15.9278 20.8161 16.1016 20.979L24.586 28.9331C25.3093 29.6112 26.3106 30 27.3334 30C28.3561 30 29.3574 29.6112 30.0808 28.9331L30.862 28.2007C31.5853 27.5226 32 26.5839 32 25.625C32 24.6661 31.5853 23.7274 30.862 23.0493Z" fill="#303C42"/>
<path d="M5.80469 6.43311C5.67969 6.31592 5.51042 6.25 5.33333 6.25H4.10742C3.86849 6.25 3.64648 6.12915 3.52799 5.93506L1.49805 2.60437L2.77799 1.40442L6.33008 3.30749C6.53776 3.41858 6.66667 3.62671 6.66667 3.8501V5C6.66667 5.16602 6.73698 5.32471 6.86198 5.44189L14.724 12.8125L13.6667 13.8037L5.80469 6.43311Z" fill="#D7CCC8"/>
<path d="M29.9199 27.3169L29.1387 28.0493C28.1882 28.9405 26.4798 28.9405 25.5293 28.0493L17.3053 20.3394C17.3249 20.224 17.334 20.1111 17.334 20C17.334 18.5108 15.9557 17.287 14.306 17.5269L13.61 16.875C13.4323 16.7078 13.334 16.4862 13.334 16.25C13.334 16.0138 13.4316 15.7917 13.61 15.625L16.6673 12.7588C17.0241 12.4256 17.6452 12.4243 18.0007 12.7588L18.696 13.4101C18.6771 13.526 18.6673 13.6389 18.6673 13.75C18.6667 15.2387 20.0299 16.4673 21.6953 16.2232L29.9199 23.9331C30.3952 24.3787 30.6673 24.9951 30.6673 25.625C30.6673 26.2549 30.3952 26.8714 29.9199 27.3169Z" fill="#1E88E5"/>
<path opacity="0.1" d="M1.49805 2.60437L3.52799 5.93506C3.64648 6.12915 3.86849 6.25 4.10742 6.25H5.33333C5.51042 6.25 5.67969 6.31592 5.80469 6.43311L13.6667 13.8037L14.1953 13.3081L2.13802 2.00439L1.49805 2.60437Z" fill="black"/>
<path opacity="0.1" d="M15.1387 14.1919L13.61 15.625C13.4316 15.7916 13.334 16.0138 13.334 16.25C13.334 16.4862 13.4323 16.7078 13.61 16.875L14.306 17.5269C15.9557 17.287 17.334 18.5107 17.334 20C17.334 20.1111 17.3249 20.224 17.3053 20.3394L25.5293 28.0493C26.4798 28.9404 28.1882 28.9404 29.1387 28.0493L29.5293 27.6831L15.1387 14.1919Z" fill="black"/>
<path d="M22.3776 15.0958C22.2045 14.9335 21.9499 14.8718 21.7149 14.939C21.5671 14.9805 21.446 15 21.3334 15C20.5983 15 20 14.4391 20 13.75C20 13.6444 20.0209 13.5309 20.0651 13.393C20.0688 13.3817 20.0631 13.3702 20.066 13.3589C20.9438 12.7124 22.4901 12.2566 23.9525 12.6033C24.765 12.8389 25.3334 13.5542 25.3334 14.3752C25.3334 14.5046 25.3151 14.6419 25.278 14.7945C25.2279 15.0038 25.2949 15.2229 25.4571 15.3749L26.862 16.6921C26.9922 16.8141 27.1628 16.8752 27.3334 16.8752C27.5039 16.8752 27.6745 16.8141 27.8047 16.6921L31.8047 12.9421C32.0651 12.6979 32.0651 12.3024 31.8047 12.0583L30.3998 10.7411C30.239 10.5892 30.0046 10.5245 29.7806 10.5733C29.6179 10.6081 29.4714 10.6252 29.3334 10.6252C28.2305 10.6252 27.3334 9.7841 27.3334 8.75017C27.3334 8.61589 27.3542 8.47307 27.3998 8.30034C27.4551 8.09038 27.3906 7.86882 27.2292 7.71379L23.5612 4.19755C21.5267 2.2902 18.8483 1.25017 16 1.25017C13.8425 1.25017 12.4154 1.91911 11.0352 2.56608C10.7585 2.69548 10.6133 2.98662 10.6843 3.2686C10.7552 3.55058 11.0241 3.75017 11.3334 3.75017C14.3906 3.75017 15.5358 4.82377 16.862 6.06706C17.8431 6.98686 17.0065 9.42277 16.1953 10.1833L15.0001 11.3038L8.00002 4.74122V3.85011C8.00002 3.17933 7.61396 2.55556 6.99221 2.2223L2.99742 0.0824106C2.8926 0.0257242 2.7772 -0.000673576 2.66278 1.30486e-05C2.49156 0.000928549 2.32261 0.0634133 2.19534 0.183119L0.195335 2.05812C-0.0175553 2.25709 -0.0611751 2.56532 0.0879135 2.81007L2.37047 6.55519C2.72593 7.13807 3.39195 7.50001 4.10744 7.50001H5.05731L11.7056 13.7328L10.8457 14.2366C9.09573 15.262 7.5801 16.5669 6.34117 18.1148C4.9219 19.8897 3.2038 21.4131 1.23505 22.6436C0.461611 23.1276 2.28072e-05 23.9363 2.28072e-05 24.8073C2.28072e-05 25.5019 0.288434 26.1543 0.812523 26.6457L2.24481 27.9884C2.7689 28.4798 3.46487 28.7502 4.20575 28.7502C5.13479 28.7502 5.99742 28.3174 6.51369 27.5929C7.82619 25.7466 9.45119 24.1359 11.3438 22.8053C12.888 21.7194 14.1945 20.3986 15.2533 18.8916C15.691 19.0968 16 19.5109 16 20C16 20.1056 15.9792 20.2185 15.9349 20.3558C15.8633 20.5762 15.9278 20.8161 16.1016 20.979L24.586 28.9331C25.3093 29.6112 26.3106 30 27.3334 30C28.3561 30 29.3574 29.6112 30.0808 28.9331L30.862 28.2007C31.5853 27.5226 32 26.5839 32 25.625C32 24.6661 31.5853 23.7274 30.862 23.0493L22.3776 15.0958Z" fill="url(#paint0_linear_921_1929)"/>
<defs>
<linearGradient id="paint0_linear_921_1929" x1="-3.20257" y1="8.79982" x2="32.0472" y2="26.3329" gradientUnits="userSpaceOnUse">
<stop stop-color="white" stop-opacity="0.2"/>
<stop offset="1" stop-color="white" stop-opacity="0"/>
</linearGradient>
</defs>
</svg>
