<svg width="20" height="20" viewBox="0 0 20 20" fill="none" xmlns="http://www.w3.org/2000/svg">
<path d="M14.1667 11.6667C14.3877 11.6667 14.5996 11.5789 14.7559 11.4226C14.9122 11.2663 15 11.0543 15 10.8333C15 10.6123 14.9122 10.4004 14.7559 10.2441C14.5996 10.0878 14.3877 10 14.1667 10C13.9457 10 13.7337 10.0878 13.5774 10.2441C13.4211 10.4004 13.3333 10.6123 13.3333 10.8333C13.3333 11.0543 13.4211 11.2663 13.5774 11.4226C13.7337 11.5789 13.9457 11.6667 14.1667 11.6667ZM14.1667 15C14.3877 15 14.5996 14.9122 14.7559 14.7559C14.9122 14.5996 15 14.3877 15 14.1667C15 13.9457 14.9122 13.7337 14.7559 13.5774C14.5996 13.4211 14.3877 13.3333 14.1667 13.3333C13.9457 13.3333 13.7337 13.4211 13.5774 13.5774C13.4211 13.7337 13.3333 13.9457 13.3333 14.1667C13.3333 14.3877 13.4211 14.5996 13.5774 14.7559C13.7337 14.9122 13.9457 15 14.1667 15ZM10.8333 10.8333C10.8333 11.0543 10.7455 11.2663 10.5893 11.4226C10.433 11.5789 10.221 11.6667 10 11.6667C9.77899 11.6667 9.56702 11.5789 9.41074 11.4226C9.25446 11.2663 9.16667 11.0543 9.16667 10.8333C9.16667 10.6123 9.25446 10.4004 9.41074 10.2441C9.56702 10.0878 9.77899 10 10 10C10.221 10 10.433 10.0878 10.5893 10.2441C10.7455 10.4004 10.8333 10.6123 10.8333 10.8333ZM10.8333 14.1667C10.8333 14.3877 10.7455 14.5996 10.5893 14.7559C10.433 14.9122 10.221 15 10 15C9.77899 15 9.56702 14.9122 9.41074 14.7559C9.25446 14.5996 9.16667 14.3877 9.16667 14.1667C9.16667 13.9457 9.25446 13.7337 9.41074 13.5774C9.56702 13.4211 9.77899 13.3333 10 13.3333C10.221 13.3333 10.433 13.4211 10.5893 13.5774C10.7455 13.7337 10.8333 13.9457 10.8333 14.1667ZM5.83333 11.6667C6.05435 11.6667 6.26631 11.5789 6.42259 11.4226C6.57887 11.2663 6.66667 11.0543 6.66667 10.8333C6.66667 10.6123 6.57887 10.4004 6.42259 10.2441C6.26631 10.0878 6.05435 10 5.83333 10C5.61232 10 5.40036 10.0878 5.24408 10.2441C5.0878 10.4004 5 10.6123 5 10.8333C5 11.0543 5.0878 11.2663 5.24408 11.4226C5.40036 11.5789 5.61232 11.6667 5.83333 11.6667ZM5.83333 15C6.05435 15 6.26631 14.9122 6.42259 14.7559C6.57887 14.5996 6.66667 14.3877 6.66667 14.1667C6.66667 13.9457 6.57887 13.7337 6.42259 13.5774C6.26631 13.4211 6.05435 13.3333 5.83333 13.3333C5.61232 13.3333 5.40036 13.4211 5.24408 13.5774C5.0878 13.7337 5 13.9457 5 14.1667C5 14.3877 5.0878 14.5996 5.24408 14.7559C5.40036 14.9122 5.61232 15 5.83333 15Z" fill="#979797"/>
<path fill-rule="evenodd" clip-rule="evenodd" d="M5.8338 1.45825C5.99956 1.45825 6.15853 1.5241 6.27574 1.64131C6.39295 1.75852 6.4588 1.91749 6.4588 2.08325V2.71909C7.01047 2.70825 7.61797 2.70825 8.2863 2.70825H11.7138C12.383 2.70825 12.9905 2.70825 13.5421 2.71909V2.08325C13.5421 1.91749 13.608 1.75852 13.7252 1.64131C13.8424 1.5241 14.0014 1.45825 14.1671 1.45825C14.3329 1.45825 14.4919 1.5241 14.6091 1.64131C14.7263 1.75852 14.7921 1.91749 14.7921 2.08325V2.77242C15.0088 2.78909 15.2138 2.80992 15.408 2.83575C16.3846 2.96742 17.1755 3.24409 17.7996 3.86742C18.423 4.49159 18.6996 5.28242 18.8313 6.25909C18.9588 7.20909 18.9588 8.42159 18.9588 9.95325V11.7133C18.9588 13.2449 18.9588 14.4583 18.8313 15.4074C18.6996 16.3841 18.423 17.1749 17.7996 17.7991C17.1755 18.4224 16.3846 18.6991 15.408 18.8308C14.458 18.9583 13.2455 18.9583 11.7138 18.9583H8.28797C6.7563 18.9583 5.54297 18.9583 4.5938 18.8308C3.61714 18.6991 2.8263 18.4224 2.20214 17.7991C1.5788 17.1749 1.30214 16.3841 1.17047 15.4074C1.04297 14.4574 1.04297 13.2449 1.04297 11.7133V9.95325C1.04297 8.42159 1.04297 7.20825 1.17047 6.25909C1.30214 5.28242 1.5788 4.49159 2.20214 3.86742C2.8263 3.24409 3.61714 2.96742 4.5938 2.83575C4.78797 2.80992 4.9938 2.78909 5.20964 2.77242V2.08325C5.20964 1.91764 5.27537 1.75879 5.3924 1.6416C5.50943 1.52442 5.66819 1.45847 5.8338 1.45825ZM4.7588 4.07492C3.9213 4.18742 3.43797 4.39909 3.08547 4.75159C2.73297 5.10409 2.5213 5.58742 2.4088 6.42575C2.38964 6.56742 2.3738 6.71742 2.36047 6.87492H17.6405C17.6271 6.71659 17.6113 6.56742 17.5921 6.42492C17.4796 5.58742 17.268 5.10409 16.9155 4.75159C16.563 4.39909 16.0796 4.18742 15.2413 4.07492C14.3855 3.95992 13.2563 3.95825 11.6671 3.95825H8.3338C6.74464 3.95825 5.6163 3.95992 4.7588 4.07492ZM2.29214 9.99992C2.29214 9.28825 2.29214 8.66909 2.30297 8.12492H17.698C17.7088 8.66909 17.7088 9.28825 17.7088 9.99992V11.6666C17.7088 13.2558 17.7071 14.3849 17.5921 15.2416C17.4796 16.0791 17.268 16.5624 16.9155 16.9149C16.563 17.2674 16.0796 17.4791 15.2413 17.5916C14.3855 17.7066 13.2563 17.7083 11.6671 17.7083H8.3338C6.74464 17.7083 5.6163 17.7066 4.7588 17.5916C3.9213 17.4791 3.43797 17.2674 3.08547 16.9149C2.73297 16.5624 2.5213 16.0791 2.4088 15.2408C2.2938 14.3849 2.29214 13.2558 2.29214 11.6666V9.99992Z" fill="#979797"/>
</svg>
