<?xml version="1.0" encoding="UTF-8"?>
<!DOCTYPE svg PUBLIC "-//W3C//DTD SVG 1.1//EN" "http://www.w3.org/Graphics/SVG/1.1/DTD/svg11.dtd">
<!-- Creator: CorelDRAW -->
<svg xmlns="http://www.w3.org/2000/svg" xml:space="preserve" width="7.11111in" height="7.11111in" version="1.1" style="shape-rendering:geometricPrecision; text-rendering:geometricPrecision; image-rendering:optimizeQuality; fill-rule:evenodd; clip-rule:evenodd"
viewBox="0 0 7111 7111"
 xmlns:xlink="http://www.w3.org/1999/xlink">
 <defs>
  <style type="text/css">
   <![CDATA[
    .fil2 {fill:#58535A}
    .fil0 {fill:#919191}
    .fil11 {fill:#B3B3B3}
    .fil5 {fill:#FFD400}
    .fil14 {fill:url(#id0)}
    .fil12 {fill:url(#id1)}
    .fil4 {fill:url(#id2)}
    .fil10 {fill:url(#id3)}
    .fil9 {fill:url(#id4)}
    .fil15 {fill:url(#id5)}
    .fil1 {fill:url(#id6)}
    .fil8 {fill:url(#id7)}
    .fil3 {fill:url(#id8)}
    .fil16 {fill:url(#id9)}
    .fil13 {fill:url(#id10)}
    .fil7 {fill:url(#id11);fill-rule:nonzero}
    .fil6 {fill:url(#id12);fill-rule:nonzero}
   ]]>
  </style>
  <linearGradient id="id0" gradientUnits="userSpaceOnUse" x1="2446.23" y1="1941.75" x2="2446.23" y2="1113.06">
   <stop offset="0" style="stop-opacity:1; stop-color:#E6E6E6"/>
   <stop offset="1" style="stop-opacity:1; stop-color:#CCCCCC"/>
  </linearGradient>
  <linearGradient id="id1" gradientUnits="userSpaceOnUse" x1="5461.84" y1="1605.73" x2="5461.84" y2="2299.22">
   <stop offset="0" style="stop-opacity:1; stop-color:#CF7C0E"/>
   <stop offset="1" style="stop-opacity:1; stop-color:#CF5300"/>
  </linearGradient>
  <linearGradient id="id2" gradientUnits="userSpaceOnUse" x1="4992.18" y1="6245.07" x2="4992.18" y2="7082.17">
   <stop offset="0" style="stop-opacity:1; stop-color:#E0AC69"/>
   <stop offset="1" style="stop-opacity:1; stop-color:#F1C27D"/>
  </linearGradient>
  <linearGradient id="id3" gradientUnits="userSpaceOnUse" x1="2748.31" y1="2087.12" x2="2748.31" y2="967.689">
   <stop offset="0" style="stop-opacity:1; stop-color:#8E8E8E"/>
   <stop offset="1" style="stop-opacity:1; stop-color:#7E7E7E"/>
  </linearGradient>
  <linearGradient id="id4" gradientUnits="userSpaceOnUse" x1="2748.31" y1="3185.15" x2="2748.31" y2="28.9449">
   <stop offset="0" style="stop-opacity:1; stop-color:#AFAFAF"/>
   <stop offset="1" style="stop-opacity:1; stop-color:#9C9C9C"/>
  </linearGradient>
  <linearGradient id="id5" gradientUnits="userSpaceOnUse" xlink:href="#id0" x1="2947.76" y1="1941.75" x2="2947.76" y2="1113.06">
  </linearGradient>
  <linearGradient id="id6" gradientUnits="userSpaceOnUse" xlink:href="#id2" x1="2748.32" y1="3705.73" x2="2748.32" y2="5221.55">
  </linearGradient>
  <linearGradient id="id7" gradientUnits="userSpaceOnUse" xlink:href="#id2" x1="2748.31" y1="1952.47" x2="2748.31" y2="3852.07">
  </linearGradient>
  <linearGradient id="id8" gradientUnits="userSpaceOnUse" xlink:href="#id2" x1="504.453" y1="6245.07" x2="504.453" y2="7082.17">
  </linearGradient>
  <linearGradient id="id9" gradientUnits="userSpaceOnUse" x1="5610.77" y1="1695.24" x2="5610.77" y2="2209.71">
   <stop offset="0" style="stop-opacity:1; stop-color:#FF9911"/>
   <stop offset="1" style="stop-opacity:1; stop-color:#FF6600"/>
  </linearGradient>
  <linearGradient id="id10" gradientUnits="userSpaceOnUse" x1="2748.31" y1="1113.06" x2="2748.31" y2="1941.75">
   <stop offset="0" style="stop-opacity:1; stop-color:#336699"/>
   <stop offset="1" style="stop-opacity:1; stop-color:#00CCFF"/>
  </linearGradient>
  <linearGradient id="id11" gradientUnits="userSpaceOnUse" xlink:href="#id9" x1="3948.69" y1="4318" x2="3948.69" y2="5857.72">
  </linearGradient>
  <linearGradient id="id12" gradientUnits="userSpaceOnUse" xlink:href="#id9" x1="1547.93" y1="4318" x2="1547.93" y2="5857.72">
  </linearGradient>
 </defs>
 <g id="Layer_x0020_1">
  <metadata id="CorelCorpID_0Corel-Layer"/>
  <path class="fil0" d="M5889 2083c-72,0 -131,-58 -131,-131 0,-72 59,-130 131,-130l815 0c72,0 131,58 131,130l0 1978c0,72 -59,131 -131,131 -72,0 -131,-59 -131,-131l0 -1847 -684 0z"/>
  <path class="fil1" d="M2748 5222c499,0 904,-405 904,-904l-344 -612c-166,93 -357,146 -560,146 -203,0 -394,-53 -560,-146l-343 612c0,499 404,904 903,904z"/>
  <path class="fil2" d="M0 7082l5497 0 0 -1382c0,-760 -622,-1382 -1382,-1382l-463 0c0,499 -405,904 -904,904 -499,0 -903,-405 -903,-904l-463 0c-760,0 -1382,622 -1382,1382l0 1382z"/>
  <polygon class="fil3" points="1009,7082 1009,6245 0,6245 0,7082 "/>
  <polygon class="fil4" points="5497,7082 5497,6245 4488,6245 4488,7082 "/>
  <path class="fil5" d="M1167 7082l3163 0 0 -1327c0,-207 -170,-377 -378,-377l-2407 0c-208,0 -378,170 -378,377l0 1327z"/>
  <path class="fil6" d="M1373 4318l350 0 0 1365c0,96 -79,175 -175,175l0 0c-96,0 -175,-79 -175,-175l0 -1365z"/>
  <path class="fil7" d="M3774 4318l350 0 0 1365c0,96 -79,175 -175,175l0 0c-97,0 -175,-79 -175,-175l0 -1365z"/>
  <circle class="fil2" cx="1542" cy="5622" r="98"/>
  <circle class="fil2" cx="3955" cy="5622" r="98"/>
  <path class="fil8" d="M1597 1952l2303 0 0 749c0,633 -518,1151 -1152,1151l0 0c-633,0 -1151,-518 -1151,-1151l0 -749z"/>
  <path class="fil9" d="M1211 3112l0 -2656c0,-34 23,-63 56,-71l1464 -354c12,-3 23,-3 34,0l1465 354c33,8 56,37 56,71l0 2656c0,41 -33,73 -73,73l-2929 0c-40,0 -73,-32 -73,-73z"/>
  <path class="fil10" d="M1836 968l1824 0c41,0 73,32 73,72l0 974c0,41 -32,73 -73,73l-1824 0c-40,0 -72,-32 -72,-73l0 -974c0,-40 32,-72 72,-72z"/>
  <polygon class="fil11" points="7111,4804 6649,5153 6296,4804 6474,3930 6934,3930 "/>
  <path class="fil12" d="M4885 1952c1538,-1201 1538,1202 0,0z"/>
  <rect class="fil0" x="6296" y="4804" width="815" height="2278"/>
  <polygon class="fil13" points="3588,1113 1909,1113 1909,1942 3588,1942 "/>
  <polygon class="fil14" points="2223,1113 2392,1113 2670,1942 2501,1942 "/>
  <polygon class="fil15" points="2724,1113 2893,1113 3171,1942 3002,1942 "/>
  <path class="fil16" d="M5183 1952c1141,-891 1141,892 0,0z"/>
 </g>
</svg>
