<?xml version="1.0" encoding="UTF-8" standalone="no"?> <svg id="Accounting" xmlns="http://www.w3.org/2000/svg" viewBox="0 0 64 64"><polygon points="49 57 13 57 3 48 3 3 49 3 49 57" style="fill:#e6e7e8"/><rect x="33" y="26" width="28" height="35" rx="2" style="fill:#016ca9"/><rect x="37" y="30" width="20" height="5" style="fill:#bce8fe"/><rect x="37" y="39" width="4" height="4" style="fill:#bce8fe"/><rect x="37" y="46" width="4" height="4" style="fill:#bce8fe"/><rect x="37" y="53" width="4" height="4" style="fill:#bce8fe"/><rect x="45" y="39" width="4" height="4" style="fill:#bce8fe"/><rect x="45" y="46" width="4" height="4" style="fill:#bce8fe"/><rect x="45" y="53" width="4" height="4" style="fill:#bce8fe"/><rect x="53" y="39" width="4" height="4" style="fill:#bce8fe"/><rect x="53" y="46" width="4" height="11" style="fill:#ff6b81"/><path d="M55,14h2a4,4,0,0,1,4,4v0a4,4,0,0,1-4,4H55a0,0,0,0,1,0,0V14A0,0,0,0,1,55,14Z" style="fill:#bae1e5"/><polygon points="19 19 19 22 8 18 19 14 19 15 19 19" style="fill:#d77d41"/><rect x="19" y="18" width="36" height="4" style="fill:#415e6f"/><rect x="19" y="14" width="36" height="4" style="fill:#56788b"/><path d="M13,48H3l10,9Z" style="fill:#a7a9ac"/><path d="M59,25H50V23h7a5,5,0,0,0,0-10H50V3a1,1,0,0,0-1-1H3A1,1,0,0,0,2,3V48a1,1,0,0,0,.33.74l10,9A.971.971,0,0,0,13,58H32v1a3.009,3.009,0,0,0,3,3H59a3.009,3.009,0,0,0,3-3V28A3.009,3.009,0,0,0,59,25ZM56,15h1a3,3,0,0,1,0,6H56Zm-2,6H20V19H54Zm0-6v2H20V15ZM12,54.75,5.61,49H12ZM32,28V56H14V48a1,1,0,0,0-1-1H4V4H48v9H19a.974.974,0,0,0-.34.06l-11,4a1,1,0,0,0,0,1.88l11,4A.974.974,0,0,0,19,23H48v2H35A3.009,3.009,0,0,0,32,28ZM18,15.43v5.14L10.93,18ZM60,59a1,1,0,0,1-1,1H35a1,1,0,0,1-1-1V28a1,1,0,0,1,1-1H59a1,1,0,0,1,1,1Z"/><path d="M57,29H37a1,1,0,0,0-1,1v5a1,1,0,0,0,1,1H57a1,1,0,0,0,1-1V30A1,1,0,0,0,57,29Zm-1,5H38V31H56Z"/><path d="M41,38H37a1,1,0,0,0-1,1v4a1,1,0,0,0,1,1h4a1,1,0,0,0,1-1V39A1,1,0,0,0,41,38Zm-1,4H38V40h2Z"/><path d="M41,45H37a1,1,0,0,0-1,1v4a1,1,0,0,0,1,1h4a1,1,0,0,0,1-1V46A1,1,0,0,0,41,45Zm-1,4H38V47h2Z"/><path d="M41,52H37a1,1,0,0,0-1,1v4a1,1,0,0,0,1,1h4a1,1,0,0,0,1-1V53A1,1,0,0,0,41,52Zm-1,4H38V54h2Z"/><path d="M49,38H45a1,1,0,0,0-1,1v4a1,1,0,0,0,1,1h4a1,1,0,0,0,1-1V39A1,1,0,0,0,49,38Zm-1,4H46V40h2Z"/><path d="M49,45H45a1,1,0,0,0-1,1v4a1,1,0,0,0,1,1h4a1,1,0,0,0,1-1V46A1,1,0,0,0,49,45Zm-1,4H46V47h2Z"/><path d="M49,52H45a1,1,0,0,0-1,1v4a1,1,0,0,0,1,1h4a1,1,0,0,0,1-1V53A1,1,0,0,0,49,52Zm-1,4H46V54h2Z"/><path d="M57,38H53a1,1,0,0,0-1,1v4a1,1,0,0,0,1,1h4a1,1,0,0,0,1-1V39A1,1,0,0,0,57,38Zm-1,4H54V40h2Z"/><path d="M57,45H53a1,1,0,0,0-1,1V57a1,1,0,0,0,1,1h4a1,1,0,0,0,1-1V46A1,1,0,0,0,57,45ZM56,56H54V47h2Z"/></svg>