<?xml version="1.0" encoding="UTF-8" standalone="no"?> <svg xmlns="http://www.w3.org/2000/svg" xmlns:xlink="http://www.w3.org/1999/xlink" viewBox="0 0 48 48"><defs><style>.cls-1{fill:url(#linear-gradient);}.cls-2{fill:url(#linear-gradient-2);}.cls-3{fill:url(#linear-gradient-3);}.cls-4{fill:url(#linear-gradient-4);}.cls-5,.cls-6,.cls-7,.cls-8{opacity:0.35;}.cls-5{fill:url(#linear-gradient-5);}.cls-6{fill:url(#linear-gradient-6);}.cls-7{fill:url(#linear-gradient-7);}.cls-8{fill:url(#linear-gradient-8);}</style><linearGradient id="linear-gradient" x1="24" y1="2.857" x2="24" y2="40.626" gradientUnits="userSpaceOnUse"><stop offset="0" stop-color="#c2763e"/><stop offset="1" stop-color="#8a552e"/></linearGradient><linearGradient id="linear-gradient-2" x1="24" y1="8.321" x2="24" y2="35.764" gradientUnits="userSpaceOnUse"><stop offset="0" stop-color="#fff"/><stop offset="1" stop-color="#f2ebe6"/></linearGradient><linearGradient id="linear-gradient-3" x1="24" y1="41.107" x2="24" y2="44.964" gradientUnits="userSpaceOnUse"><stop offset="0" stop-color="#8a552e"/><stop offset="1" stop-color="#543426"/></linearGradient><linearGradient id="linear-gradient-4" y1="6.071" x2="24" y2="36.628" xlink:href="#linear-gradient-3"/><linearGradient id="linear-gradient-5" x1="15" y1="10.143" x2="15" y2="32.643" gradientUnits="userSpaceOnUse"><stop offset="0" stop-color="#edc2a8"/><stop offset="1" stop-color="#d69769"/></linearGradient><linearGradient id="linear-gradient-6" x1="33" y1="10.143" x2="33" y2="32.643" xlink:href="#linear-gradient-5"/><linearGradient id="linear-gradient-7" x1="17.5" y1="10.143" x2="17.5" y2="32.643" xlink:href="#linear-gradient-5"/><linearGradient id="linear-gradient-8" x1="30.5" y1="10.143" x2="30.5" y2="32.643" xlink:href="#linear-gradient-5"/></defs><title>Window</title><g id="Window"><path class="cls-1" d="M43,43H5V6A3,3,0,0,1,8,3H40a3,3,0,0,1,3,3Z"/><rect class="cls-2" x="9" y="7" width="30" height="30"/><path class="cls-3" d="M43,45H5a2,2,0,0,1-2-2H3a2,2,0,0,1,2-2H43a2,2,0,0,1,2,2h0A2,2,0,0,1,43,45Z"/><path class="cls-4" d="M39,5.929H9A1.07,1.07,0,0,0,7.929,7V37A1.07,1.07,0,0,0,9,38.071H39A1.07,1.07,0,0,0,40.071,37V7A1.07,1.07,0,0,0,39,5.929ZM37.929,20.962H25.038V8.071H37.929ZM22.962,8.071V20.962H10.071V8.071ZM10.071,23.038H22.962V35.929H10.071ZM25.038,35.929V23.038H37.929V35.929Z"/><path class="cls-5" d="M14,15a1,1,0,0,1-.707-1.707l2-2a1,1,0,0,1,1.414,1.414l-2,2A1,1,0,0,1,14,15Z"/><path class="cls-6" d="M32,33a1,1,0,0,1-.707-1.707l2-2a1,1,0,0,1,1.414,1.414l-2,2A1,1,0,0,1,32,33Z"/><path class="cls-7" d="M15,19a1,1,0,0,1-.707-1.707l5-5a1,1,0,0,1,1.414,1.414l-5,5A1,1,0,0,1,15,19Z"/><path class="cls-8" d="M28,32a1,1,0,0,1-.707-1.707l5-5a1,1,0,0,1,1.414,1.414l-5,5A1,1,0,0,1,28,32Z"/></g></svg>