<?xml version="1.0" encoding="UTF-8" standalone="no"?> <svg width="48" height="48" viewBox="0 0 48 48" fill="none" xmlns="http://www.w3.org/2000/svg">
<path d="M41 7H10C7.79086 7 6 8.79086 6 11V34C6 36.2091 7.79086 38 10 38H41C43.2091 38 45 36.2091 45 34V11C45 8.79086 43.2091 7 41 7Z" fill="#EAEFF0"/>
<path d="M43.68 36.9508L7.32 8.04883C6.90558 8.42084 6.57393 8.87576 6.34654 9.38412C6.11915 9.89248 6.00109 10.4429 6 10.9998V33.9998C6 35.0607 6.42143 36.0781 7.17157 36.8283C7.92172 37.5784 8.93913 37.9998 10 37.9998H41C41.993 37.9974 42.9492 37.6231 43.68 36.9508V36.9508Z" fill="#D9E1E2"/>
<path d="M26.293 39.2928L4.707 17.7069C4.56715 17.567 4.38898 17.4718 4.19503 17.4333C4.00108 17.3947 3.80005 17.4145 3.61735 17.4902C3.43465 17.5658 3.27848 17.694 3.1686 17.8584C3.05871 18.0228 3.00004 18.2161 3 18.4138V38.9998C3 39.5303 3.21071 40.039 3.58579 40.4141C3.96086 40.7891 4.46957 40.9998 5 40.9998H25.586C25.7838 40.9998 25.977 40.9411 26.1415 40.8313C26.3059 40.7214 26.434 40.5652 26.5097 40.3825C26.5853 40.1998 26.6052 39.9988 26.5666 39.8048C26.528 39.6109 26.4328 39.4327 26.293 39.2928ZM7 36.9998V27.9998L16 36.9998H7Z" fill="#0081BD"/>
<path d="M4.707 17.7069C4.56715 17.567 4.38898 17.4718 4.19503 17.4333C4.00108 17.3947 3.80005 17.4145 3.61735 17.4902C3.43465 17.5658 3.27848 17.694 3.1686 17.8584C3.05871 18.0228 3.00004 18.2161 3 18.4138V19.9998L24 40.9998H25.586C25.7838 40.9998 25.977 40.9411 26.1415 40.8313C26.3059 40.7214 26.434 40.5652 26.5097 40.3825C26.5853 40.1998 26.6052 39.9988 26.5666 39.8048C26.528 39.6109 26.4328 39.4327 26.293 39.2928L4.707 17.7069Z" fill="#009AE0"/>
<path d="M41 6H10C8.6744 6.00159 7.40356 6.52888 6.46622 7.46622C5.52888 8.40356 5.00159 9.6744 5 11V13.83C5 14.0952 5.10536 14.3496 5.29289 14.5371C5.48043 14.7246 5.73478 14.83 6 14.83C6.26522 14.83 6.51957 14.7246 6.70711 14.5371C6.89464 14.3496 7 14.0952 7 13.83V11C7 10.2044 7.31607 9.44129 7.87868 8.87868C8.44129 8.31607 9.20435 8 10 8H41C41.7956 8 42.5587 8.31607 43.1213 8.87868C43.6839 9.44129 44 10.2044 44 11V34C44 34.7956 43.6839 35.5587 43.1213 36.1213C42.5587 36.6839 41.7956 37 41 37H30.17C29.9048 37 29.6504 37.1054 29.4629 37.2929C29.2754 37.4804 29.17 37.7348 29.17 38C29.17 38.2652 29.2754 38.5196 29.4629 38.7071C29.6504 38.8946 29.9048 39 30.17 39H41C42.3256 38.9984 43.5964 38.4711 44.5338 37.5338C45.4711 36.5964 45.9984 35.3256 46 34V11C45.9984 9.6744 45.4711 8.40356 44.5338 7.46622C43.5964 6.52888 42.3256 6.00159 41 6V6Z" fill="black"/>
<path d="M13 10C12.7348 10 12.4804 10.1054 12.2929 10.2929C12.1054 10.4804 12 10.7348 12 11V13H10C9.73478 13 9.48043 13.1054 9.29289 13.2929C9.10536 13.4804 9 13.7348 9 14C9 14.2652 9.10536 14.5196 9.29289 14.7071C9.48043 14.8946 9.73478 15 10 15H12V20.34C12 20.6052 12.1054 20.8596 12.2929 21.0471C12.4804 21.2346 12.7348 21.34 13 21.34C13.2652 21.34 13.5196 21.2346 13.7071 21.0471C13.8946 20.8596 14 20.6052 14 20.34V15H37V30H23.66C23.3948 30 23.1404 30.1054 22.9529 30.2929C22.7654 30.4804 22.66 30.7348 22.66 31C22.66 31.2652 22.7654 31.5196 22.9529 31.7071C23.1404 31.8946 23.3948 32 23.66 32H37V34C37 34.2652 37.1054 34.5196 37.2929 34.7071C37.4804 34.8946 37.7348 35 38 35C38.2652 35 38.5196 34.8946 38.7071 34.7071C38.8946 34.5196 39 34.2652 39 34V32H41C41.2652 32 41.5196 31.8946 41.7071 31.7071C41.8946 31.5196 42 31.2652 42 31C42 30.7348 41.8946 30.4804 41.7071 30.2929C41.5196 30.1054 41.2652 30 41 30H39V15H41C41.2652 15 41.5196 14.8946 41.7071 14.7071C41.8946 14.5196 42 14.2652 42 14C42 13.7348 41.8946 13.4804 41.7071 13.2929C41.5196 13.1054 41.2652 13 41 13H39V11C39 10.7348 38.8946 10.4804 38.7071 10.2929C38.5196 10.1054 38.2652 10 38 10C37.7348 10 37.4804 10.1054 37.2929 10.2929C37.1054 10.4804 37 10.7348 37 11V13H14V11C14 10.7348 13.8946 10.4804 13.7071 10.2929C13.5196 10.1054 13.2652 10 13 10Z" fill="black"/>
<path d="M5.414 17.0001C5.1343 16.7205 4.77797 16.5301 4.39006 16.453C4.00216 16.3758 3.60009 16.4154 3.23469 16.5668C2.86929 16.7181 2.55697 16.9744 2.3372 17.3032C2.11743 17.632 2.00008 18.0186 2 18.4141V39.0001C2 39.7958 2.31607 40.5588 2.87868 41.1214C3.44129 41.6841 4.20435 42.0001 5 42.0001H25.586C25.9815 42 26.3681 41.8827 26.6969 41.6629C27.0257 41.4432 27.282 41.1308 27.4334 40.7654C27.5847 40.4 27.6243 39.998 27.5472 39.6101C27.47 39.2222 27.2796 38.8658 27 38.5861L5.414 17.0001ZM25.586 40.0001H5C4.73478 40.0001 4.48043 39.8948 4.29289 39.7072C4.10536 39.5197 4 39.2653 4 39.0001V18.4141L7.016 21.4281L6.309 22.1351C6.21349 22.2274 6.13731 22.3377 6.0849 22.4597C6.03249 22.5817 6.0049 22.7129 6.00375 22.8457C6.0026 22.9785 6.0279 23.1102 6.07818 23.2331C6.12846 23.356 6.20271 23.4676 6.29661 23.5615C6.3905 23.6554 6.50215 23.7297 6.62505 23.7799C6.74794 23.8302 6.87962 23.8555 7.0124 23.8544C7.14518 23.8532 7.2764 23.8256 7.3984 23.7732C7.52041 23.7208 7.63075 23.6446 7.723 23.5491L8.43 22.8421L9.845 24.2561L9.137 24.9641C9.04149 25.0564 8.96531 25.1667 8.9129 25.2887C8.86049 25.4107 8.8329 25.5419 8.83175 25.6747C8.8306 25.8075 8.8559 25.9392 8.90618 26.0621C8.95646 26.185 9.03071 26.2966 9.12461 26.3905C9.2185 26.4844 9.33015 26.5587 9.45305 26.6089C9.57594 26.6592 9.70762 26.6845 9.8404 26.6834C9.97318 26.6822 10.1044 26.6546 10.2264 26.6022C10.3484 26.5498 10.4588 26.4736 10.551 26.3781L11.259 25.6701L12.674 27.0841L11.965 27.7921C11.8695 27.8844 11.7933 27.9947 11.7409 28.1167C11.6885 28.2387 11.6609 28.3699 11.6597 28.5027C11.6586 28.6355 11.6839 28.7672 11.7342 28.8901C11.7845 29.013 11.8587 29.1246 11.9526 29.2185C12.0465 29.3124 12.1581 29.3867 12.281 29.4369C12.4039 29.4872 12.5356 29.5125 12.6684 29.5114C12.8012 29.5102 12.9324 29.4826 13.0544 29.4302C13.1764 29.3778 13.2868 29.3016 13.379 29.2061L14.088 28.4971L15.5 29.9111L14.791 30.6201C14.6955 30.7124 14.6193 30.8227 14.5669 30.9447C14.5145 31.0667 14.4869 31.1979 14.4857 31.3307C14.4846 31.4635 14.5099 31.5952 14.5602 31.7181C14.6105 31.841 14.6847 31.9526 14.7786 32.0465C14.8725 32.1404 14.9841 32.2147 15.107 32.2649C15.2299 32.3152 15.3616 32.3405 15.4944 32.3394C15.6272 32.3382 15.7584 32.3106 15.8804 32.2582C16.0024 32.2058 16.1128 32.1296 16.205 32.0341L16.914 31.3251L18.329 32.7391L17.619 33.4491C17.4315 33.6368 17.3262 33.8912 17.3263 34.1565C17.3264 34.4217 17.4319 34.6761 17.6195 34.8636C17.8071 35.0511 18.0616 35.1564 18.3269 35.1563C18.5921 35.1562 18.8465 35.0508 19.034 34.8631L19.744 34.1531L21.158 35.5671L20.448 36.2771C20.3525 36.3694 20.2763 36.4797 20.2239 36.6017C20.1715 36.7237 20.1439 36.8549 20.1427 36.9877C20.1416 37.1205 20.1669 37.2522 20.2172 37.3751C20.2675 37.498 20.3417 37.6096 20.4356 37.7035C20.5295 37.7974 20.6411 37.8717 20.764 37.9219C20.8869 37.9722 21.0186 37.9975 21.1514 37.9964C21.2842 37.9952 21.4154 37.9676 21.5374 37.9152C21.6594 37.8628 21.7698 37.7866 21.862 37.6911L22.573 36.9811L25.6 40.0001H25.586Z" fill="black"/>
<path d="M7.707 27.2928C7.56715 27.153 7.38898 27.0578 7.19503 27.0192C7.00108 26.9806 6.80005 27.0004 6.61735 27.0761C6.43465 27.1518 6.27848 27.2799 6.1686 27.4443C6.05871 27.6087 6.00004 27.802 6 27.9998V36.9998C6 37.265 6.10536 37.5194 6.29289 37.7069C6.48043 37.8944 6.73478 37.9998 7 37.9998H16C16.1978 37.9997 16.391 37.9411 16.5555 37.8312C16.7199 37.7213 16.848 37.5651 16.9237 37.3824C16.9993 37.1997 17.0192 36.9987 16.9806 36.8048C16.942 36.6108 16.8468 36.4326 16.707 36.2928L7.707 27.2928ZM8 35.9998V30.4138L13.586 35.9998H8Z" fill="black"/>
</svg>
