<svg width="19" height="20" viewBox="0 0 19 20" fill="none" xmlns="http://www.w3.org/2000/svg">
<path fill-rule="evenodd" clip-rule="evenodd" d="M8.75 0C6.12665 0 4 2.12665 4 4.75C4 7.37335 6.12665 9.5 8.75 9.5C11.3734 9.5 13.5 7.37335 13.5 4.75C13.5 2.12665 11.3734 0 8.75 0ZM5.5 4.75C5.5 2.95507 6.95507 1.5 8.75 1.5C10.5449 1.5 12 2.95507 12 4.75C12 6.54493 10.5449 8 8.75 8C6.95507 8 5.5 6.54493 5.5 4.75Z" fill="black"/>
<path d="M6.35 11C2.84299 11 0 13.843 0 17.35C0 18.5374 0.962587 19.5 2.15 19.5H9.75C10.1642 19.5 10.5 19.1642 10.5 18.75C10.5 18.3358 10.1642 18 9.75 18H2.15C1.79101 18 1.5 17.709 1.5 17.35C1.5 14.6714 3.67142 12.5 6.35 12.5H11.15C11.5646 12.5 11.9659 12.5518 12.3484 12.649C12.7499 12.751 13.158 12.5082 13.26 12.1068C13.362 11.7053 13.1192 11.2972 12.7178 11.1952C12.2155 11.0676 11.6901 11 11.15 11H6.35Z" fill="black"/>
<path d="M15.25 13.5C15.6642 13.5 16 13.8358 16 14.25V16H17.75C18.1642 16 18.5 16.3358 18.5 16.75C18.5 17.1642 18.1642 17.5 17.75 17.5H16V19.25C16 19.6642 15.6642 20 15.25 20C14.8358 20 14.5 19.6642 14.5 19.25V17.5H12.75C12.3358 17.5 12 17.1642 12 16.75C12 16.3358 12.3358 16 12.75 16H14.5V14.25C14.5 13.8358 14.8358 13.5 15.25 13.5Z" fill="black"/>
</svg>
