<svg width="47" height="63" viewBox="0 0 47 63" fill="none" xmlns="http://www.w3.org/2000/svg">
<rect width="47" height="47" rx="8.83459" fill="#283891"/>
<path d="M27.4301 19.5667H25.5228L25.332 32.6885H27.6208L27.4301 19.5667Z" fill="#283891"/>
<path d="M32.2503 19.5667H30.343L30.1523 32.6885H32.4411L32.2503 19.5667Z" fill="#283891"/>
<path d="M30.1523 32.6884H32.4411L32.3364 25.4836H30.2571L30.1523 32.6884Z" fill="#8E8E99"/>
<path d="M25.332 32.6884H27.6208L27.5161 25.4836H25.4367L25.332 32.6884Z" fill="#8E8E99"/>
<path d="M24.0863 33.8884H9.89062V39.9078H24.0863V33.8884Z" fill="#9191AA"/>
<path d="M33.6996 29.2532V31.5506L28.8928 29.2532V31.5506L24.0859 29.2532V39.9078H28.8928H33.6996H38.5064V31.5506L33.6996 29.2532Z" fill="#E4EAF2"/>
<path d="M17.2709 24.6399H11.9688V33.8885H17.2709V24.6399Z" fill="#9191AA"/>
<path d="M21.8498 33.8884H19.8629V24.6398C19.8623 24.1245 19.6573 23.6304 19.2929 23.266C18.9285 22.9016 18.4344 22.6967 17.9191 22.6961H17.7665C17.2512 22.6967 16.7571 22.9017 16.3928 23.2661C16.0284 23.6304 15.8234 24.1245 15.8228 24.6398H13.8359C13.8371 23.5977 14.2516 22.5986 14.9885 21.8618C15.7253 21.1249 16.7244 20.7104 17.7665 20.7092H17.9191C18.9612 20.7104 19.9603 21.1249 20.6972 21.8617C21.4341 22.5986 21.8486 23.5977 21.8498 24.6398V33.8884Z" fill="#3D4151"/>
<path d="M28.0927 34.1934H26.4766V37.2743H28.0927V34.1934Z" fill="#3D4151"/>
<path d="M32.1045 34.1934H30.4883V37.2743H32.1045V34.1934Z" fill="#3D4151"/>
<path d="M36.1162 34.1934H34.5V37.2743H36.1162V34.1934Z" fill="#3D4151"/>
<path d="M23.0507 13.4707C22.6353 13.3681 22.211 13.306 21.7836 13.2853C20.9161 13.229 20.1011 12.8496 19.4994 12.2221C19.1757 11.9862 18.7718 11.8876 18.3758 11.948C18.5664 11.0863 18.5061 10.2927 18.1111 9.59029C17.8244 9.00296 17.408 8.48843 16.8934 8.08554C16.3787 7.68265 15.7793 7.40194 15.1403 7.26458C14.5014 7.12722 13.8395 7.13682 13.2048 7.29263C12.5701 7.44845 11.979 7.74642 11.4763 8.16405C10.658 8.37042 9.90119 8.77026 9.26955 9.32994C8.6379 9.88962 8.14988 10.5928 7.8465 11.3803C7.54313 12.1678 7.43327 13.0167 7.52618 13.8555C7.61909 14.6943 7.91204 15.4985 8.3804 16.2005C8.3804 16.2005 11.3058 19.1286 16.2092 16.5296C18.703 17.3222 20.9639 15.6049 20.9639 15.6049C20.9639 15.6049 22.2316 17.1803 24.573 16.0814L25.5041 14.904C25.0392 14.3177 24.2782 13.7858 23.0507 13.4707Z" fill="#E4EAF2"/>
<path d="M20.9627 9.98781C21.6691 9.98781 22.2417 9.41515 22.2417 8.70875C22.2417 8.00234 21.6691 7.42969 20.9627 7.42969C20.2562 7.42969 19.6836 8.00234 19.6836 8.70875C19.6836 9.41515 20.2562 9.98781 20.9627 9.98781Z" fill="#ADBCC9"/>
<path d="M33.3958 9.09499C33.3474 8.51404 33.1447 7.95653 32.8089 7.48005C32.473 7.00357 32.016 6.62538 31.4851 6.38455C30.9542 6.14372 30.3686 6.04897 29.7889 6.11009C29.2091 6.17121 28.6562 6.38598 28.1872 6.73223C28.056 6.82789 27.9072 6.89668 27.7493 6.93464C27.5914 6.9726 27.4276 6.97898 27.2673 6.95342C26.8784 6.89526 26.4815 6.92051 26.1031 7.02749C25.7247 7.13448 25.3734 7.32074 25.0725 7.57393C24.7716 7.82711 24.528 8.14142 24.3579 8.49597C24.1878 8.85052 24.0951 9.2372 24.0859 9.63033C24.0859 9.63033 24.7586 12.4477 28.1168 11.7877C28.1454 12.5449 28.3774 13.6571 29.385 14.2383C32.498 16.0334 33.1371 13.4615 33.1371 13.4615C33.2095 12.7603 33.1823 12.0525 33.0564 11.359C33.0151 11.126 33.0433 10.8859 33.1374 10.6688C33.3521 10.1736 33.4409 9.63289 33.3958 9.09499Z" fill="#E4EAF2"/>
<path d="M21.7198 16.4689C22.3455 16.7589 23.3245 16.942 24.6023 16.3418C25.0777 16.4697 25.4917 16.7632 25.7698 17.1694C25.7966 17.2104 25.8359 17.2418 25.8818 17.2589C25.9277 17.276 25.9779 17.278 26.025 17.2646C26.0721 17.2511 26.1137 17.223 26.1437 17.1843C26.1737 17.1455 26.1905 17.0982 26.1918 17.0492C26.2203 16.2757 25.9768 15.5166 25.5035 14.9041C23.5855 15.8191 22.1355 15.361 21.3624 14.9345C21.195 14.843 21.0045 14.8028 20.8144 14.8189C20.6244 14.835 20.4433 14.9067 20.2938 15.025C19.9535 15.2904 19.3593 15.5968 18.3313 15.7944C16.7642 16.0965 15.4045 15.3286 14.7457 14.9349C14.7113 14.9146 14.6717 14.9052 14.632 14.9077C14.5922 14.9102 14.5541 14.9246 14.5227 14.9491C14.4912 14.9735 14.4678 15.0068 14.4555 15.0447C14.4432 15.0826 14.4425 15.1233 14.4536 15.1616C14.4981 15.3271 14.5594 15.4876 14.6365 15.6406C14.7007 15.7691 14.7165 15.9164 14.6809 16.0556C14.6454 16.1948 14.5608 16.3165 14.4428 16.3984C13.6146 16.9785 11.6134 17.8638 8.38086 16.2005C8.77664 16.7995 9.2906 17.3113 9.89121 17.7046C10.4918 18.0978 11.1664 18.3643 11.8737 18.4876C12.5809 18.6109 13.3059 18.5885 14.0042 18.4217C14.7024 18.2548 15.3593 17.9471 15.9344 17.5175C16.1186 17.383 16.3283 17.2876 16.5507 17.2369C16.773 17.1863 17.0034 17.1815 17.2276 17.2229C17.4308 17.2574 17.6365 17.2744 17.8426 17.2739C18.6539 17.2749 19.4477 17.0382 20.1259 16.593C20.3591 16.4386 20.6279 16.3462 20.9068 16.3245C21.1856 16.3028 21.4655 16.3525 21.7198 16.4689Z" fill="#ADBCC9"/>
<path d="M30.4525 14.0693C28.5744 13.1038 28.7845 11.5227 29.0472 10.717C29.0587 10.6811 29.0579 10.6424 29.0451 10.607C29.0324 10.5715 29.0083 10.5413 28.9766 10.5209C28.9449 10.5005 28.9074 10.4912 28.8699 10.4942C28.8323 10.4973 28.7968 10.5127 28.7689 10.538C28.6358 10.6672 28.4858 10.7776 28.3228 10.8662C25.8358 12.1733 24.6039 10.6597 24.0875 9.63086H24.0867C24.0775 10.0336 24.1562 10.4334 24.3174 10.8026C24.4785 11.1718 24.7182 11.5014 25.0198 11.7685C25.3213 12.0356 25.6775 12.2337 26.0634 12.3492C26.4493 12.4646 26.8558 12.4944 27.2544 12.4367C27.4167 12.4167 27.5808 12.4554 27.7169 12.5459C27.8531 12.6365 27.9523 12.7728 27.9966 12.9302C28.1975 13.5779 28.6166 14.1361 29.1825 14.5099C30.335 15.3131 30.8143 16.1767 31.0135 16.7652C31.0371 16.8345 31.0788 16.8962 31.1343 16.9439C31.1898 16.9916 31.2571 17.0236 31.3291 17.0366C31.4012 17.0495 31.4754 17.043 31.544 17.0176C31.6127 16.9922 31.6733 16.949 31.7196 16.8923C32.5142 15.91 33.0068 14.7183 33.1378 13.4617C32.657 14.1808 31.8243 14.7746 30.4525 14.0693Z" fill="#ADBCC9"/>
<path d="M33.5035 28.9434C33.4512 28.9764 33.4081 29.0221 33.3782 29.0763C33.3483 29.1304 33.3327 29.1913 33.3327 29.2531V30.9699L32.7768 30.7042L32.6148 19.5612C32.6134 19.465 32.5743 19.3733 32.5058 19.3058C32.4373 19.2383 32.345 19.2004 32.2489 19.2004H30.3416C30.2454 19.2004 30.1531 19.2383 30.0847 19.3058C30.0162 19.3733 29.977 19.465 29.9757 19.5612L29.8341 29.2978L29.0497 28.9229C28.9939 28.8962 28.9323 28.884 28.8705 28.8876C28.8088 28.8912 28.7489 28.9104 28.6966 28.9434C28.6443 28.9764 28.6012 29.0221 28.5713 29.0762C28.5414 29.1304 28.5258 29.1913 28.5258 29.2531V30.9699L27.9572 30.6981L27.7959 19.5612C27.7945 19.465 27.7554 19.3733 27.6869 19.3058C27.6184 19.2383 27.5261 19.2004 27.4299 19.2004H25.5222C25.426 19.2004 25.3337 19.2383 25.2652 19.3058C25.1967 19.3733 25.1576 19.465 25.1562 19.5612L25.0148 29.2918L24.2429 28.9229C24.1871 28.8962 24.1255 28.8841 24.0637 28.8877C24.002 28.8913 23.9422 28.9105 23.8899 28.9435C23.8375 28.9764 23.7944 29.0221 23.7646 29.0763C23.7347 29.1304 23.7191 29.1913 23.7191 29.2531V33.5223H17.6354V24.6397C17.6354 24.5426 17.5968 24.4495 17.5282 24.3809C17.4595 24.3123 17.3664 24.2737 17.2694 24.2737H11.9672C11.8701 24.2737 11.777 24.3123 11.7084 24.3809C11.6397 24.4495 11.6012 24.5426 11.6012 24.6397V33.5223H9.88947C9.79239 33.5223 9.69929 33.5609 9.63065 33.6295C9.562 33.6982 9.52344 33.7913 9.52344 33.8883V39.9077C9.52344 40.0048 9.562 40.0979 9.63065 40.1666C9.69929 40.2352 9.79239 40.2738 9.88947 40.2738H23.9699C24.0079 40.266 24.047 40.266 24.085 40.2738H38.5055C38.6025 40.2738 38.6956 40.2352 38.7643 40.1666C38.8329 40.0979 38.8715 40.0048 38.8715 39.9077V31.5505C38.8715 31.4814 38.8519 31.4137 38.8151 31.3553C38.7783 31.2969 38.7256 31.2501 38.6633 31.2203L33.8563 28.9227C33.8005 28.8961 33.7389 28.884 33.6772 28.8876C33.6155 28.8913 33.5557 28.9104 33.5035 28.9434ZM31.8881 19.9328L31.9635 25.1179H30.627L30.7023 19.9328H31.8881ZM30.6164 25.85H31.9742L32.0396 30.3522L30.5611 29.6455L30.6164 25.85ZM27.0687 19.9325L27.1441 25.1176H25.8075L25.8829 19.9325H27.0687ZM25.7968 25.8496H27.1546L27.2201 30.3457L25.7418 29.6393L25.7968 25.8496ZM12.3332 25.0058H16.9033V33.5223H12.3332V25.0058ZM10.2554 34.2544H23.7194V39.5417H10.2554V34.2544ZM33.8938 31.8602C33.9462 31.8272 33.9893 31.7815 34.0191 31.7273C34.049 31.6731 34.0646 31.6123 34.0646 31.5505V29.8337L38.1394 31.7813V39.5417H24.451V29.8337L28.734 31.8807C28.7898 31.9074 28.8514 31.9195 28.9132 31.9159C28.9749 31.9124 29.0348 31.8932 29.0871 31.8602C29.1394 31.8272 29.1825 31.7815 29.2124 31.7273C29.2423 31.6732 29.2579 31.6123 29.2579 31.5505V29.8337L33.5408 31.8807C33.5966 31.9074 33.6583 31.9195 33.72 31.9159C33.7817 31.9123 33.8415 31.8931 33.8938 31.8602Z" fill="#3D4151"/>
<path d="M12.485 18.9243C12.5794 18.929 12.6737 18.9314 12.7678 18.9314C14.1871 18.9311 15.5546 18.3984 16.6 17.4384C16.9997 17.5744 17.4194 17.6424 17.8416 17.6396C18.9932 17.6399 20.1021 17.203 20.9439 16.4171C21.4945 16.8388 22.7863 17.5381 24.6296 16.731C24.901 16.8283 25.1438 16.992 25.3358 17.2071C25.5277 17.4222 25.6628 17.682 25.7286 17.9628C25.7487 18.0402 25.7936 18.1089 25.8565 18.1585C25.9193 18.208 25.9967 18.2355 26.0767 18.2369C26.1567 18.2383 26.2349 18.2134 26.2994 18.1661C26.3639 18.1188 26.4112 18.0516 26.4339 17.9749C26.4517 17.9147 26.8622 16.4836 26.0897 15.1202C25.5403 14.152 24.5482 13.4775 23.1407 13.1158C22.7024 13.0072 22.2546 12.9417 21.8036 12.92C21.0485 12.8709 20.3374 12.5476 19.804 12.0109C19.7698 11.9771 19.7293 11.9504 19.6848 11.9322C19.6403 11.9141 19.5927 11.9049 19.5446 11.9052C19.4965 11.9055 19.449 11.9152 19.4047 11.9338C19.3604 11.9525 19.3202 11.9797 19.2864 12.0139C19.2527 12.048 19.2259 12.0885 19.2078 12.133C19.1896 12.1775 19.1805 12.2252 19.1807 12.2732C19.181 12.3213 19.1907 12.3688 19.2094 12.4131C19.228 12.4574 19.2552 12.4976 19.2894 12.5314C19.9495 13.1932 20.8285 13.5912 21.7613 13.6506C22.1651 13.6697 22.566 13.7282 22.9584 13.825C24.1621 14.1344 24.9996 14.6893 25.4478 15.4742C25.649 15.8331 25.7717 16.2306 25.8078 16.6405C25.4978 16.3215 25.1058 16.0944 24.6749 15.984C24.5973 15.9678 24.5165 15.9773 24.4447 16.0109C22.3961 16.9726 21.243 15.7232 21.1963 15.6712C21.1615 15.631 21.1181 15.5989 21.0694 15.5774C21.0206 15.5559 20.9677 15.5455 20.9145 15.5468C20.8612 15.5478 20.8088 15.5603 20.7609 15.5836C20.7129 15.6068 20.6706 15.6402 20.6369 15.6814C20.2825 16.0701 19.8505 16.3802 19.3689 16.5915C18.8872 16.8028 18.3665 16.9106 17.8405 16.9081C17.4347 16.9125 17.0323 16.8341 16.6579 16.6774C16.5906 16.6485 16.5161 16.6404 16.4442 16.6543C16.3722 16.6682 16.3061 16.7034 16.2544 16.7553C15.7198 17.2912 15.0686 17.6964 14.3517 17.9393C13.6347 18.1822 12.8714 18.2562 12.1211 18.1557C11.3709 18.0551 10.654 17.7826 10.0263 17.3595C9.39865 16.9363 8.87719 16.3739 8.50258 15.7162C8.12797 15.0584 7.91033 14.323 7.86663 13.5673C7.82292 12.8116 7.95433 12.056 8.25062 11.3594C8.5469 10.6628 9.00004 10.0441 9.57474 9.55138C10.1494 9.0587 10.8301 8.70539 11.5638 8.519C11.6168 8.50557 11.6661 8.48047 11.7081 8.44552C12.2072 8.03096 12.8008 7.74575 13.4363 7.61511C14.0719 7.48446 14.7298 7.51241 15.352 7.69647C15.9741 7.88054 16.5414 8.21505 17.0035 8.67044C17.4657 9.12583 17.8085 9.68807 18.0018 10.3075C18.0024 10.3096 18.0037 10.3114 18.0043 10.3135C18.0049 10.3156 18.0053 10.318 18.006 10.3204C18.0103 10.3324 18.425 11.5449 17.6841 12.5001C17.626 12.5769 17.6005 12.6735 17.6132 12.769C17.6258 12.8645 17.6756 12.9511 17.7517 13.0102C17.8278 13.0692 17.9241 13.0958 18.0197 13.0843C18.1154 13.0728 18.2026 13.0241 18.2626 12.9487C19.2453 11.6817 18.7193 10.1421 18.6967 10.0771C18.4681 9.35129 18.0661 8.69218 17.5254 8.15682C16.9846 7.62146 16.3216 7.22599 15.5936 7.00465C14.8656 6.78332 14.0946 6.7428 13.3474 6.8866C12.6002 7.0304 11.8993 7.35419 11.3055 7.82992C10.0071 8.1798 8.87626 8.98137 8.11612 10.0905C7.35598 11.1997 7.01646 12.5436 7.15862 13.8807C7.30077 15.2178 7.91528 16.4603 8.89163 17.3848C9.86798 18.3093 11.1421 18.8552 12.485 18.9243Z" fill="#3D4151"/>
<path d="M20.9633 10.3539C21.2887 10.3539 21.6068 10.2575 21.8774 10.0767C22.1479 9.89595 22.3588 9.63902 22.4833 9.33841C22.6078 9.03781 22.6404 8.70703 22.5769 8.3879C22.5135 8.06877 22.3568 7.77564 22.1267 7.54556C21.8966 7.31548 21.6035 7.1588 21.2844 7.09533C20.9652 7.03185 20.6345 7.06444 20.3339 7.18897C20.0332 7.31349 19.7763 7.52437 19.5956 7.79492C19.4148 8.06547 19.3183 8.38354 19.3184 8.70892C19.3188 9.14505 19.4923 9.56319 19.8007 9.87158C20.1091 10.18 20.5272 10.3534 20.9633 10.3539ZM20.9633 7.7959C21.1439 7.7959 21.3204 7.84945 21.4706 7.94977C21.6207 8.05009 21.7378 8.19269 21.8069 8.35952C21.876 8.52636 21.8941 8.70993 21.8588 8.88704C21.8236 9.06415 21.7366 9.22684 21.609 9.35453C21.4813 9.48222 21.3186 9.56917 21.1415 9.6044C20.9644 9.63963 20.7808 9.62155 20.6139 9.55245C20.4471 9.48334 20.3045 9.36632 20.2042 9.21617C20.1039 9.06602 20.0503 8.8895 20.0503 8.70892C20.0506 8.46685 20.1469 8.23477 20.318 8.0636C20.4892 7.89242 20.7213 7.79615 20.9633 7.7959Z" fill="#3D4151"/>
<path d="M26.4344 12.8027C26.5301 12.8145 26.6265 12.7881 26.7029 12.7293C26.7792 12.6704 26.8293 12.5837 26.8421 12.4882C26.8549 12.3926 26.8296 12.2959 26.7715 12.2189C26.7134 12.142 26.6273 12.091 26.5319 12.0772C26.1983 12.0317 25.8779 11.9167 25.5916 11.7395C25.3052 11.5624 25.0593 11.3271 24.8696 11.0489C24.6799 10.7708 24.5508 10.4558 24.4905 10.1246C24.4302 9.79329 24.4402 9.45307 24.5198 9.12589C24.5993 8.79872 24.7467 8.4919 24.9523 8.22528C25.1579 7.95866 25.4172 7.73818 25.7135 7.57812C26.0097 7.41806 26.3362 7.32198 26.6719 7.2961C27.0076 7.27022 27.345 7.31512 27.6623 7.42788C27.7283 7.45144 27.7996 7.45552 27.8679 7.43966C27.9361 7.4238 27.9983 7.38865 28.0472 7.33841C28.5403 6.83162 29.2011 6.52179 29.906 6.46687C30.611 6.41195 31.3118 6.6157 31.8774 7.04001C32.443 7.46433 32.8347 8.08015 32.9792 8.77231C33.1237 9.46448 33.0112 10.1856 32.6626 10.8008C32.6178 10.8796 32.6038 10.9724 32.6235 11.0609C33.2749 13.9924 32.0884 15.8991 31.3847 16.7276C31.181 16.074 30.6699 15.1009 29.3903 14.209C28.6865 13.7186 28.2997 13.0572 28.2401 12.2436C28.2401 12.2424 28.2396 12.2412 28.2395 12.24C28.2393 12.2389 28.2395 12.2374 28.2395 12.2361C28.2384 12.2242 28.1431 11.0502 29.3924 10.5502C29.4379 10.533 29.4795 10.5069 29.5147 10.4734C29.55 10.4399 29.5782 10.3998 29.5978 10.3553C29.6173 10.3107 29.6278 10.2628 29.6287 10.2142C29.6295 10.1655 29.6206 10.1173 29.6026 10.0721C29.5845 10.027 29.5577 9.98585 29.5235 9.9512C29.4894 9.91655 29.4488 9.88904 29.4039 9.87028C29.359 9.85152 29.3109 9.84189 29.2623 9.84194C29.2137 9.84199 29.1655 9.85173 29.1207 9.87059C27.7252 10.4286 27.4569 11.6964 27.5098 12.2966V12.2987V12.3042V12.3058C27.5874 13.3315 28.0922 14.197 28.971 14.8093C30.7693 16.0626 30.7869 17.4216 30.7868 17.4758C30.7854 17.5456 30.804 17.6143 30.8405 17.6739C30.8769 17.7334 30.9296 17.7813 30.9924 17.8119C31.0551 17.8425 31.1253 17.8545 31.1947 17.8465C31.264 17.8384 31.3296 17.8107 31.3837 17.7667C31.5027 17.6698 34.2617 15.3663 33.3663 11.0366C33.7575 10.2785 33.8702 9.40708 33.6846 8.57442C33.4989 7.74176 33.0268 7.00073 32.3505 6.48065C31.6743 5.96057 30.8369 5.69447 29.9845 5.72878C29.1321 5.76309 28.3188 6.09564 27.6865 6.66839C27.2723 6.55467 26.8392 6.52721 26.4139 6.58773C25.9887 6.64825 25.5804 6.79545 25.2144 7.02021C24.8483 7.24497 24.5323 7.5425 24.286 7.89437C24.0396 8.24623 23.8682 8.64494 23.7822 9.06579C23.6963 9.48663 23.6976 9.92064 23.7863 10.3409C23.8749 10.7612 24.0489 11.1588 24.2974 11.5091C24.546 11.8594 24.8639 12.155 25.2313 12.3774C25.5988 12.5998 26.008 12.7444 26.4336 12.8023L26.4344 12.8027Z" fill="#3D4151"/>
<line x1="24" y1="47" x2="24" y2="63" stroke="#283891" stroke-width="2"/>
</svg>
