<svg width="47" height="63" viewBox="0 0 47 63" fill="none" xmlns="http://www.w3.org/2000/svg">
<rect width="47" height="47" rx="8.83459" fill="#283891"/>
<path d="M31.8528 12.3514C31.7163 12.3333 31.5798 12.3179 31.4438 12.3021C31.2494 11.2959 30.852 10.3399 30.2758 9.49242C30.3618 9.38452 30.4473 9.27588 30.5321 9.16648C30.7637 8.86913 30.9919 8.56838 31.2099 8.25787L29.4822 6.53009C29.1717 6.74812 28.8709 6.97631 28.5735 7.2079C28.4642 7.29248 28.3555 7.37794 28.2476 7.46428C27.3992 6.88743 26.442 6.48973 25.4346 6.29552C25.4191 6.15943 25.4029 6.02335 25.3857 5.88726C25.3391 5.51359 25.2879 5.13954 25.2225 4.76587H22.779C22.714 5.13954 22.6628 5.51359 22.6158 5.88726C22.5985 6.02335 22.5824 6.15943 22.5673 6.29552C21.5597 6.48956 20.6024 6.88726 19.7539 7.46427C19.646 7.3778 19.5373 7.29234 19.4279 7.20788C19.1306 6.97631 18.8302 6.74812 18.5197 6.53007L16.7916 8.25784C17.01 8.56836 17.2382 8.8691 17.4694 9.16646C17.5543 9.27548 17.6398 9.384 17.7258 9.49201C17.1489 10.3406 16.7512 11.2979 16.557 12.3055C16.4209 12.3209 16.285 12.3372 16.1491 12.3543C15.7751 12.4009 15.4014 12.4521 15.0273 12.5175V14.961C15.4014 15.0261 15.7751 15.0772 16.1491 15.1242C16.2852 15.1415 16.4212 15.1576 16.557 15.1727C16.7509 16.1792 17.1479 17.1356 17.7239 17.9835C17.6378 18.0917 17.5517 18.2 17.4675 18.3098C17.2367 18.6079 17.0092 18.909 16.7916 19.2203L18.5197 20.9481C18.831 20.7308 19.1321 20.5033 19.4302 20.2725C19.54 20.1883 19.6483 20.1022 19.7565 20.0161C20.6035 20.5914 21.5587 20.9881 22.564 21.1823C22.5794 21.3183 22.5952 21.4548 22.6132 21.5909C22.6606 21.9649 22.7125 22.3386 22.779 22.7127H25.2225C25.2891 22.3386 25.3413 21.9649 25.3887 21.5909C25.4067 21.4548 25.4222 21.3183 25.4379 21.1823C26.4431 20.9881 27.3981 20.5913 28.245 20.0161C28.3533 20.1022 28.4619 20.1883 28.5717 20.2725C28.8694 20.5033 29.1705 20.7308 29.4822 20.9481L31.2099 19.2203C30.9927 18.909 30.7652 18.6079 30.534 18.3098C30.4498 18.1996 30.3637 18.0914 30.278 17.9831C30.8531 17.1362 31.2497 16.1812 31.4438 15.1761C31.5798 15.1603 31.7163 15.1449 31.8528 15.1268C32.2264 15.0795 32.6005 15.0276 32.9742 14.961V12.5175C32.6005 12.451 32.2264 12.3987 31.8528 12.3514ZM26.4108 18.4857C25.7875 18.8023 25.1079 18.9929 24.4109 19.0468C23.7139 19.1006 23.0131 19.0167 22.3485 18.7997C21.684 18.5827 21.0687 18.2369 20.5378 17.7821C20.0068 17.3273 19.5707 16.7724 19.2543 16.149C19.1288 15.9033 19.023 15.6482 18.9378 15.3858C18.7209 14.7212 18.6374 14.0202 18.6922 13.3232C18.7469 12.6262 18.9389 11.9469 19.2569 11.3243C19.7694 10.3227 20.5842 9.50792 21.5858 8.99543C21.8331 8.86872 22.09 8.76188 22.3542 8.67589C23.4245 8.3284 24.5774 8.32853 25.6477 8.67626C25.9118 8.76212 26.1686 8.86884 26.4157 8.99542C27.4173 9.50791 28.2321 10.3227 28.7446 11.3243C29.1262 12.0711 29.3254 12.8977 29.3259 13.7363C29.3264 14.575 29.128 15.4018 28.7472 16.149C28.234 17.1546 27.4163 17.9724 26.4108 18.4857Z" fill="white"/>
<path d="M24.0006 9.52881L23.541 9.86293L23.7165 10.4032H24.2846L24.4601 9.86293L24.0006 9.52881Z" fill="white"/>
<path d="M27.6625 11.6311L27.1436 11.4001L26.7637 11.8226L27.048 12.3145L27.6035 12.1961L27.6625 11.6311Z" fill="white"/>
<path d="M27.6768 15.8545L27.6169 15.2894L27.0611 15.1719L26.7773 15.6643L27.1582 16.0859L27.6768 15.8545Z" fill="white"/>
<path d="M24.0265 17.9792L24.4858 17.6445L24.3092 17.1045L23.7411 17.1056L23.5664 17.6462L24.0265 17.9792Z" fill="white"/>
<path d="M20.3594 15.883L20.8788 16.1131L21.258 15.6901L20.9728 15.1985L20.4176 15.318L20.3594 15.883Z" fill="white"/>
<path d="M20.3398 11.6598L20.4006 12.2248L20.9566 12.3413L21.2393 11.8485L20.8582 11.4275L20.3398 11.6598Z" fill="white"/>
<path d="M24.0008 15.6406C25.0508 15.6406 25.902 14.7894 25.902 13.7394C25.902 12.6893 25.0508 11.8381 24.0008 11.8381C22.9508 11.8381 22.0996 12.6893 22.0996 13.7394C22.0996 14.7894 22.9508 15.6406 24.0008 15.6406Z" fill="white"/>
<path d="M37.36 28.786C34.3415 27.2813 27.7169 25.0576 27.7169 25.0576H27.1564L25.3438 27.476L27.0432 39.2342H39.7048C39.7048 39.2342 39.6131 34.1426 39.0957 31.124C39.0101 30.6255 38.8084 30.1541 38.5069 29.7479C38.2053 29.3418 37.8125 29.0123 37.36 28.786Z" fill="white"/>
<path d="M20.2829 25.0576C20.2829 25.0576 13.6582 27.2813 10.6397 28.786C10.1873 29.0123 9.79442 29.3418 9.4929 29.7479C9.19137 30.1541 8.98965 30.6255 8.90405 31.124C8.38664 34.1426 8.29492 39.2342 8.29492 39.2342H20.9565L22.656 27.476L20.8433 25.0576L20.2829 25.0576Z" fill="white"/>
<line x1="24" y1="47" x2="24" y2="63" stroke="#283891" stroke-width="2"/>
</svg>
