<svg width="47" height="63" viewBox="0 0 47 63" fill="none" xmlns="http://www.w3.org/2000/svg">
<rect width="47" height="47" rx="8.83459" fill="#283891"/>
<path d="M20.9029 20.3323C21.1841 20.4538 21.5121 20.2837 21.6059 19.9919C21.6996 19.7002 21.559 19.3841 21.2778 19.2869L21.2309 19.2626V12.4554L21.2778 12.4311C21.559 12.3339 21.6996 11.9935 21.6059 11.7018C21.5121 11.41 21.1841 11.2642 20.9029 11.3614L18.2081 12.3825C17.9269 12.4797 17.7629 12.7958 17.88 13.0875C17.9269 13.2577 18.0675 13.3793 18.2081 13.4522V18.2658C18.0675 18.3144 17.9269 18.436 17.88 18.6062C17.7629 18.8979 17.9269 19.214 18.2081 19.3355L20.9029 20.3323Z" fill="#5D5360"/>
<path d="M40.4921 11.5559C40.1874 11.5559 39.9297 11.799 39.9297 12.1151C39.9297 12.7958 39.9297 19.2383 39.9297 19.2869C39.9297 19.6029 40.1874 19.8461 40.4921 19.8461H41.4528C41.8746 19.8461 42.273 19.6759 42.5542 19.3841C42.8119 19.0924 42.9994 18.7034 42.9994 18.2658V13.1361C42.9994 12.6985 42.8119 12.3096 42.5542 12.0178C42.273 11.7261 41.8746 11.5559 41.4528 11.5559H40.4921Z" fill="#5D5360"/>
<path d="M25.1694 27.5283C25.474 27.5283 25.7318 27.2852 25.7318 26.9691C25.7318 26.6531 25.474 26.3856 25.1694 26.3856V20.3564C24.8648 20.3564 22.498 20.5996 22.498 20.9156V25.8508C22.498 26.2884 22.6621 26.7017 22.9198 26.9934C22.9433 27.0177 22.9433 27.0177 22.9667 27.042C23.2479 27.3338 23.6697 27.5283 24.1149 27.5283H25.1694Z" fill="#5D5360"/>
<path d="M25.1694 22.1069V20.3564C24.8648 20.3564 22.498 20.5996 22.498 20.9156V22.1069H25.1694Z" fill="#544B56"/>
<path d="M36.0153 20.9156C36.0153 20.5996 35.7575 20.3564 35.4529 20.3564C35.2889 20.3564 35.1483 20.4294 35.0311 20.5509H25.5877C25.494 20.4294 25.3299 20.3564 25.1659 20.3564C24.8613 20.3564 24.627 20.5996 24.627 20.9156V27.3338C24.627 27.7714 24.791 28.1604 25.0487 28.4521C25.0722 28.4764 25.0722 28.4764 25.0956 28.5007C25.3768 28.7925 25.7752 28.9869 26.2204 28.9869C27.5795 28.9869 28.5168 32.7309 29.1495 35.3079C29.2432 35.6726 29.3369 36.0372 29.4072 36.3533H27.7904C27.3217 36.3533 26.8999 36.5478 26.5719 36.8638L26.5484 36.8881C26.2204 37.2285 26.0095 37.6904 26.0095 38.1766V39.4408C26.0095 39.7568 26.2672 40 26.5719 40H38.8741C39.1787 40 39.413 39.7568 39.413 39.4408V38.1766C39.413 37.6904 39.2256 37.2528 38.9444 36.9367C38.921 36.9124 38.921 36.9124 38.8975 36.8881C38.5695 36.5478 38.1477 36.3533 37.6556 36.3533H37.2338L35.1014 28.8168C35.242 28.7438 35.3826 28.6466 35.4998 28.525C35.5232 28.525 35.5232 28.5007 35.5466 28.5007C35.8278 28.1847 36.0153 27.7714 36.0153 27.3338V20.9156Z" fill="#5D5360"/>
<path d="M22.2614 10H39.3205C39.7891 10 40.2109 10.1945 40.5155 10.5348L40.1406 10.9238L40.539 10.5348L40.5624 10.5592C40.8436 10.8752 41.031 11.3128 41.031 11.7747V19.7245C41.031 20.2107 40.8436 20.6483 40.539 20.9644C40.2109 21.2804 39.7891 21.4749 39.3205 21.4749H22.2614C21.7693 21.4749 21.3475 21.2804 21.0429 20.9644C20.7382 20.6483 20.5508 20.2107 20.5508 19.7245V11.7747C20.5508 11.2885 20.7382 10.8509 21.0429 10.5348C21.0663 10.5105 21.0663 10.5105 21.0897 10.4862C21.3944 10.1945 21.7927 10 22.2614 10Z" fill="#FCBE37"/>
<path d="M24.607 11.8232H31.2853C31.8712 11.8232 32.4101 12.0664 32.8085 12.4796C33.1834 12.8686 33.4412 13.4278 33.4412 14.0599V17.0988C33.4412 17.7309 33.1834 18.29 32.8085 18.679C32.785 18.7033 32.785 18.7033 32.7616 18.7276C32.3867 19.1166 31.8477 19.3354 31.2853 19.3354H24.607C24.0212 19.3354 23.4822 19.0923 23.0839 18.679L23.0604 18.6547C22.6855 18.2414 22.4512 17.7066 22.4512 17.0988V14.0599C22.4512 13.4278 22.6855 12.8686 23.0839 12.4796V12.4553C23.4822 12.0664 24.0212 11.8232 24.607 11.8232Z" fill="#5D5360"/>
<path d="M35.0565 12.2609C34.7519 12.2609 34.5176 12.504 34.5176 12.82C34.5176 13.1361 34.7519 13.3792 35.0565 13.3792H38.22C38.5246 13.3792 38.7589 13.1361 38.7589 12.82C38.7589 12.504 38.5246 12.2609 38.22 12.2609H35.0565Z" fill="#5D5360"/>
<path d="M35.0565 14.2059C34.7519 14.2059 34.5176 14.449 34.5176 14.7651C34.5176 15.0811 34.7519 15.3243 35.0565 15.3243H38.22C38.5246 15.3243 38.7589 15.0811 38.7589 14.7651C38.7589 14.449 38.5246 14.2059 38.22 14.2059H35.0565Z" fill="#5D5360"/>
<path d="M35.0565 16.1508C34.7519 16.1508 34.5176 16.3939 34.5176 16.7099C34.5176 17.026 34.7519 17.2934 35.0565 17.2934H38.22C38.5246 17.2934 38.7589 17.026 38.7589 16.7099C38.7589 16.3939 38.5246 16.1508 38.22 16.1508H35.0565Z" fill="#5D5360"/>
<path d="M11.0619 14.4491C11.0619 14.1573 10.8276 13.8899 10.523 13.8899H9.58564C9.21072 13.8899 8.85922 14.0114 8.60146 14.2303C8.29684 14.4491 8.10938 14.7894 8.10938 15.1784V16.2967C8.10938 16.6857 8.29684 17.026 8.60146 17.2692C8.85922 17.4637 9.21072 17.5852 9.58564 17.5852H10.523C10.8276 17.5852 11.0619 17.3421 11.0619 17.026C11.0619 16.7343 11.0619 14.7651 11.0619 14.4491Z" fill="#BBB7BD"/>
<path d="M14.9014 12.1395C14.8076 11.8477 14.503 11.6775 14.2218 11.7748L10.3554 13.039C10.1211 13.1119 9.95703 13.355 9.95703 13.5981V17.9012C9.95703 18.1687 10.1445 18.3875 10.3788 18.4604L14.2218 19.7003C14.503 19.7975 14.8076 19.6273 14.9014 19.3356C14.9951 19.0439 14.9951 12.4555 14.9014 12.1395Z" fill="#5D5360"/>
<path d="M35.0565 18.0956C34.7519 18.0956 34.5176 18.363 34.5176 18.6791C34.5176 18.9951 34.7519 19.2382 35.0565 19.2382H38.22C38.5246 19.2382 38.7589 18.9951 38.7589 18.6791C38.7589 18.363 38.5246 18.0956 38.22 18.0956H35.0565Z" fill="#5D5360"/>
<path d="M14.6912 11.4586H18.3936C18.6748 11.4586 18.9326 11.7017 18.9326 12.0178V19.457C18.9326 19.7731 18.6748 20.0405 18.3936 20.0405H14.6912C14.4569 20.0405 14.246 19.9433 14.082 19.7731C13.9414 19.6272 13.8477 19.3841 13.8477 19.141V12.3338C13.8477 12.0907 13.9414 11.8719 14.082 11.7017C14.246 11.5559 14.4569 11.4586 14.6912 11.4586Z" fill="#BBB7BD"/>
<path d="M8.50671 16.3209C8.81133 16.3209 9.04566 16.0534 9.04566 15.7374C9.04566 15.4213 8.81133 15.1782 8.50671 15.1782H3.53895C3.23433 15.1782 3 15.4213 3 15.7374C3 16.0534 3.23433 16.3209 3.53895 16.3209H8.50671Z" fill="#BBB7BD"/>
<path fill-rule="evenodd" clip-rule="evenodd" d="M24.627 21.475V27.334C24.627 27.4069 24.627 27.4556 24.627 27.5285C24.6738 27.8932 24.8378 28.2092 25.0487 28.4523L25.0956 28.5009C25.3768 28.7927 25.7752 28.9872 26.2204 28.9872C27.5795 28.9872 28.5168 32.7311 29.1495 35.3081C29.2432 35.6728 29.3369 36.0374 29.4072 36.3535H37.2338L35.1014 28.817C35.242 28.744 35.3826 28.6468 35.4998 28.5252L35.5466 28.5009C35.8278 28.1849 36.0153 27.7716 36.0153 27.334V21.475H25.1659H24.627Z" fill="#FCBE37"/>
<path fill-rule="evenodd" clip-rule="evenodd" d="M24.627 21.475V22.1071H36.0153V21.475H25.1659H24.627Z" fill="#E3AB32"/>
<line x1="24" y1="47" x2="24" y2="63" stroke="#283891" stroke-width="2"/>
</svg>
