<svg width="47" height="63" viewBox="0 0 47 63" fill="none" xmlns="http://www.w3.org/2000/svg">
<rect width="47" height="47" rx="8.83459" fill="#283891"/>
<path d="M40.0947 11.9845C40.3455 16.7288 33.6727 17.7667 33.6727 17.7667L30.2556 20.7891L28.4258 18.2236C28.4258 18.2236 32.0146 15.707 35.4302 14.2126C39.6794 12.3536 36.4594 8.96728 36.4594 8.96728C36.4594 8.96728 39.8479 7.3193 40.0947 11.9845Z" fill="#9B4036"/>
<path d="M34.7637 8.61063C34.7637 8.61063 32.1298 7.54663 30.8073 10.0027C29.4847 12.4588 29.9717 13.9027 27.0039 16.2601L27.9286 18.2235C27.9286 18.2235 31.0142 15.9717 32.3925 12.4691C33.7707 8.96647 34.7637 8.61063 34.7637 8.61063Z" fill="#9B4036"/>
<path d="M38.7049 13.4774C38.7049 13.4774 39.8658 11.1863 38.3619 9.98965C38.3619 9.98965 36.1208 7.94258 33.9593 12.9594C33.3017 14.4639 32.3227 15.806 31.091 16.8916C30.2262 16.3837 30.0697 15.366 30.547 14.5181C31.3614 13.5383 31.9932 12.4201 32.4123 11.2168C33.7258 7.36787 36.2764 6.9422 38.505 7.7674C41.7155 8.9562 41.4578 11.603 40.6968 13.947L38.7049 13.4774Z" fill="#E57E62"/>
<path d="M41.255 13.7675C39.6339 13.3147 37.7502 12.8852 36.2846 12.5712C35.986 12.5072 35.677 12.5103 35.3797 12.5803C35.0824 12.6503 34.8045 12.7854 34.5658 12.9759C34.3271 13.1665 34.1338 13.4076 33.9997 13.682C33.8656 13.9563 33.7942 14.2571 33.7905 14.5624L33.6789 23.69C33.6745 24.3795 33.5392 25.0618 33.2802 25.7008C31.7059 29.5173 35.0369 31.5597 37.8179 30.4164C39.7454 29.624 39.8363 27.4403 39.6635 26.0073C39.5434 25.0188 39.6877 24.0161 40.0815 23.1015L42.7556 16.9016C42.8858 16.5992 42.9498 16.2725 42.9432 15.9434C42.9367 15.6143 42.8597 15.2904 42.7176 14.9935C42.5754 14.6966 42.3713 14.4336 42.1191 14.2221C41.8668 14.0106 41.5722 13.8556 41.255 13.7675ZM40.8439 16.7486L38.2839 23.0679C37.8811 24.0781 37.7671 25.1804 37.9545 26.2516C38.1861 27.6234 37.9554 29.106 35.9588 28.6882C34.0844 28.2959 34.5242 26.4943 34.9963 25.3836C35.2961 24.6759 35.4547 23.9165 35.4631 23.1479L35.5559 15.6805C35.5581 15.5005 35.6009 15.3233 35.6811 15.1622C35.7612 15.001 35.8767 14.8599 36.0189 14.7495C36.1611 14.6391 36.3263 14.5622 36.5023 14.5245C36.6784 14.4867 36.8606 14.4892 37.0356 14.5316L40.0478 15.262C40.2055 15.2944 40.354 15.3611 40.483 15.4573C40.612 15.5535 40.7182 15.6769 40.7942 15.8188C40.8702 15.9606 40.914 16.1174 40.9226 16.2781C40.9312 16.4388 40.9043 16.5994 40.8439 16.7486Z" fill="#DCEAEF"/>
<path d="M35.5354 17.3447L33.7502 17.8783L33.7207 20.2877L35.4809 21.7441L35.5354 17.3447Z" fill="#ABBBC4"/>
<path d="M39.5777 19.8745L38.284 23.068C38.1805 23.3237 38.096 23.5867 38.0312 23.8548L39.6255 25.174C39.6444 24.4604 39.7992 23.757 40.0815 23.1014L40.8933 21.2194L39.5777 19.8745Z" fill="#ABBBC4"/>
<path d="M31.5436 18.2198C32.3416 17.6103 33.5087 16.9725 35.1692 16.5738C36.7482 16.1947 37.3142 15.8228 38.0388 14.7751L39.7708 15.1951C39.7708 15.1951 39.1304 17.5118 35.4692 18.1579C34.1745 18.3864 33.1608 19.0845 32.3912 19.8915C31.6606 19.719 31.2726 18.9643 31.5436 18.2198Z" fill="#E57E62"/>
<path d="M40.043 19.0475L41.235 19.6197C42.3042 22.0948 39.1898 22.5378 38.2246 20.8612C38.4018 20.3097 38.6617 19.7884 38.9955 19.315C39.1105 19.154 39.2787 19.0389 39.4704 18.99C39.6621 18.941 39.8649 18.9614 40.043 19.0475Z" fill="#ABBBC4"/>
<path d="M27.7383 17.0208L28.3843 18.7076C28.3843 18.7076 29.6669 18.1608 31.0906 16.8912C30.8648 16.1109 30.6832 15.3185 30.5466 14.5178C29.182 16.1809 27.7383 17.0208 27.7383 17.0208Z" fill="#9B4036"/>
<path d="M31.3648 21.2174C31.6628 20.743 32.0064 20.2989 32.3908 19.8915C32.0523 19.3646 31.7685 18.8047 31.5437 18.2202C30.4199 19.079 30.0293 19.8826 30.0293 19.8826L31.3648 21.2174Z" fill="#9B4036"/>
<path d="M9.8932 36.8423C9.8932 36.8423 9.01752 34.1351 12.9017 32.7155C16.1447 31.5306 17.5132 30.9712 19.642 28.1328L17.8254 26.8064L14.3763 29.2536C14.3763 29.2536 7.16677 30.904 9.8932 36.8423Z" fill="#9B4036"/>
<path d="M10.5156 39.5147C10.5156 39.5147 13.6374 41.8091 16.6626 39.6803C18.1214 38.6537 18.8331 36.7026 19.2199 34.9657C19.4477 33.9529 19.9013 33.0047 20.5469 32.1917L21.6081 30.8495L19.753 29.4126C19.753 29.4126 18.1346 30.4766 17.3134 33.0535C16.4921 35.6303 14.2878 39.0665 10.5156 39.5147Z" fill="#9B4036"/>
<path d="M16.8678 30.8435C16.2342 31.756 15.7821 32.7819 15.5362 33.8652C15.1467 35.5712 14.1337 37.6791 11.5076 37.7424C11.5076 37.7424 8.62557 37.529 9.79977 34.0065C10.544 31.7739 12.4244 30.8735 13.7018 30.5134C14.6504 30.2461 15.5333 29.7852 16.2949 29.1598C16.3028 28.4357 16.0626 27.7307 15.6142 27.1621C14.8563 27.7205 13.9974 28.1268 13.085 28.3586C11.3135 28.8146 8.31853 30.1972 7.29108 34.3801C5.79677 40.4643 11.9347 40.3576 11.9347 40.3576C11.9347 40.3576 16.1321 40.793 17.3135 35.2019C17.4285 34.6564 17.5944 34.1229 17.8093 33.6084C18.2486 32.322 17.6927 31.0551 16.8678 30.8435Z" fill="#E57E62"/>
<path d="M16.3781 29.0899L18.0715 27.6556L17.4844 25.6362L15.8878 26.948C15.798 27.0218 15.7063 27.0924 15.6133 27.1616L16.2939 29.1594C16.322 29.1363 16.3506 29.1135 16.3781 29.0899Z" fill="#9B4036"/>
<path d="M19.5196 30.992L20.4194 30.0568L18.8717 28.6692L17.875 29.6487C17.5027 30.0149 17.1653 30.4151 16.8672 30.8439L17.8096 33.6089C18.2126 32.6382 18.7925 31.7509 19.5196 30.992Z" fill="#9B4036"/>
<path d="M18.4142 23.7416C18.4142 23.7416 17.2666 23.1676 16.8644 24.8892C16.5579 26.2028 17.1198 29.0195 19.7987 30.7403C23.8799 31.4065 31.0445 22.064 30.0551 19.2331C29.2325 18.2713 28.3424 16.931 27.8531 15.2553C27.7991 15.0681 27.6833 14.9048 27.5246 14.7919C27.3659 14.6789 27.1736 14.6231 26.9791 14.6336C26.4065 14.6662 25.6754 14.9564 25.4743 16.1645C25.4743 16.1645 23.9245 15.9349 23.7523 17.9439C23.7523 17.9439 22.0752 18.115 21.8456 19.9351C21.8456 19.9351 20.242 19.6435 20.1361 21.7868C20.1361 21.7868 18.4716 21.4454 18.4142 23.7416Z" fill="#E57E62"/>
<path d="M31.6377 20.7746C31.0633 20.3112 30.5334 19.7952 30.055 19.2332C29.9014 21.3764 27.8668 21.4215 27.8668 21.4215C28.0096 23.1709 26.1545 23.1352 26.1545 23.1352C26.2274 24.9918 24.5107 25.0632 24.5107 25.0632C24.6892 26.884 22.9398 26.9197 22.9398 26.9197C23.0112 28.6334 21.2975 28.9548 21.2975 28.9548C21.3453 30.3648 20.4177 30.6833 19.7988 30.7401C20.6317 31.2751 21.6689 31.7045 22.9486 31.9495C22.9486 31.9495 24.2369 31.8921 23.9085 30.6294C23.9085 30.6294 25.7037 30.9545 25.5315 28.7826C25.5315 28.7826 27.1959 28.3904 26.9665 26.7831C26.9665 26.7831 28.8607 26.6684 28.6309 24.8316C28.6309 24.8316 30.4678 24.6594 30.3529 22.9374C30.3529 22.9374 31.9483 22.8422 31.9619 21.4378C31.9617 21.3099 31.9324 21.1837 31.8762 21.0688C31.8201 20.9539 31.7385 20.8533 31.6377 20.7746Z" fill="#9B4036"/>
<path d="M41.3361 22.3977C41.6323 21.8766 41.8607 21.3198 42.0157 20.7409C42.0638 20.5528 42.045 20.3539 41.9626 20.1782C41.8801 20.0025 41.7392 19.8609 41.5639 19.7776L41.2353 19.6199C41.304 19.8288 41.3238 20.1367 41.1458 20.549L40.943 20.9998C40.8355 21.2386 40.6376 21.425 40.3928 21.518C40.1479 21.6109 39.8762 21.6029 39.6373 21.4956L38.2252 20.8614C38.21 20.9084 38.1958 20.9544 38.1829 20.9982C38.1257 21.192 38.1401 21.3998 38.2235 21.5839C38.3069 21.7679 38.4537 21.9158 38.637 22.0005L40.252 22.7453C40.4434 22.834 40.6611 22.8476 40.862 22.7832C41.0628 22.7188 41.2321 22.5811 41.3361 22.3977Z" fill="#72848C"/>
<path d="M43.0961 14.817C42.9282 14.4656 42.6871 14.1543 42.3888 13.904C42.0906 13.6536 41.7423 13.4699 41.3672 13.3654C41.3483 13.36 41.3292 13.3549 41.3098 13.3496C41.65 12.0612 41.693 10.9977 41.4415 10.1052C41.0875 8.84875 40.1485 7.93052 38.6506 7.37587C37.2735 6.86607 35.9639 6.87291 34.8634 7.39601C34.5325 7.55442 34.2235 7.75506 33.9442 7.99292C33.0157 7.88469 31.4086 8.00379 30.4386 9.80499C30.0038 10.6124 29.7533 11.3266 29.5322 11.9567C29.1961 12.915 28.9001 13.7579 28.0455 14.7231C27.9198 14.555 27.7544 14.4207 27.564 14.3324C27.3737 14.244 27.1644 14.2043 26.9549 14.2169C26.4065 14.2481 25.4835 14.4956 25.1376 15.7479C24.7785 15.7804 24.4365 15.9159 24.1526 16.1382C23.7436 16.4617 23.4827 16.95 23.375 17.5924C22.918 17.7129 22.5022 17.955 22.1719 18.293C21.8416 18.6309 21.6091 19.0522 21.4992 19.5118C21.1412 19.5366 20.7988 19.6676 20.5156 19.888C20.1093 20.2105 19.8551 20.7042 19.7576 21.3589C19.4062 21.3829 19.07 21.5115 18.7924 21.7283C18.3825 22.0542 18.1288 22.5588 18.0351 23.2324C17.8237 23.2235 17.6133 23.2658 17.4217 23.3556C16.9528 23.576 16.6281 24.0599 16.4565 24.7948C16.3733 25.1899 16.3503 25.5952 16.3881 25.9972L15.6234 26.6256C14.851 27.2572 13.9489 27.7109 12.9814 27.9543C11.1707 28.4201 7.97106 29.8619 6.88571 34.2809C6.40691 36.2291 6.62488 37.7937 7.53292 38.9312C8.97442 40.7371 11.6239 40.7811 11.9189 40.7762C11.9579 40.7793 12.0355 40.7838 12.1449 40.7838C12.1852 40.7838 12.2309 40.7829 12.2794 40.7813C12.793 40.9256 13.3237 40.9999 13.8572 41.0022C14.9501 41.0038 16.0157 40.6609 16.9027 40.0224C18.1947 39.1133 19.0858 37.4891 19.6274 35.057C19.8428 34.106 20.269 33.2155 20.8745 32.4512L21.2866 31.93C21.8023 32.1146 22.3316 32.2585 22.8698 32.36C22.8957 32.365 22.9221 32.3676 22.9485 32.3676C22.9546 32.3676 22.9608 32.3676 22.9671 32.3676C23.0456 32.3641 23.7458 32.3181 24.1384 31.7862C24.293 31.5724 24.377 31.3156 24.3787 31.0518C24.7478 31.0206 25.0973 30.8726 25.3767 30.6294C25.7621 30.2808 25.9581 29.7615 25.961 29.0827C26.5927 28.8271 27.3828 28.2183 27.4059 27.1314C27.7614 27.0429 28.2718 26.8451 28.6352 26.4074C28.9189 26.0601 29.0721 25.6246 29.0684 25.1762C29.7774 24.9895 30.6738 24.4514 30.7683 23.297C31.4666 23.1345 32.3687 22.6228 32.3802 21.4426C32.3812 21.2054 32.3144 20.973 32.1877 20.7725C32.5152 20.3424 32.8922 19.9523 33.3109 19.6104L33.2611 23.6851C33.258 24.3216 33.1334 24.9517 32.894 25.5415C32.1597 27.3216 32.3627 28.9675 33.4511 30.0572C34.1646 30.7716 35.1763 31.1495 36.2362 31.1494C36.8335 31.1485 37.4248 31.0309 37.977 30.8032C39.6273 30.1247 40.3737 28.4038 40.0787 25.9573C39.9677 25.0421 40.1011 24.1139 40.4653 23.2669L40.4796 23.2339C40.52 23.2378 40.5605 23.2403 40.6012 23.2403C40.8246 23.2409 41.0441 23.1821 41.2373 23.07C41.4305 22.9579 41.5904 22.7966 41.7008 22.6024C42.014 22.0502 42.2558 21.4604 42.4202 20.8473C42.4776 20.6256 42.473 20.3924 42.407 20.1731C42.3409 19.9539 42.216 19.7569 42.0457 19.6038L43.1401 17.0672C43.2938 16.7107 43.3694 16.3255 43.3618 15.9373C43.3542 15.5492 43.2636 15.1672 43.0961 14.817ZM35.2225 8.15069C36.35 7.61505 37.5513 7.85977 38.3606 8.15951C40.5295 8.96253 41.1961 10.5015 40.5029 13.132C40.1326 13.0353 39.7568 12.9407 39.3832 12.8494C39.7597 11.5072 39.4927 10.3602 38.6308 9.66864C38.3717 9.45619 38.0682 9.30454 37.7428 9.22486C37.4173 9.14518 37.0781 9.1395 36.7501 9.20823C35.5585 9.46458 34.4906 10.6711 33.5758 12.7941C32.4868 15.3218 30.6034 16.8749 29.4034 17.6588C29.2129 17.3582 29.0379 17.048 28.879 16.7295C30.0326 15.8251 31.8923 14.0343 32.8078 11.3519C33.3638 9.72511 34.1759 8.64804 35.2225 8.15069ZM30.2649 18.8386C30.1362 18.684 30.0072 18.5204 29.8781 18.3476C30.7716 17.7606 31.5876 17.0633 32.3066 16.2721C32.3264 16.2646 32.3456 16.2557 32.3641 16.2453C32.7326 16.035 33.043 15.863 33.3586 15.6951L33.346 16.7211C31.7828 17.3658 30.8189 18.2056 30.2649 18.8386ZM36.7501 10.0753C37.1957 10.8261 37.4027 11.5136 37.0589 12.3118C36.8175 12.2586 36.5865 12.2085 36.3723 12.1626C35.7978 12.0388 35.198 12.1239 34.6806 12.4024C35.4675 10.8416 36.2067 10.2627 36.7501 10.0753ZM37.7104 10.0876C37.8444 10.1375 37.9696 10.2086 38.081 10.2983C38.088 10.3047 38.0951 10.3108 38.1026 10.3168C38.8842 10.9388 38.7666 11.9705 38.5696 12.6548C38.3366 12.6001 38.1073 12.5471 37.8836 12.4962C38.2391 11.5308 37.998 10.6842 37.7102 10.0876H37.7104ZM30.3214 12.233C30.5425 11.6022 30.7712 10.9507 31.175 10.201C31.7031 9.22009 32.4681 8.87976 33.1738 8.81273C32.7127 9.42154 32.3272 10.1779 32.0173 11.0819C31.2117 13.4414 29.6081 15.0622 28.5284 15.9402C28.4816 15.8209 28.4368 15.6993 28.3942 15.5754C29.5744 14.3626 29.9376 13.3271 30.3214 12.233ZM10.2772 36.657C10.1935 36.2512 10.2153 35.8307 10.3407 35.4358C10.6492 34.4471 11.5846 33.6422 13.0463 33.1084C14.1287 32.7132 14.9722 32.3966 15.7063 32.0531C15.4575 32.6056 15.2643 33.1815 15.1293 33.7723C14.6039 36.0735 13.3909 37.2683 11.5238 37.324C11.4048 37.3096 10.6993 37.2019 10.2772 36.657ZM16.4663 30.6924C16.4644 30.6936 16.4623 30.6941 16.4604 30.6953C15.5005 31.3033 14.4216 31.7157 12.7592 32.3232C11.5599 32.7615 10.7865 33.3255 10.2885 33.8893C11.0084 32.0584 12.589 31.2615 13.8158 30.916C14.8579 30.6239 15.8246 30.1099 16.6494 29.4092L17.3341 28.8292C17.3645 28.8784 17.3955 28.9275 17.4271 28.9764C17.4937 29.079 17.5664 29.1842 17.6447 29.291L17.5835 29.3511C17.1678 29.7603 16.7936 30.2096 16.4663 30.6924ZM8.18379 38.4058C7.44834 37.4818 7.28486 36.161 7.69777 34.4799C8.67946 30.483 11.5601 29.1827 13.1898 28.7635C14.2756 28.4898 15.2877 27.9803 16.1541 27.2711L16.5448 26.9501C16.6406 27.335 16.7708 27.7106 16.934 28.0722L16.1089 28.771C15.3753 29.3942 14.5156 29.8514 13.5888 30.1111C12.3804 30.4517 10.2305 31.3935 9.40351 33.8744C8.96271 35.1955 9.00254 36.26 9.52086 37.0381C9.53195 37.0547 9.54366 37.0704 9.5549 37.0866C9.55642 37.0887 9.55779 37.0908 9.55931 37.0929C10.2425 38.0565 11.426 38.1556 11.477 38.1594C11.4874 38.1601 11.4976 38.1605 11.5079 38.1605H11.518C13.7658 38.1063 15.3378 36.6141 15.9441 33.9585C16.2864 32.4359 17.0588 31.0437 18.1694 29.9473L18.1804 29.9366C18.4737 30.249 18.7942 30.5348 19.138 30.7906C18.0124 32.0012 17.24 33.497 16.9045 35.1156C15.8196 40.2501 12.1327 39.9569 11.9778 39.942C11.9612 39.9405 11.9446 39.9397 11.928 39.9398C11.9031 39.9413 9.41924 39.958 8.18379 38.4058ZM20.2188 31.933C19.5354 32.796 19.0546 33.8013 18.8117 34.875C18.3243 37.0638 17.5202 38.5655 16.4218 39.3384C15.8953 39.7161 15.2928 39.9746 14.6563 40.0959C15.783 39.4463 17.1297 38.0953 17.7228 35.2884C18.0336 33.7827 18.7611 32.3945 19.8224 31.2821L19.8452 31.2583C20.0457 31.3761 20.259 31.4888 20.4848 31.5962L20.2188 31.933ZM24.0144 30.2219C23.6773 30.08 23.3504 29.915 23.036 29.7279C22.9886 29.7002 22.9362 29.6821 22.8818 29.6746C22.8274 29.6672 22.772 29.6705 22.7189 29.6844C22.6658 29.6983 22.6159 29.7226 22.5722 29.7558C22.5284 29.789 22.4916 29.8304 22.4639 29.8778C22.4362 29.9253 22.4181 29.9777 22.4106 30.0321C22.4032 30.0865 22.4065 30.1418 22.4204 30.1949C22.4343 30.2481 22.4586 30.2979 22.4918 30.3417C22.5249 30.3854 22.5664 30.4222 22.6138 30.4499C22.9132 30.6263 23.222 30.7859 23.539 30.9281C23.5601 31.0526 23.5346 31.1804 23.4675 31.2873C23.3494 31.4498 23.0968 31.5122 22.9704 31.5284C20.2344 30.9888 18.8274 29.5975 18.1281 28.5211C17.2777 27.2123 17.0878 25.7705 17.2712 24.9848C17.379 24.5228 17.5519 24.2222 17.7711 24.1152C17.8378 24.0835 17.9108 24.0674 17.9847 24.0683C17.996 24.0683 18.0067 24.069 18.0176 24.0696C18.1019 24.8594 18.5177 26.9364 20.5649 28.9032C20.6235 28.9595 20.6822 29.0145 20.7407 29.0683C20.8228 29.1406 20.9299 29.1779 21.0391 29.1721C21.1484 29.1664 21.251 29.118 21.3249 29.0375C21.3989 28.9569 21.4384 28.8506 21.4349 28.7412C21.4313 28.6319 21.3851 28.5284 21.3061 28.4527C21.2521 28.4032 21.1982 28.3525 21.1441 28.3007C18.9148 26.1587 18.8344 23.8505 18.832 23.7457C18.8494 23.0956 19.0132 22.6263 19.3062 22.3883C19.4213 22.2967 19.5572 22.2349 19.7019 22.2084C19.7209 23.0025 19.9781 24.6776 21.5684 26.5595C21.635 26.6392 23.1509 28.4317 25.1237 29.0954C25.1195 29.5164 25.0187 29.8234 24.8197 30.0061C24.5451 30.2576 24.1299 30.2341 24.0144 30.2219ZM25.5325 28.3478C23.7219 27.8068 22.2247 26.0408 22.2082 26.0212C20.3065 23.7708 20.5456 21.8738 20.5491 21.848C20.5507 21.8372 20.5516 21.8264 20.5523 21.8156C20.5523 21.8129 20.553 21.8102 20.5532 21.8074V21.8056C20.5836 21.2025 20.7432 20.7796 21.0282 20.5481C21.1568 20.4464 21.3096 20.38 21.4717 20.3553C21.6005 21.2006 21.8473 22.0235 22.205 22.8002C23.0746 24.7191 24.6316 26.2426 26.569 27.0704C26.5696 27.9278 25.8189 28.2546 25.5325 28.3478ZM28.6911 24.4018C26.2367 23.3239 25.0811 21.1481 24.5432 19.5003C24.5267 19.4475 24.4999 19.3986 24.4643 19.3563C24.4287 19.3139 24.385 19.2791 24.3359 19.2538C24.2867 19.2284 24.233 19.2131 24.1779 19.2087C24.1228 19.2042 24.0673 19.2108 24.0147 19.2279C23.9622 19.2451 23.9135 19.2725 23.8716 19.3086C23.8297 19.3447 23.7954 19.3887 23.7706 19.4381C23.7459 19.4876 23.7312 19.5415 23.7274 19.5966C23.7236 19.6518 23.7308 19.7072 23.7485 19.7595C24.3304 21.5433 25.5789 23.8939 28.2308 25.1123C28.2466 25.3849 28.1627 25.654 27.9948 25.8693C27.7074 26.2189 27.2236 26.3253 27.0279 26.3557C25.1762 25.5846 23.8131 24.2824 22.9784 22.4811C22.6039 21.6824 22.3631 20.8277 22.2655 19.951C22.4665 18.5298 23.7421 18.3662 23.7943 18.3602C23.8911 18.3503 23.9814 18.3069 24.0497 18.2375C24.118 18.1682 24.1599 18.0771 24.1683 17.9802C24.216 17.4241 24.3826 17.0271 24.6634 16.8002C24.7984 16.6935 24.9581 16.6226 25.1278 16.5941C25.314 17.4608 25.5986 18.3035 25.9759 19.1056C26.89 21.0457 28.2548 22.4597 29.9339 23.2133C29.8584 24.1181 29.0028 24.348 28.6913 24.4018H28.6911ZM30.4163 22.5113C26.8595 21.0217 25.9989 16.7471 25.8983 16.1703C26.0347 15.4527 26.396 15.0856 27.0028 15.051C27.1029 15.0458 27.2019 15.0748 27.2833 15.1332C27.3648 15.1917 27.424 15.2761 27.4512 15.3727C28.345 18.4334 30.4943 20.3987 31.3768 21.1016C31.4278 21.1408 31.4694 21.1912 31.4982 21.2487C31.5271 21.3063 31.5426 21.3697 31.5435 21.4341C31.5357 22.2862 30.7068 22.4724 30.4163 22.5113ZM31.584 20.1863C31.3643 19.9963 31.1052 19.7559 30.827 19.4667C31.4557 18.7181 32.7744 17.5788 35.2672 16.9802C36.8016 16.6118 37.4886 16.2208 38.2147 15.2474L39.1875 15.483C38.8307 16.1166 37.849 17.3129 35.3966 17.7456C33.9609 17.9997 32.6489 18.841 31.5841 20.1863H31.584ZM35.9711 15.911L35.9738 15.6858C35.9753 15.5686 36.0031 15.4533 36.0553 15.3484C36.1075 15.2434 36.1827 15.1516 36.2752 15.0798C36.3678 15.0079 36.4753 14.9578 36.5899 14.9333C36.7045 14.9087 36.8231 14.9103 36.937 14.9379L37.3205 15.0309C36.9742 15.4324 36.6031 15.6894 35.9711 15.911H35.9711ZM39.6647 18.5459C39.4664 18.5472 39.2712 18.5957 39.0954 18.6875C38.9197 18.7793 38.7683 18.9116 38.6539 19.0736C38.2664 19.6244 37.9715 20.2348 37.781 20.8807C37.7103 21.1164 37.7107 21.3676 37.7821 21.6031C37.8534 21.8385 37.9926 22.0477 38.1822 22.2045L37.896 22.9113C37.4643 23.9933 37.3417 25.174 37.5419 26.3216C37.6871 27.1823 37.5979 27.8188 37.2906 28.1147C37.0493 28.3466 36.6294 28.402 36.0442 28.2795C35.5866 28.1837 35.2896 27.9944 35.1363 27.7009C34.8979 27.2442 34.9843 26.4794 35.3807 25.5475C35.7024 24.7899 35.8724 23.9765 35.8809 23.1535L35.9388 18.491C38.6491 17.8947 39.678 16.3966 40.0218 15.6872C40.1123 15.7143 40.1962 15.7599 40.2681 15.8213C40.34 15.8827 40.3982 15.9584 40.4391 16.0435C40.48 16.1287 40.5027 16.2215 40.5056 16.316C40.5085 16.4104 40.4917 16.5044 40.4562 16.592L39.6647 18.5459ZM37.6588 30.0295C36.3638 30.5615 34.9105 30.3353 34.0422 29.466C33.1918 28.6148 33.0584 27.3339 33.6664 25.8599C33.9463 25.1722 34.0924 24.4373 34.0967 23.6948L34.1535 19.0502C34.4547 18.89 34.7724 18.7628 35.1009 18.6709L35.0455 23.1428C35.0383 23.8569 34.8911 24.5627 34.6123 25.2201C34.2615 26.0454 33.9393 27.2127 34.3963 28.0876C34.6688 28.6094 35.1659 28.9492 35.8738 29.0974C36.1098 29.1488 36.3506 29.1759 36.5922 29.1781C37.1233 29.1781 37.5519 29.0239 37.8711 28.717C38.3912 28.2168 38.5627 27.3403 38.3673 26.1821C38.1929 25.1871 38.2984 24.1633 38.6719 23.2248L38.9272 22.5947L39.6931 22.948C39.2743 23.9273 39.1211 24.9998 39.2491 26.0571C39.4224 27.4998 39.2879 29.36 37.6589 30.0297L37.6588 30.0295ZM41.6108 20.6343C41.4645 21.1788 41.2495 21.7025 40.971 22.1928C40.9183 22.2845 40.8332 22.3531 40.7325 22.3852C40.6317 22.4173 40.5225 22.4104 40.4266 22.366L38.8116 21.6212C38.7189 21.5788 38.6448 21.5043 38.6029 21.4114C38.561 21.3186 38.5541 21.2137 38.5836 21.1161C38.748 20.5587 39.0023 20.0319 39.3366 19.5565C39.3751 19.5023 39.426 19.4581 39.485 19.4277C39.5441 19.3973 39.6097 19.3815 39.6761 19.3817C39.7405 19.3818 39.8039 19.3964 39.8619 19.4243L41.3826 20.1544C41.4705 20.1955 41.5413 20.2659 41.583 20.3535C41.6247 20.441 41.6346 20.5404 41.6111 20.6345L41.6108 20.6343ZM42.3715 16.7355L41.3117 19.1926L40.4681 18.7877L41.2307 16.905C41.3138 16.6997 41.3509 16.4787 41.3393 16.2576C41.3278 16.0364 41.2679 15.8205 41.1639 15.625C41.0599 15.4295 40.9143 15.2592 40.7373 15.126C40.5604 14.9929 40.3564 14.9002 40.1397 14.8544L39.8699 14.7889L38.1379 14.3689L37.1347 14.1257C36.8987 14.0685 36.6528 14.0652 36.4153 14.1161C36.1779 14.167 35.955 14.2708 35.7631 14.4197C35.5713 14.5687 35.4155 14.7589 35.3074 14.9764C35.1992 15.1938 35.1415 15.4328 35.1385 15.6757L35.1326 16.153L35.0727 16.1676C34.7608 16.2425 34.4662 16.326 34.1865 16.4156L34.2093 14.5676C34.2123 14.3242 34.2692 14.0845 34.3761 13.8659C34.4829 13.6472 34.637 13.455 34.8272 13.3031C35.0174 13.1512 35.2389 13.0434 35.4758 12.9875C35.7127 12.9317 35.9591 12.9291 36.1971 12.98C37.5367 13.2669 39.4822 13.7064 41.1426 14.1702C41.4023 14.2423 41.6436 14.3691 41.8502 14.5422C42.0568 14.7153 42.224 14.9307 42.3404 15.1737C42.4569 15.4168 42.5199 15.682 42.5253 15.9515C42.5308 16.221 42.4784 16.4885 42.3719 16.736L42.3715 16.7355Z" fill="#31313F"/>
<line x1="23" y1="47" x2="23" y2="63" stroke="#283891" stroke-width="2"/>
</svg>
