<svg width="47" height="63" viewBox="0 0 47 63" fill="none" xmlns="http://www.w3.org/2000/svg">
<rect width="47" height="47" rx="8.83459" fill="#283891"/>
<path d="M36.6042 10.3958H12.7083C11.0055 10.3958 9.625 11.7762 9.625 13.4791V31.2083C9.625 32.9111 11.0055 34.2916 12.7083 34.2916H36.6042C38.307 34.2916 39.6875 32.9111 39.6875 31.2083V13.4791C39.6875 11.7762 38.307 10.3958 36.6042 10.3958Z" fill="#EAEFF0"/>
<path d="M38.67 33.483L10.6425 11.2043C10.3231 11.4911 10.0674 11.8418 9.89212 12.2336C9.71684 12.6255 9.62584 13.0498 9.625 13.4791V31.2082C9.625 32.026 9.94985 32.8102 10.5281 33.3885C11.1063 33.9667 11.8906 34.2916 12.7083 34.2916H36.6042C37.3696 34.2897 38.1067 34.0012 38.67 33.483Z" fill="#D9E1E2"/>
<path d="M25.2675 35.2882L8.62831 18.6491C8.52051 18.5412 8.38317 18.4678 8.23367 18.4382C8.08417 18.4084 7.92921 18.4237 7.78837 18.482C7.64754 18.5403 7.52716 18.6391 7.44246 18.7658C7.35776 18.8926 7.31253 19.0416 7.3125 19.194V35.0623C7.3125 35.4713 7.47492 35.8634 7.76405 36.1525C8.05316 36.4416 8.44529 36.604 8.85417 36.604H24.7225C24.875 36.604 25.0239 36.5588 25.1507 36.4741C25.2775 36.3894 25.3762 36.269 25.4346 36.1282C25.4928 35.9873 25.5082 35.8324 25.4784 35.6829C25.4487 35.5334 25.3753 35.396 25.2675 35.2882ZM10.3958 33.5207V26.5832L17.3333 33.5207H10.3958Z" fill="#0081BD"/>
<path d="M8.62831 18.6491C8.52051 18.5412 8.38317 18.4678 8.23367 18.4382C8.08417 18.4084 7.92921 18.4237 7.78837 18.482C7.64754 18.5403 7.52716 18.6391 7.44246 18.7658C7.35776 18.8926 7.31253 19.0416 7.3125 19.194V20.4165L23.5 36.604H24.7225C24.875 36.604 25.0239 36.5588 25.1507 36.4741C25.2775 36.3894 25.3762 36.269 25.4346 36.1282C25.4928 35.9873 25.5082 35.8324 25.4784 35.6829C25.4487 35.5334 25.3753 35.396 25.2675 35.2882L8.62831 18.6491Z" fill="#009AE0"/>
<path d="M36.6035 9.625H12.7077C11.6859 9.62623 10.7063 10.0327 9.98373 10.7552C9.26119 11.4777 8.85474 12.4573 8.85352 13.4792V15.6606C8.85352 15.865 8.93473 16.0611 9.07929 16.2057C9.22385 16.3502 9.41991 16.4315 9.62435 16.4315C9.82879 16.4315 10.0249 16.3502 10.1694 16.2057C10.314 16.0611 10.3952 15.865 10.3952 15.6606V13.4792C10.3952 12.8659 10.6388 12.2777 11.0725 11.844C11.5062 11.4103 12.0944 11.1667 12.7077 11.1667H36.6035C37.2168 11.1667 37.805 11.4103 38.2387 11.844C38.6724 12.2777 38.916 12.8659 38.916 13.4792V31.2083C38.916 31.8216 38.6724 32.4098 38.2387 32.8435C37.805 33.2772 37.2168 33.5208 36.6035 33.5208H28.2554C28.051 33.5208 27.8549 33.6021 27.7103 33.7466C27.5658 33.8911 27.4846 34.0872 27.4846 34.2917C27.4846 34.4961 27.5658 34.6922 27.7103 34.8367C27.8549 34.9813 28.051 35.0625 28.2554 35.0625H36.6035C37.6253 35.0613 38.6049 34.6548 39.3275 33.9323C40.05 33.2097 40.4565 32.2301 40.4577 31.2083V13.4792C40.4565 12.4573 40.05 11.4777 39.3275 10.7552C38.6049 10.0327 37.6253 9.62623 36.6035 9.625Z" fill="black"/>
<path d="M15.0208 12.7083C14.8164 12.7083 14.6203 12.7895 14.4758 12.934C14.3312 13.0786 14.25 13.2747 14.25 13.4791V15.0208H12.7083C12.5039 15.0208 12.3078 15.102 12.1633 15.2465C12.0187 15.3911 11.9375 15.5872 11.9375 15.7916C11.9375 15.996 12.0187 16.1921 12.1633 16.3366C12.3078 16.4812 12.5039 16.5624 12.7083 16.5624H14.25V20.6787C14.25 20.8831 14.3312 21.0792 14.4758 21.2237C14.6203 21.3683 14.8164 21.4495 15.0208 21.4495C15.2253 21.4495 15.4214 21.3683 15.5659 21.2237C15.7104 21.0792 15.7917 20.8831 15.7917 20.6787V16.5624H33.5208V28.1249H23.2379C23.0335 28.1249 22.8374 28.2062 22.6929 28.3507C22.5483 28.4952 22.4671 28.6913 22.4671 28.8958C22.4671 29.1002 22.5483 29.2963 22.6929 29.4408C22.8374 29.5853 23.0335 29.6666 23.2379 29.6666H33.5208V31.2083C33.5208 31.4127 33.6021 31.6088 33.7466 31.7533C33.8911 31.8978 34.0872 31.9791 34.2917 31.9791C34.4961 31.9791 34.6922 31.8978 34.8367 31.7533C34.9813 31.6088 35.0625 31.4127 35.0625 31.2083V29.6666H36.6042C36.8086 29.6666 37.0047 29.5853 37.1492 29.4408C37.2938 29.2963 37.375 29.1002 37.375 28.8958C37.375 28.6913 37.2938 28.4952 37.1492 28.3507C37.0047 28.2062 36.8086 28.1249 36.6042 28.1249H35.0625V16.5624H36.6042C36.8086 16.5624 37.0047 16.4812 37.1492 16.3366C37.2938 16.1921 37.375 15.996 37.375 15.7916C37.375 15.5872 37.2938 15.3911 37.1492 15.2465C37.0047 15.102 36.8086 15.0208 36.6042 15.0208H35.0625V13.4791C35.0625 13.2747 34.9813 13.0786 34.8367 12.934C34.6922 12.7895 34.4961 12.7083 34.2917 12.7083C34.0872 12.7083 33.8911 12.7895 33.7466 12.934C33.6021 13.0786 33.5208 13.2747 33.5208 13.4791V15.0208H15.7917V13.4791C15.7917 13.2747 15.7104 13.0786 15.5659 12.934C15.4214 12.7895 15.2253 12.7083 15.0208 12.7083Z" fill="black"/>
<path d="M9.17264 18.1042C8.95704 17.8887 8.68237 17.7419 8.38335 17.6825C8.08435 17.623 7.77442 17.6535 7.49276 17.7702C7.21109 17.8868 6.97035 18.0844 6.80094 18.3378C6.63153 18.5913 6.54108 18.8893 6.54102 19.1942V35.0625C6.54102 35.6759 6.78465 36.264 7.21833 36.6977C7.65201 37.1314 8.2402 37.375 8.85352 37.375H24.7219C25.0268 37.375 25.3248 37.2845 25.5782 37.1151C25.8317 36.9458 26.0292 36.7049 26.1459 36.4233C26.2626 36.1416 26.2931 35.8317 26.2337 35.5327C26.1741 35.2337 26.0274 34.959 25.8119 34.7434L9.17264 18.1042ZM24.7219 35.8334H8.85352C8.64908 35.8334 8.45301 35.7522 8.30845 35.6076C8.1639 35.4631 8.08268 35.267 8.08268 35.0625V19.1942L10.4075 21.5174L9.86254 22.0624C9.78891 22.1336 9.73019 22.2186 9.68979 22.3126C9.64939 22.4067 9.62813 22.5078 9.62724 22.6102C9.62635 22.7125 9.64586 22.8141 9.68461 22.9088C9.72337 23.0035 9.7806 23.0896 9.85299 23.1619C9.92536 23.2343 10.0114 23.2916 10.1062 23.3303C10.2009 23.3691 10.3024 23.3886 10.4047 23.3877C10.5071 23.3868 10.6082 23.3655 10.7023 23.3251C10.7963 23.2847 10.8814 23.226 10.9525 23.1524L11.4975 22.6074L12.5882 23.6974L12.0425 24.2431C11.9688 24.3143 11.9101 24.3993 11.8697 24.4933C11.8293 24.5874 11.808 24.6885 11.8072 24.7909C11.8063 24.8932 11.8258 24.9948 11.8645 25.0895C11.9033 25.1842 11.9605 25.2702 12.0329 25.3426C12.1053 25.415 12.1913 25.4723 12.2861 25.511C12.3808 25.5498 12.4823 25.5693 12.5847 25.5684C12.687 25.5675 12.7882 25.5462 12.8822 25.5058C12.9762 25.4654 13.0613 25.4067 13.1324 25.3331L13.6782 24.7873L14.7689 25.8773L14.2224 26.423C14.1488 26.4942 14.09 26.5792 14.0496 26.6732C14.0092 26.7673 13.988 26.8684 13.987 26.9708C13.9862 27.0732 14.0057 27.1747 14.0445 27.2694C14.0832 27.3641 14.1404 27.4502 14.2128 27.5225C14.2852 27.5949 14.3712 27.6522 14.466 27.6909C14.5607 27.7297 14.6622 27.7492 14.7646 27.7483C14.8669 27.7474 14.9681 27.7261 15.0621 27.6857C15.1562 27.6453 15.2413 27.5866 15.3123 27.513L15.8589 26.9665L16.9473 28.0564L16.4007 28.6029C16.3271 28.6741 16.2684 28.7591 16.228 28.8532C16.1876 28.9472 16.1663 29.0483 16.1654 29.1507C16.1646 29.2531 16.1841 29.3546 16.2228 29.4493C16.2616 29.5441 16.3188 29.6301 16.3912 29.7025C16.4636 29.7748 16.5496 29.8321 16.6443 29.8708C16.7391 29.9096 16.8406 29.9291 16.943 29.9282C17.0453 29.9273 17.1465 29.906 17.2405 29.8656C17.3345 29.8253 17.4196 29.7665 17.4907 29.6929L18.0372 29.1464L19.128 30.2363L18.5807 30.7836C18.4361 30.9283 18.355 31.1244 18.355 31.3289C18.3551 31.5333 18.4364 31.7294 18.581 31.874C18.7257 32.0185 18.9218 32.0997 19.1263 32.0996C19.3308 32.0995 19.5269 32.0183 19.6714 31.8736L20.2187 31.3263L21.3086 32.4163L20.7614 32.9635C20.6877 33.0347 20.629 33.1197 20.5886 33.2138C20.5482 33.3078 20.5269 33.4089 20.526 33.5113C20.5252 33.6137 20.5447 33.7152 20.5834 33.8099C20.6222 33.9047 20.6794 33.9907 20.7518 34.0631C20.8242 34.1354 20.9102 34.1927 21.0049 34.2314C21.0997 34.2702 21.2012 34.2897 21.3036 34.2888C21.4059 34.2879 21.5071 34.2666 21.6011 34.2263C21.6951 34.1859 21.7802 34.1271 21.8513 34.0535L22.3994 33.5062L24.7327 35.8334H24.7219Z" fill="black"/>
<path d="M10.9408 26.0382C10.833 25.9305 10.6957 25.8571 10.5462 25.8273C10.3967 25.7976 10.2417 25.8128 10.1009 25.8712C9.96004 25.9295 9.83966 26.0283 9.75496 26.155C9.67026 26.2817 9.62503 26.4307 9.625 26.5832V33.5207C9.625 33.7251 9.70622 33.9212 9.85077 34.0658C9.99533 34.2103 10.1914 34.2915 10.3958 34.2915H17.3333C17.4858 34.2915 17.6347 34.2463 17.7615 34.1616C17.8883 34.0769 17.987 33.9565 18.0454 33.8156C18.1036 33.6748 18.119 33.5198 18.0892 33.3704C18.0595 33.2208 17.9861 33.0835 17.8783 32.9757L10.9408 26.0382ZM11.1667 32.7499V28.444L15.4725 32.7499H11.1667Z" fill="black"/>
<line x1="24" y1="47" x2="24" y2="63" stroke="#283891" stroke-width="2"/>
</svg>
