<svg width="47" height="63" viewBox="0 0 47 63" fill="none" xmlns="http://www.w3.org/2000/svg">
<rect width="47" height="47" rx="8.83459" fill="#283891"/>
<g clip-path="url(#clip0_1270_2205)">
<path d="M23.007 41.2257C33.0847 41.2257 41.2543 33.0562 41.2543 22.9785C41.2543 12.9008 33.0847 4.7312 23.007 4.7312C12.9293 4.7312 4.75977 12.9008 4.75977 22.9785C4.75977 33.0562 12.9293 41.2257 23.007 41.2257Z" fill="#C1E8F7"/>
<path d="M23.3082 30.1131C26.2747 30.0823 27.5684 28.7364 28.0868 27.5672C27.0685 26.9745 26.5785 26.1869 26.3465 25.4453C26.3172 25.4719 26.2889 25.4998 26.2591 25.5259C25.9813 25.7701 25.6839 25.9933 25.3645 26.1804C25.0921 26.3398 24.8038 26.4723 24.5031 26.5689C24.2299 26.6567 23.9475 26.7144 23.662 26.7433C23.3074 26.7792 22.9433 26.7683 22.5911 26.7124C22.3019 26.6665 22.0181 26.5893 21.7456 26.4822C21.4398 26.3621 21.1493 26.2053 20.8761 26.0232C20.5511 25.8065 20.2504 25.5546 19.9696 25.2835C19.9617 25.2758 19.9544 25.2673 19.9466 25.2595C19.7695 25.9804 19.3762 26.798 18.5312 27.5562C19.0459 28.7279 20.3324 30.0822 23.3082 30.1131Z" fill="#D59A80"/>
<path d="M15.6553 38.0599C15.2799 34.4717 14.8169 29.5347 14.7209 28.3716C13.0962 28.8688 11.5449 29.4125 11.5449 29.576L11.545 29.5764C12.5355 29.5022 12.8169 30.9569 13.5767 32.3138C13.9924 33.0561 14.1143 36.0773 14.0654 38.8839C14.4397 39.0948 14.8212 39.2943 15.2113 39.479C15.2381 38.9743 15.2832 38.6138 15.355 38.4505C15.4019 38.3435 15.4387 38.1455 15.6553 38.0599Z" fill="#F8F8F8"/>
<path d="M17.4219 27.6156L18.1192 27.467C17.952 27.4935 17.7123 27.5451 17.4219 27.6156Z" fill="#F8F8F8"/>
<path d="M28.5117 27.4697L29.1259 27.6018C28.8752 27.5411 28.6647 27.4953 28.5117 27.4697Z" fill="#F8F8F8"/>
<path d="M32.9653 32.3138C33.7193 30.9672 34.0028 29.526 34.9751 29.5764L34.9755 29.5729C34.9755 29.4093 33.4419 28.8651 31.8375 28.3682C31.7419 29.526 31.2782 34.4713 30.9023 38.0629C31.1108 38.1506 31.1462 38.3451 31.1925 38.4504C31.2509 38.5834 31.2896 38.8517 31.3143 39.2225C31.7078 39.0208 32.0957 38.8098 32.472 38.5811C32.4368 35.8634 32.5645 33.0294 32.9653 32.3138Z" fill="#F8F8F8"/>
<path d="M18.1025 38.0177H28.4553C28.8759 34.0254 29.5487 28.1956 29.877 27.7963C29.6051 27.7226 29.3548 27.6577 29.1346 27.6042C28.6615 28.8275 27.2301 31.0767 23.4115 31.1506V31.1575C23.3751 31.1575 23.3427 31.1544 23.3068 31.1541C23.271 31.1544 23.2385 31.1575 23.2021 31.1575V31.1506C19.3836 31.0767 17.8838 28.8415 17.4106 27.6182C17.1939 27.6708 16.9504 27.7335 16.6875 27.8042C17.0182 28.2733 17.6849 34.0524 18.1025 38.0177Z" fill="#F8F8F8"/>
<path d="M23.2018 31.1505V31.1575C23.2382 31.1575 23.2706 31.1543 23.3065 31.154C23.3424 31.1544 23.3748 31.1575 23.4111 31.1575V31.1505C27.2297 31.0766 28.6611 28.8274 29.1343 27.6042L29.1344 27.6039L29.1249 27.6018L28.5108 27.4697L28.1584 27.394C28.1365 27.4511 28.1108 27.5091 28.085 27.5671C27.5666 28.7363 26.2729 30.0823 23.3065 30.1131C20.3306 30.0821 19.0441 28.7279 18.5295 27.5562C18.5056 27.5018 18.4814 27.4474 18.4608 27.394L18.1183 27.467L17.421 27.6155L17.4102 27.6178L17.4103 27.618C17.8835 28.8414 19.3833 31.0766 23.2018 31.1505Z" fill="#ECEEEE"/>
<path d="M13.5772 32.3139C12.8174 30.957 12.5361 29.5023 11.5455 29.5765C11.4721 29.5819 11.3957 29.594 11.3139 29.6169C10.4723 29.8538 9.53203 32.1791 8.91406 34.5707C10.3447 36.3079 12.0926 37.7724 14.0659 38.8839C14.1148 36.0774 13.9929 33.0562 13.5772 32.3139Z" fill="#ECEEEE"/>
<path d="M35.2289 29.6168C35.1388 29.5915 35.0556 29.5807 34.9755 29.5765C34.0032 29.526 33.7197 30.9673 32.9657 32.3138C32.5649 33.0295 32.4371 35.8635 32.4724 38.5811C34.4147 37.4002 36.116 35.8644 37.4936 34.0673C36.8788 31.8622 36.0113 29.837 35.2289 29.6168Z" fill="#ECEEEE"/>
<path d="M15.8997 38.0176H18.1027C17.685 34.0523 17.0184 28.2733 16.6876 27.8041C16.6741 27.7849 16.6611 27.7737 16.6488 27.7727C16.3352 27.7482 14.6936 28.0373 14.719 28.348C14.7196 28.3549 14.7204 28.3645 14.721 28.3716C14.8171 29.5347 15.2801 34.4716 15.6555 38.0599C15.7198 38.0344 15.7982 38.0176 15.8997 38.0176Z" fill="#005467"/>
<path d="M28.4551 38.0176H30.6475C30.7539 38.0176 30.8361 38.0353 30.902 38.0629C31.2778 34.4714 31.7416 29.526 31.8371 28.3682C31.8376 28.3621 31.8383 28.3539 31.8388 28.348C31.8643 28.0373 30.2226 27.7482 29.9089 27.7727C29.8986 27.7735 29.8878 27.7827 29.8767 27.7962C29.5484 28.1955 28.8756 34.0253 28.4551 38.0176Z" fill="#005467"/>
<path d="M18.2963 21.061C18.3291 19.3724 18.1288 19.2623 17.5783 18.8767C17.4008 18.962 17.2808 19.274 17.3323 19.7627C17.407 20.4724 17.7618 21.6177 18.3185 21.4963C18.2986 21.3356 18.2942 21.1718 18.2963 21.061Z" fill="#E0A384"/>
<path d="M28.194 21.061C28.1962 21.1718 28.1917 21.3356 28.1719 21.4963C28.7285 21.6177 29.0833 20.4724 29.158 19.7627C29.2094 19.274 29.0896 18.962 28.912 18.8767C28.3615 19.2623 28.1613 19.3724 28.194 21.061Z" fill="#E0A384"/>
<path d="M20.8756 26.023C21.1488 26.2052 21.4394 26.362 21.7452 26.4821C22.0176 26.5892 22.3015 26.6664 22.5907 26.7123C22.9428 26.7682 23.3069 26.7791 23.6616 26.7432C23.947 26.7143 24.2294 26.6566 24.5026 26.5688C24.8033 26.4722 25.0916 26.3397 25.364 26.1803C25.6835 25.9932 25.9808 25.77 26.2586 25.5258C26.2884 25.4997 26.3167 25.4718 26.3461 25.4452C26.405 25.3917 26.4643 25.3387 26.5215 25.2834C27.3628 24.4711 27.6065 22.7868 27.7778 21.9324L27.5348 21.9322C27.3734 21.9648 27.4022 22.1701 27.4069 21.3793C27.4129 20.3641 27.402 19.455 27.2793 18.5002C26.0298 18.7982 24.5697 19.0208 23.2453 19.0208C21.9441 19.0208 20.4749 18.7942 19.2126 18.4922C19.0888 19.4499 19.0778 20.3612 19.0838 21.3793C19.0885 22.1701 19.1173 21.9648 18.956 21.9322L18.7129 21.9324C18.8826 22.7787 19.1239 24.4386 19.9462 25.2594C19.954 25.2672 19.9612 25.2757 19.9691 25.2834C20.25 25.5545 20.5507 25.8063 20.8756 26.023Z" fill="#E0A384"/>
<path d="M19.0836 21.3795C19.0776 20.3613 19.0886 19.45 19.2124 18.4923C18.1824 18.2459 17.2918 17.9495 16.7428 17.6841C16.7417 17.7049 16.7383 17.725 16.7383 17.7461C16.7383 18.2259 17.0444 18.6331 17.4716 18.7862C17.4934 18.8096 17.5155 18.8329 17.5424 18.8519C17.5549 18.8606 17.5662 18.8685 17.5782 18.8769C18.1287 19.2624 18.329 19.3725 18.2962 21.0612C18.2941 21.1719 18.2985 21.3358 18.3184 21.4965C18.3396 21.6682 18.3784 21.8364 18.447 21.9328L18.7127 21.9326L18.9558 21.9324C19.1171 21.965 19.0883 22.1703 19.0836 21.3795Z" fill="#36373D"/>
<path d="M27.2793 18.5004C27.402 19.4552 27.4129 20.3642 27.4069 21.3795C27.4022 22.1703 27.3734 21.965 27.5347 21.9324L27.7778 21.9326L28.0434 21.9328C28.1121 21.8364 28.1509 21.6682 28.1721 21.4965C28.192 21.3358 28.1964 21.172 28.1942 21.0612C28.1615 19.3726 28.3618 19.2625 28.9123 18.8769C28.9244 18.8685 28.9356 18.8606 28.948 18.8519C28.975 18.8329 28.9971 18.8097 29.0189 18.7862C29.446 18.6332 29.7522 18.226 29.7522 17.7461C29.7522 17.7267 29.7489 17.7082 29.748 17.689C29.2008 17.956 28.3131 18.2539 27.2793 18.5004Z" fill="#36373D"/>
<path d="M30.9019 38.0629C30.836 38.0353 30.7538 38.0176 30.6473 38.0176H28.455H18.1022H15.8992C15.7977 38.0176 15.7193 38.0344 15.655 38.0599C15.4383 38.1455 15.4015 38.3435 15.3546 38.4504C15.2828 38.6138 15.2377 38.9743 15.2109 39.479C17.5749 40.5976 20.2163 41.2256 23.0052 41.2256C25.9988 41.2256 28.8211 40.5001 31.3138 39.2226C31.2891 38.8517 31.2504 38.5834 31.192 38.4504C31.1457 38.3451 31.1103 38.1506 30.9019 38.0629Z" fill="#245E6E"/>
<path d="M24.1621 17.9078C25.0986 17.8423 26.5202 17.723 27.2862 17.5601C28.8263 17.2326 29.592 16.9982 29.9703 16.9452C30.0244 16.9229 30.0526 16.9098 30.0526 16.9098C30.0526 15.0544 29.6313 11.7191 26.8573 10.1714C26.6731 10.4804 24.3238 14.4835 24.1621 17.9078Z" fill="#FFC211"/>
<path d="M19.2039 17.5601C19.97 17.723 21.3915 17.8424 22.3281 17.9078C22.1663 14.4835 19.817 10.4804 19.6328 10.1714C16.8588 11.7191 16.4375 15.0544 16.4375 16.9098C16.4375 16.9098 16.4658 16.9229 16.5199 16.9452C16.8982 16.9982 17.6639 17.2326 19.2039 17.5601Z" fill="#FFC211"/>
<path d="M19.212 18.4923C20.4744 18.7943 21.9435 19.0209 23.2447 19.0209C24.5692 19.0209 26.0292 18.7983 27.2787 18.5003C28.3125 18.2538 29.2003 17.9559 29.7474 17.6889C30.1142 17.5098 30.3294 17.3446 30.3294 17.2187C30.3294 16.9774 30.2754 16.9025 29.9704 16.9451C29.592 16.9981 28.8263 17.2325 27.2862 17.56C26.5202 17.723 25.0987 17.8423 24.1621 17.9078C24.3238 14.4835 26.6732 10.4804 26.8574 10.1713C26.8649 10.1587 26.8701 10.15 26.8701 10.15C26.0691 9.34024 24.4942 8.85871 23.1276 8.87108C21.8283 8.88288 20.3547 9.40477 19.6195 10.15C19.6195 10.15 19.6246 10.1587 19.6322 10.1713C19.8164 10.4803 22.1657 14.4835 22.3275 17.9078C21.3909 17.8423 19.9694 17.723 19.2033 17.56C17.6633 17.2325 16.8976 16.9981 16.5192 16.9451C16.2141 16.9025 16.1602 16.9774 16.1602 17.2187C16.1602 17.3436 16.3759 17.5069 16.7425 17.684C17.2915 17.9494 18.182 18.2458 19.212 18.4923Z" fill="#FFB21D"/>
</g>
<line x1="23" y1="47" x2="23" y2="63" stroke="#283891" stroke-width="2"/>
<defs>
<clipPath id="clip0_1270_2205">
<rect width="38" height="38" fill="white" transform="translate(4 4)"/>
</clipPath>
</defs>
</svg>
