<svg width="47" height="63" viewBox="0 0 47 63" fill="none" xmlns="http://www.w3.org/2000/svg">
<rect width="47" height="47" rx="8.83459" fill="#283891"/>
<g clip-path="url(#clip0_921_1852)">
<path d="M24.0065 42.4624C34.7678 42.4624 43.4915 33.7386 43.4915 22.9773C43.4915 12.2161 34.7678 3.49231 24.0065 3.49231C13.2452 3.49231 4.52148 12.2161 4.52148 22.9773C4.52148 33.7386 13.2452 42.4624 24.0065 42.4624Z" fill="#C1E8F7"/>
<path d="M20.5839 26.4345C20.5839 26.4345 20.3513 27.5909 21.0836 28.6086C21.722 29.4959 22.7072 31.1141 23.1819 31.9595L23.182 31.9594C23.2048 31.9982 23.2267 32.0396 23.2489 32.0799C23.2584 32.0971 23.2695 32.1168 23.2784 32.1331C23.2931 32.1602 23.3077 32.1872 23.3222 32.2151C23.3812 32.3258 23.4217 32.4073 23.4408 32.455C23.8477 33.3173 24.1388 34.3366 24.2518 34.762C24.3309 34.4485 24.4549 34.0141 24.6373 33.517C24.7592 33.1696 24.9032 32.7996 25.0659 32.455C25.0849 32.4074 25.1253 32.3258 25.1845 32.2151C25.1989 32.1872 25.2136 32.1602 25.2282 32.1331C25.2371 32.1168 25.2483 32.0971 25.2577 32.0799C25.28 32.0396 25.3018 31.9982 25.3246 31.9594L25.3248 31.9595C25.7994 31.1141 26.7846 29.4959 27.423 28.6086C28.1553 27.5909 27.9226 26.4345 27.9226 26.4345L27.8105 26.0531C27.6936 25.6857 27.6341 25.3287 27.6047 25.0052C26.2795 26.13 25.808 26.5106 24.1791 26.4546C22.5977 26.509 22.1064 26.1511 20.8665 25.1011C20.8404 25.3434 20.7969 25.6023 20.7247 25.8692C20.7343 25.8657 20.7438 25.8623 20.7534 25.8587L20.5839 26.4345Z" fill="#F4CCAF"/>
<path d="M19.1339 30.9777C19.16 29.8057 19.3263 28.2763 19.4696 27.4536C19.1064 27.6787 18.6501 27.8928 18.1387 28.1063C18.1389 28.107 18.14 28.1072 18.1403 28.1078C18.3887 28.8685 18.7295 29.8691 19.1339 30.9777Z" fill="#F4F4F4"/>
<path d="M24.2039 34.9648L24.2035 34.9661C24.2035 34.9661 24.2043 34.963 24.2045 34.9625C24.214 34.921 24.2248 34.8758 24.2367 34.8275C24.1153 34.5936 23.8189 34.074 23.2588 33.3754C22.677 32.6496 22.3136 32.5652 22.3136 32.5652C22.3136 32.5652 21.9355 32.3762 22.3811 32.1465L22.668 32.0041C21.0182 31.0694 20.2747 32.0836 19.6836 32.4434C20.945 35.7136 22.6138 39.4025 24.1123 40.7506C24.1211 40.7585 24.1294 40.7772 24.1376 40.801V35.2801C24.1376 35.2801 24.1578 35.1644 24.2039 34.9648Z" fill="#F4F4F4"/>
<path d="M29.3548 30.4589C29.685 29.5385 29.9659 28.7103 30.1789 28.0583C29.7519 27.877 29.3671 27.6947 29.0469 27.505C29.1676 28.2175 29.3022 29.41 29.3548 30.4589Z" fill="#EAEAEA"/>
<path d="M24.2535 34.7677C24.3209 34.5138 24.4532 34.0428 24.6375 33.517C24.4551 34.0142 24.3311 34.4486 24.252 34.762C24.2525 34.7641 24.2529 34.7658 24.2535 34.7677Z" fill="#EAEAEA"/>
<path d="M25.84 32.004L26.1269 32.1465C26.5725 32.3761 26.1945 32.5651 26.1945 32.5651C26.1945 32.5651 25.9334 32.7452 25.2492 33.3753C24.6393 33.9371 24.3659 34.5136 24.2602 34.7928C24.2887 34.9012 24.3045 34.9661 24.3045 34.9661C24.3045 34.9661 24.2843 34.9209 24.2426 34.8402C24.2155 34.9165 24.2039 34.9614 24.203 34.9647C24.1569 35.1644 24.1367 35.2801 24.1367 35.2801V40.801C24.1427 40.8183 24.1483 40.8438 24.154 40.8692C24.1707 40.774 24.1887 40.7149 24.2084 40.6972C25.7158 39.3409 27.3955 35.6162 28.6595 32.3315C28.091 31.9158 27.3407 31.1538 25.84 32.004Z" fill="#EAEAEA"/>
<path d="M24.2367 34.8298C24.2363 34.8291 24.2358 34.8281 24.2354 34.8274C24.2235 34.8758 24.2127 34.9209 24.2031 34.9624C24.2048 34.9554 24.2158 34.9102 24.2367 34.8298Z" fill="#EAEAEA"/>
<path d="M11.7155 30.4171C11.6303 30.4223 11.5418 30.4344 11.4466 30.4598C10.5006 30.7123 9.96023 33.1919 9.30664 35.7587C10.6789 37.3357 12.2988 38.6898 14.1085 39.7595C14.1073 38.9988 14.077 38.3032 13.9778 37.7547C13.6635 36.0187 11.6351 31.0288 11.7155 30.4171Z" fill="#F4F4F4"/>
<path d="M36.8837 30.4598C36.7858 30.4337 36.6951 30.422 36.6077 30.4172C36.5856 31.2225 34.6495 36.0087 34.3431 37.7014C34.2495 38.2183 34.2175 38.8667 34.2129 39.576C36.0086 38.4696 37.6106 37.0802 38.9578 35.4697C38.3688 32.9998 37.7946 30.7029 36.8837 30.4598Z" fill="#F4F4F4"/>
<path d="M36.6074 30.4172C36.6092 30.3538 36.6005 30.3121 36.5768 30.3015C36.2518 30.1566 30.3022 27.6822 30.1807 28.0543C30.1803 28.0555 30.1799 28.0569 30.1794 28.0581C29.9665 28.7101 29.6856 29.5384 29.3554 30.4588C29.4134 31.6165 29.3714 32.5972 29.0995 32.5564C28.9592 32.5354 28.8159 32.4458 28.6598 32.3315C27.3959 35.6162 25.7162 39.3409 24.2087 40.6972C24.1891 40.7149 24.171 40.774 24.1543 40.8692C24.2062 41.1022 24.2456 41.667 24.2754 42.4556C27.9162 42.4062 31.3156 41.3611 34.2126 39.576C34.2172 38.8667 34.2492 38.2183 34.3428 37.7014C34.6492 36.0087 36.5853 31.2224 36.6074 30.4172Z" fill="#FF9325"/>
<path d="M24.1806 26.4546C25.8095 26.5106 26.281 26.13 27.6062 25.0053C27.6221 24.9917 27.6367 24.9795 27.6529 24.9657C29.0832 23.7515 28.3627 21.2174 29.231 21.3758C30.0839 21.5314 31.0526 19.2208 30.4407 18.6385C30.1435 18.6101 29.8989 18.8915 29.6703 19.276C29.4137 19.7075 29.5134 20.3735 29.2582 20.358C28.9489 19.3098 28.9796 18.3632 29.038 17.3033C27.6184 17.6732 25.8728 17.9648 24.3057 17.9648C22.8905 17.9648 21.2887 17.7138 19.9242 17.3824C19.9462 17.6254 19.961 17.8614 19.9736 17.9918C20.043 18.7058 19.598 19.5851 19.4338 19.7539C19.3272 19.8636 19.0669 20.3203 18.9115 20.3583C18.7838 20.3894 18.8705 19.6437 18.4442 19.0003C18.1075 18.492 17.9516 18.6042 17.9516 18.6042C17.2692 19.1315 18.2617 21.5342 19.1301 21.3758C19.9985 21.2174 19.2779 23.7515 20.7082 24.9657C20.7637 25.0128 20.8154 25.0566 20.8681 25.1011C22.1079 26.1511 22.5992 26.509 24.1806 26.4546Z" fill="#FCD4B5"/>
<path d="M29.0377 17.3033C28.9794 18.3631 28.9487 19.3098 29.2579 20.3579C29.5131 20.3734 29.4134 19.7075 29.67 19.276C29.8986 18.8915 30.1432 18.6101 30.4405 18.6385C30.4769 18.6418 30.5137 18.6479 30.5517 18.6611C30.8233 18.0843 31.0015 17.3692 31.08 16.6213C30.575 16.8474 29.8623 17.0884 29.0377 17.3033Z" fill="#554C44"/>
<path d="M18.4441 19.0002C18.8704 19.6437 18.7837 20.3894 18.9114 20.3582C19.0668 20.3203 19.3271 19.8635 19.4337 19.7539C19.5978 19.585 20.0429 18.7058 19.9735 17.9917C19.9608 17.8614 19.9461 17.6254 19.9241 17.3823C18.9426 17.1439 18.0851 16.8639 17.5078 16.6051C17.5118 16.6545 17.5147 16.7023 17.5198 16.7537C17.5531 17.0849 17.7543 18.3061 17.9514 18.6042C17.9514 18.6042 18.1073 18.492 18.4441 19.0002Z" fill="#554C44"/>
<path d="M25.2852 16.7761C26.2852 16.7062 27.8032 16.5788 28.6211 16.4048C30.2657 16.055 31.0834 15.8047 31.4874 15.7482C31.5451 15.7243 31.5752 15.7104 31.5752 15.7104C31.5752 13.729 31.1253 10.1676 28.1632 8.51489C27.9664 8.84484 25.4577 13.1195 25.2852 16.7761Z" fill="#FFC211"/>
<path d="M19.9893 16.4048C20.8073 16.5788 22.3252 16.7062 23.3254 16.7761C23.1526 13.1195 20.6439 8.84484 20.4472 8.51489C17.4851 10.1676 17.0352 13.729 17.0352 15.7104C17.0352 15.7104 17.0654 15.7243 17.123 15.7482C17.527 15.8047 18.3446 16.055 19.9893 16.4048Z" fill="#FFC211"/>
<path d="M19.9239 17.3823C21.2884 17.7138 22.8902 17.9648 24.3054 17.9648C25.8725 17.9648 27.6181 17.6732 29.0377 17.3033C29.8622 17.0885 30.5749 16.8474 31.08 16.6213C31.5746 16.3999 31.8706 16.1931 31.8706 16.0403C31.8706 15.7827 31.813 15.7027 31.4873 15.7482C31.0833 15.8047 30.2656 16.055 28.621 16.4048C27.803 16.5788 26.2851 16.7062 25.285 16.7761C25.4576 13.1196 27.9663 8.84486 28.1631 8.51491C28.1711 8.50147 28.1767 8.4922 28.1767 8.4922C27.3213 7.62745 25.6396 7.11326 24.1803 7.12647C22.7928 7.13902 21.2193 7.69636 20.4342 8.4922C20.4342 8.4922 20.4397 8.50141 20.4478 8.51491C20.6445 8.84486 23.1532 13.1196 23.3259 16.7761C22.3258 16.7062 20.8078 16.5788 19.9898 16.4048C18.3452 16.055 17.5276 15.8047 17.1235 15.7482C16.7979 15.7027 16.7402 15.7827 16.7402 16.0403C16.7402 16.1894 17.0275 16.3899 17.5076 16.6051C18.0849 16.8639 18.9424 17.1439 19.9239 17.3823Z" fill="#FFB21D"/>
<path d="M24.154 40.8692C24.1484 40.8438 24.1427 40.8183 24.1368 40.8009C24.1286 40.7772 24.1202 40.7584 24.1114 40.7506C22.6129 39.4024 20.9441 35.7136 19.6827 32.4433C19.5884 32.5007 19.4976 32.543 19.408 32.5564C19.178 32.5909 19.1128 31.8937 19.1331 30.9776C18.7286 29.869 18.3879 28.8684 18.1395 28.1077C18.1392 28.1071 18.1381 28.1069 18.1379 28.1063C17.9962 27.7446 12.0678 30.2102 11.7434 30.355C11.7275 30.3621 11.7194 30.3855 11.7152 30.4171C11.6348 31.0288 13.6631 36.0187 13.9775 37.7547C14.0767 38.3032 14.107 38.9988 14.1082 39.7596C17.0097 41.4746 20.392 42.4623 24.0065 42.4623C24.0966 42.4623 24.1853 42.4567 24.2751 42.4556C24.2453 41.667 24.2059 41.1022 24.154 40.8692Z" fill="#FFA027"/>
<path d="M19.1344 30.9777C19.114 31.8937 19.1793 32.5909 19.4092 32.5564C19.4988 32.543 19.5897 32.5008 19.684 32.4433C20.2751 32.0835 21.0185 31.0694 22.6684 32.004L22.3815 32.1465C21.9359 32.3761 22.3139 32.5651 22.3139 32.5651C22.3139 32.5651 22.6774 32.6496 23.2592 33.3753C23.8193 34.074 24.1157 34.5936 24.2371 34.8274C24.2375 34.8281 24.2381 34.8291 24.2385 34.8299C24.2175 34.9103 24.2065 34.9555 24.2049 34.9624C24.2047 34.963 24.2039 34.9661 24.2039 34.9661L24.2043 34.9647C24.2051 34.9614 24.2168 34.9165 24.2439 34.8402C24.2856 34.921 24.3058 34.9661 24.3058 34.9661C24.3058 34.9661 24.29 34.9012 24.2615 34.7929C24.3672 34.5136 24.6406 33.9371 25.2505 33.3754C25.9347 32.7452 26.1957 32.5651 26.1957 32.5651C26.1957 32.5651 26.5738 32.3761 26.1282 32.1465L25.8413 32.004C27.342 31.1539 28.0923 31.9158 28.6607 32.3316C28.8169 32.4458 28.9601 32.5354 29.1004 32.5564C29.3723 32.5973 29.4143 31.6166 29.3563 30.4588C29.3038 29.4099 29.1691 28.2174 29.0484 27.5049C29.0161 27.3145 28.9848 27.1566 28.9564 27.047C28.7043 26.0747 28.2229 26.0387 27.7548 25.8586L27.812 26.0531L27.9242 26.4345C27.9242 26.4345 28.1568 27.5909 27.4245 28.6086C26.7861 29.4959 25.8009 31.1141 25.3263 31.9595L25.3261 31.9594C25.3033 31.9982 25.2815 32.0396 25.2592 32.0799C25.2498 32.0971 25.2387 32.1168 25.2297 32.133C25.2151 32.1602 25.2004 32.1872 25.186 32.215C25.1269 32.3258 25.0864 32.4073 25.0674 32.4549C24.9048 32.7996 24.7607 33.1696 24.6389 33.5169C24.4545 34.0428 24.3222 34.5138 24.2549 34.7677C24.2543 34.7658 24.2539 34.764 24.2533 34.762C24.1403 34.3366 23.8492 33.3173 23.4423 32.4549C23.4233 32.4073 23.3828 32.3258 23.3237 32.215C23.3093 32.1872 23.2946 32.1602 23.2799 32.133C23.271 32.1168 23.2599 32.0971 23.2505 32.0799C23.2282 32.0396 23.2063 31.9982 23.1836 31.9594L23.1834 31.9595C22.7088 31.1141 21.7236 29.4959 21.0851 28.6086C20.3529 27.5909 20.5855 26.4345 20.5855 26.4345L20.7549 25.8586C20.7453 25.8623 20.7358 25.8657 20.7263 25.8692C20.2672 26.0403 19.8002 26.0945 19.5533 27.0469C19.5275 27.1466 19.4992 27.2862 19.47 27.4536C19.3267 28.2762 19.1604 29.8056 19.1344 30.9777Z" fill="#E0E0E0"/>
</g>
<line x1="24" y1="47" x2="24" y2="63" stroke="#283891" stroke-width="2"/>
<defs>
<clipPath id="clip0_921_1852">
<rect width="40" height="40" fill="white" transform="translate(4 3)"/>
</clipPath>
</defs>
</svg>
