<svg width="47" height="63" viewBox="0 0 47 63" fill="none" xmlns="http://www.w3.org/2000/svg">
<rect width="47" height="47" rx="8.83459" fill="#283891"/>
<path d="M38.25 18.25H9.75V40.2188H38.25V18.25Z" fill="white"/>
<path d="M9.75 18.25V40.2188H18.0625V28.6406C18.0625 28.1656 18.4781 27.75 18.9531 27.75C19.4281 27.75 19.8438 28.1656 19.8438 28.6406V30.4219C19.8438 31.2531 20.4969 31.9062 21.3281 31.9062C22.1594 31.9062 22.8125 31.2531 22.8125 30.4219V26.2656C22.8125 25.7906 23.2281 25.375 23.7031 25.375C24.1781 25.375 24.5938 25.7906 24.5938 26.2656V28.0469C24.5938 28.8781 25.2469 29.5312 26.0781 29.5312C26.9094 29.5312 27.5625 28.8781 27.5625 28.0469V18.25H9.75Z" fill="#FCBC04"/>
<path d="M27.5625 23H16.875C16.5187 23 16.2812 22.7625 16.2812 22.4062V18.25H27.5625V23Z" fill="#EBAF04"/>
<path d="M24 5.78125L6.78125 18.25H41.2188L24 5.78125Z" fill="#656B76"/>
<path d="M18.0625 17.6562V21.2188C18.0625 21.575 18.3 21.8125 18.6562 21.8125H25.1875L20.4375 17.0625H18.6562C18.3 17.0625 18.0625 17.3 18.0625 17.6562Z" fill="#E59730"/>
<path d="M31.7188 21.8125C32.075 21.8125 32.3125 21.575 32.3125 21.2188V19.4375V17.6562C32.3125 17.3 32.075 17.0625 31.7188 17.0625H24.5938L29.3438 21.8125H31.7188Z" fill="#E59730"/>
<path d="M24.5938 17.0625H20.4375L25.1875 21.8125H27.5625H29.3438L24.5938 17.0625Z" fill="#FCBC04"/>
<path d="M26.9688 11.125H21.0312V15.875H26.9688V11.125Z" fill="#FCE39A"/>
<path d="M30.5312 30.125H29.3438V25.375C29.3438 25.1375 29.5219 24.9 29.7594 24.7812L35.2812 23.1188V20.0312H32.3125V18.8438H35.875C36.2313 18.8438 36.4688 19.0812 36.4688 19.4375V23.5938C36.4688 23.8313 36.2906 24.0687 36.0531 24.1875L30.5312 25.7906V30.125Z" fill="#D6DEE0"/>
<path d="M18.6562 34.875H17.4688V28.6406C17.4688 27.8094 18.1219 27.1562 18.9531 27.1562C19.7844 27.1562 20.4375 27.8094 20.4375 28.6406V30.4219C20.4375 30.8969 20.8531 31.3125 21.3281 31.3125C21.8031 31.3125 22.2188 30.8969 22.2188 30.4219V26.2656C22.2188 25.4344 22.8719 24.7812 23.7031 24.7812C24.5344 24.7812 25.1875 25.4344 25.1875 26.2656V28.0469C25.1875 28.5219 25.6031 28.9375 26.0781 28.9375C26.5531 28.9375 26.9688 28.5219 26.9688 28.0469V21.8125H28.1562V28.0469C28.1562 29.175 27.2062 30.125 26.0781 30.125C24.95 30.125 24 29.175 24 28.0469V26.2656C24 26.0875 23.8813 25.9688 23.7031 25.9688C23.525 25.9688 23.4062 26.0875 23.4062 26.2656V30.4219C23.4062 31.55 22.4562 32.5 21.3281 32.5C20.2 32.5 19.25 31.55 19.25 30.4219V28.6406C19.25 28.4625 19.1313 28.3438 18.9531 28.3438C18.775 28.3438 18.6562 28.4625 18.6562 28.6406V34.875Z" fill="#E59730"/>
<path d="M18.6562 36.0625H17.4688V37.25H18.6562V36.0625Z" fill="#E59730"/>
<path d="M26.9688 10.5312H21.0312C20.675 10.5312 20.4375 10.7687 20.4375 11.125V15.875C20.4375 16.2313 20.675 16.4688 21.0312 16.4688H26.9688C27.325 16.4688 27.5625 16.2313 27.5625 15.875V11.125C27.5625 10.7687 27.325 10.5312 26.9688 10.5312ZM26.375 12.9062H24.5938V11.7188H26.375V12.9062ZM23.4062 11.7188V12.9062H21.625V11.7188H23.4062ZM21.625 14.0938H23.4062V15.2812H21.625V14.0938ZM24.5938 15.2812V14.0938H26.375V15.2812H24.5938Z" fill="#876502"/>
<path d="M15.6875 31.9062H14.5V31.3125C14.5 29.3531 12.8969 27.75 10.9375 27.75C8.97813 27.75 7.375 29.3531 7.375 31.3125V31.9062H6.1875V31.3125C6.1875 28.7 8.325 26.5625 10.9375 26.5625C13.55 26.5625 15.6875 28.7 15.6875 31.3125V31.9062Z" fill="#D6DEE0"/>
<path d="M31.125 30.125H28.75V40.2188H31.125V30.125Z" fill="#656B76"/>
<path d="M6.1875 31.9062V40.2188C6.1875 40.575 6.425 40.8125 6.78125 40.8125H15.0938C15.45 40.8125 15.6875 40.575 15.6875 40.2188V31.9062H6.1875Z" fill="#656B76"/>
<path d="M7.96875 36.6562C8.62188 36.6562 9.15625 36.1219 9.15625 35.4688V33.6875C9.15625 34.3406 9.69062 34.875 10.3438 34.875C10.9969 34.875 11.5312 34.3406 11.5312 33.6875V31.9062H6.78125V34.875V35.4688C6.78125 36.1219 7.31562 36.6562 7.96875 36.6562Z" fill="#FCBC04"/>
<path d="M6.78153 40.8125H15.094C15.4503 40.8125 15.6878 40.575 15.6878 40.2188V31.9062C15.6878 31.9062 14.8565 36.3594 12.719 38.4375C10.344 40.8125 6.6034 40.8125 6.78153 40.8125Z" fill="#33363B"/>
<line x1="23" y1="47" x2="23" y2="63" stroke="#283891" stroke-width="2"/>
</svg>
