<svg width="47" height="63" viewBox="0 0 47 63" fill="none" xmlns="http://www.w3.org/2000/svg">
<rect width="47" height="47" rx="8.83459" fill="#283891"/>
<line x1="24" y1="47" x2="24" y2="63" stroke="#283891" stroke-width="2"/>
<path d="M23.9531 15.8438H27.2344C27.6695 15.8438 28.0868 16.0166 28.3945 16.3243C28.7021 16.632 28.875 17.0493 28.875 17.4844V26.2344H22.3125V17.4844C22.3125 17.0493 22.4854 16.632 22.793 16.3243C23.1007 16.0166 23.518 15.8438 23.9531 15.8438Z" fill="#57B7EB"/>
<path d="M24.5273 15.8438H23.9531C23.518 15.8438 23.1007 16.0166 22.793 16.3243C22.4854 16.632 22.3125 17.0493 22.3125 17.4844V26.2344H28.875V21.4766C27.6852 21.0555 26.6422 20.3001 25.871 19.3009C25.0998 18.3018 24.6333 17.1014 24.5273 15.8438Z" fill="#4891D3"/>
<path d="M27.2344 13.6562H23.9531V15.8438H27.2344V13.6562Z" fill="#F9E109"/>
<path d="M26.6875 11.4688H24.5V13.6562H26.6875V11.4688Z" fill="#F9E109"/>
<path d="M28.875 18.5781H22.3125V20.7656H28.875V18.5781Z" fill="#F9E109"/>
<path d="M25.3848 18.5781H22.3125V20.7656H27.4378C26.5945 20.2039 25.892 19.4554 25.3848 18.5781Z" fill="#FCBC04"/>
<path d="M26.1406 14.75C25.8023 14.7494 25.4726 14.6439 25.1967 14.448C24.9209 14.2521 24.7126 13.9755 24.6006 13.6562H23.9531V15.8438H27.2344V14.75H26.1406Z" fill="#FCBC04"/>
<path d="M25.0469 11.4688H24.5V13.6562H26.6875V13.1094C26.2524 13.1094 25.8351 12.9365 25.5274 12.6288C25.2197 12.3212 25.0469 11.9038 25.0469 11.4688Z" fill="#FCBC04"/>
<path d="M38.1718 7.78765C38.423 7.93269 38.6063 8.17159 38.6814 8.45178C38.7565 8.73198 38.7172 9.03052 38.5722 9.28174L25.1737 32.4885L23.2793 31.3948L36.6777 8.18799C36.8228 7.93677 37.0616 7.75346 37.3419 7.67839C37.622 7.60331 37.9206 7.64261 38.1718 7.78765Z" fill="#F9E109"/>
<path d="M38.303 7.88171L31.1893 20.2028C30.9819 20.5609 30.6768 20.8526 30.3098 21.0438C29.9428 21.2351 29.529 21.318 29.1166 21.2829L23.2793 31.3946L25.1737 32.4883L38.5721 9.28117C38.7026 9.05442 38.7472 8.78831 38.6978 8.53141C38.6484 8.2745 38.5083 8.04391 38.303 7.88171Z" fill="#FCBC04"/>
<path d="M17.2049 15.8043L14.3633 17.4449L16.0039 20.2866L18.8455 18.6459L17.2049 15.8043Z" fill="#E9F1F2"/>
<path d="M17.9707 17.2788C17.784 17.3866 17.5779 17.4566 17.3641 17.4848C17.1503 17.5129 16.9332 17.4986 16.7249 17.4427C16.5167 17.3869 16.3215 17.2906 16.1505 17.1592C15.9795 17.0278 15.8361 16.864 15.7285 16.6772L15.7187 16.6603L14.3613 17.444L16.002 20.2877L18.8457 18.6471L18.0352 17.2432L17.9707 17.2788Z" fill="#D0D8DA"/>
<path d="M25.6609 26.0774L19.0306 29.9055L15.1199 21.2397C14.9525 20.8689 14.9289 20.4492 15.0536 20.0619C15.1783 19.6747 15.4424 19.3475 15.7947 19.1441L17.9592 17.8945C18.3116 17.6911 18.7269 17.6258 19.1247 17.7114C19.5225 17.797 19.8742 18.0273 20.1117 18.3577L25.6609 26.0774Z" fill="#F9E109"/>
<path d="M10.2812 14.75L11.375 16.6444C11.8774 16.3543 12.4745 16.2757 13.0349 16.4258C13.5953 16.576 14.0731 16.9426 14.3631 17.445L17.2069 15.8044L16.1131 13.91L17.0603 13.3631L15.9666 11.4688L10.2812 14.75Z" fill="#84D2F4"/>
<path d="M17.8593 10.3751L15.9648 11.4689L17.0586 13.3633L18.953 12.2695L17.8593 10.3751Z" fill="#F9E109"/>
<path d="M21.6107 20.4429C21.2138 20.6697 20.7739 20.811 20.3192 20.8579C19.8644 20.9048 19.4049 20.8561 18.9701 20.715C18.5353 20.5739 18.1348 20.3435 17.7942 20.0387C17.4536 19.7338 17.1805 19.361 16.9924 18.9444L16.8163 18.554L15.7947 19.144C15.4424 19.3475 15.1783 19.6746 15.0536 20.0619C14.9289 20.4491 14.9525 20.8689 15.1199 21.2397L19.0306 29.9054L25.6609 26.0773L21.6107 20.4429Z" fill="#FCBC04"/>
<path d="M14.0607 14.9764C13.74 14.802 13.3807 14.7106 13.0156 14.7106C12.4321 14.7295 11.8638 14.5219 11.4297 14.1315L11.4002 14.103L10.2812 14.75L11.375 16.6444C11.8774 16.3543 12.4745 16.2757 13.0349 16.4258C13.5953 16.576 14.0731 16.9426 14.3631 17.445L17.2069 15.8044L16.6332 14.8107L15.6795 15.1519C15.4126 15.2389 15.1303 15.2683 14.8512 15.238C14.5722 15.2077 14.3028 15.1186 14.0607 14.9764Z" fill="#57B7EB"/>
<path d="M18.5527 11.7225C18.3015 11.8675 18.0029 11.9068 17.7227 11.8317C17.4426 11.7566 17.2037 11.5734 17.0586 11.3222L16.8486 10.9585L15.9648 11.4687L17.0586 13.3631L18.953 12.2693L18.6161 11.6875L18.5527 11.7225Z" fill="#FCBC04"/>
<path d="M29.4219 39.3594H16.2969L14.1094 25.1406H31.6094L29.4219 39.3594Z" fill="#D0D8DA"/>
<path d="M33.25 22.9531H12.4688V25.1406H33.25V22.9531Z" fill="#E9F1F2"/>
<path d="M28.1876 37.1719C28.8257 36.7829 29.4225 36.3299 29.9688 35.82L30.2668 33.8835C29.1 35.3782 27.5274 36.5052 25.737 37.1298C23.6112 36.9338 21.6305 35.9667 20.1687 34.4107C20.3719 34.3456 20.5628 34.2471 20.7337 34.1192C21.0395 33.8902 21.4067 33.7575 21.7883 33.738C22.1699 33.7185 22.5487 33.8132 22.8763 34.0098C23.0226 34.0975 23.1907 34.1419 23.3612 34.1379C23.5316 34.134 23.6975 34.0818 23.8395 33.9875C23.9816 33.8933 24.0941 33.7606 24.1639 33.6051C24.2338 33.4496 24.2581 33.2774 24.2342 33.1086L23.2498 26.2344H31.4409L31.6094 25.1406H14.1094L16.2969 39.3594H29.4219L29.7582 37.1719H28.1876Z" fill="#93999A"/>
<path d="M15.75 24.0469C15.4117 24.0463 15.0819 23.9407 14.8061 23.7448C14.5303 23.5489 14.322 23.2723 14.21 22.9531H12.4688V25.1406H33.25V24.0469H15.75Z" fill="#D0D8DA"/>
<path d="M33.25 26.7812H31.3567L31.1888 27.875H32.6862C32.3854 32.7477 28.0924 36.625 22.8594 36.625C17.6263 36.625 13.3334 32.7477 13.0326 27.875H14.5299L14.362 26.7812H12.4688C12.3237 26.7812 12.1846 26.8389 12.082 26.9414C11.9795 27.044 11.9219 27.1831 11.9219 27.3281C11.9219 33.0577 16.8284 37.7188 22.8594 37.7188C28.8903 37.7188 33.7969 33.0577 33.7969 27.3281C33.7969 27.1831 33.7392 27.044 33.6367 26.9414C33.5342 26.8389 33.395 26.7812 33.25 26.7812Z" fill="#84D2F4"/>
<path d="M21.4922 21.5858C21.2746 21.8033 20.9795 21.9255 20.6719 21.9255C20.3642 21.9255 20.0692 21.8033 19.8516 21.5858C19.634 21.3684 19.3389 21.2462 19.0313 21.2462C18.7236 21.2462 18.4285 21.3684 18.2109 21.5858C17.6785 22.1184 17.3331 22.8091 17.2266 23.5546L15.75 33.8905L17.3759 32.9149C17.7035 32.7182 18.0823 32.6236 18.4639 32.6431C18.8455 32.6626 19.2126 32.7953 19.5185 33.0243C19.8512 33.274 20.2559 33.409 20.6719 33.409C21.0878 33.409 21.4926 33.274 21.8252 33.0243C22.1311 32.7953 22.4983 32.6626 22.8799 32.6431C23.2615 32.6236 23.6403 32.7182 23.9679 32.9149C24.1142 33.0025 24.2823 33.0469 24.4528 33.043C24.6232 33.039 24.789 32.9869 24.9311 32.8926C25.0732 32.7983 25.1856 32.6657 25.2555 32.5102C25.3253 32.3546 25.3497 32.1825 25.3258 32.0136L24.1172 23.5546C24.0107 22.8091 23.6653 22.1184 23.1328 21.5858C22.9152 21.3684 22.6202 21.2462 22.3125 21.2462C22.0048 21.2462 21.7098 21.3684 21.4922 21.5858Z" fill="#84D2F4"/>
<path d="M22.1638 26.5658L22.097 25.8975C22.0239 25.1583 21.7161 24.4619 21.2188 23.9101C21.0142 23.6802 20.7272 23.5403 20.42 23.5207C20.1129 23.501 19.8104 23.6032 19.5781 23.8051C19.3578 24.0148 19.064 24.1295 18.7599 24.1247C18.4559 24.1199 18.1659 23.9959 17.9523 23.7794C17.7652 23.5902 17.5248 23.4625 17.2632 23.4136C17.2545 23.4612 17.2386 23.5065 17.2315 23.5547L15.75 33.8906L17.3759 32.915C17.7035 32.7183 18.0823 32.6237 18.4639 32.6432C18.8455 32.6627 19.2126 32.7954 19.5185 33.0244C19.8512 33.2741 20.2559 33.4091 20.6719 33.4091C21.0878 33.4091 21.4926 33.2741 21.8252 33.0244C22.1311 32.7954 22.4983 32.6627 22.8799 32.6432C23.2615 32.6237 23.6403 32.7183 23.9679 32.915C24.1142 33.0026 24.2823 33.047 24.4528 33.0431C24.6232 33.0391 24.789 32.9869 24.9311 32.8927C25.0732 32.7984 25.1856 32.6658 25.2555 32.5102C25.3253 32.3547 25.3497 32.1826 25.3258 32.0137L25.1382 30.7012C24.3229 30.3338 23.6188 29.7582 23.0966 29.0322C22.5745 28.3063 22.2527 27.4556 22.1638 26.5658Z" fill="#57B7EB"/>
<path d="M20.1191 25.2062L19.1785 32.7312L19.162 32.8133C18.8267 32.6609 18.4542 32.6096 18.0902 32.6656C18.089 32.6436 18.0909 32.6215 18.0956 32.6L19.0363 25.075C19.0398 24.9998 19.0587 24.9262 19.0919 24.8587C19.1252 24.7912 19.172 24.7313 19.2295 24.6827C19.2869 24.6342 19.3538 24.5979 19.4259 24.5764C19.4979 24.5549 19.5737 24.5484 19.6484 24.5574C19.723 24.5665 19.7951 24.5908 19.8599 24.629C19.9248 24.6672 19.981 24.7183 20.0252 24.7792C20.0694 24.8401 20.1005 24.9094 20.1167 24.9829C20.1329 25.0564 20.1337 25.1324 20.1191 25.2062Z" fill="#4891D3"/>
<path d="M23.3181 32.6164V32.6766C23.2064 32.6548 23.0929 32.6438 22.9791 32.6437C22.7263 32.6444 22.4758 32.6926 22.2408 32.7859C22.2301 32.758 22.2246 32.7284 22.2244 32.6984L21.765 26.2727C21.7548 26.1276 21.8027 25.9845 21.8981 25.8748C21.9935 25.765 22.1286 25.6977 22.2736 25.6875C22.4186 25.6773 22.5618 25.7252 22.6715 25.8206C22.7813 25.916 22.8486 26.0511 22.8588 26.1961L23.3181 32.6164Z" fill="#4891D3"/>
<path d="M22.0963 25.8975L22.163 26.5658C22.2495 27.4302 22.5572 28.2578 23.0566 28.9688L22.8586 26.1961C22.8469 26.0516 22.7792 25.9175 22.6698 25.8224C22.5604 25.7273 22.4181 25.6789 22.2734 25.6875C22.2022 25.6922 22.1325 25.7108 22.0684 25.7422C22.076 25.7969 22.093 25.8456 22.0963 25.8975Z" fill="#57B7EB"/>
</svg>
