<svg width="47" height="63" viewBox="0 0 47 63" fill="none" xmlns="http://www.w3.org/2000/svg">
<rect width="47" height="47" rx="8.83459" fill="#283891"/>
<path d="M37.1719 16.9375H9.82812V19.125H37.1719V16.9375Z" fill="#8B5E3C"/>
<path d="M34.9844 24.0469H34.4375L34.8039 25.1406L34.9844 25.6875H31.7031L31.8836 25.1406L32.25 24.0469H31.7031V22.4062C31.7031 22.2612 31.7608 22.1221 31.8633 22.0196C31.9658 21.917 32.105 21.8594 32.25 21.8594H34.4375C34.5825 21.8594 34.7217 21.917 34.8242 22.0196C34.9267 22.1221 34.9844 22.2612 34.9844 22.4062V24.0469Z" fill="#FF9811"/>
<path d="M34.4375 19.125V21.8594H32.25V19.125V16.9375V11.4688H34.4375V16.9375V19.125Z" fill="#C6C5CA"/>
<path d="M34.4375 9.28125V11.4688H32.25V9.28125L33.3438 7.64062L34.4375 9.28125Z" fill="#ACABB1"/>
<path d="M28.9688 7.64062L30.0625 12.0156L28.9688 13.1094V14.75H26.7812V13.1094L25.6875 12.0156L26.7812 7.64062H28.9688Z" fill="#ACABB1"/>
<path d="M29.5156 24.0469H28.9688L29.3352 25.1406L29.5156 25.6875H26.2344L26.4148 25.1406L26.7812 24.0469H26.2344V22.4062C26.2344 22.2612 26.292 22.1221 26.3946 22.0196C26.4971 21.917 26.6362 21.8594 26.7812 21.8594H28.9688C29.1138 21.8594 29.2529 21.917 29.3554 22.0196C29.458 22.1221 29.5156 22.2612 29.5156 22.4062V24.0469Z" fill="#FF9811"/>
<path d="M28.9688 19.125V21.8594H26.7812V19.125V16.9375V14.75H28.9688V16.9375V19.125Z" fill="#C6C5CA"/>
<path d="M23.5 7.64062V10.9055L22.9531 11.4523L21.3125 13.093L19.6719 14.7336L19.125 15.2859V12.0047L19.6719 11.4523L21.3125 9.81172L23.4836 7.64062H23.5Z" fill="#C6C5CA"/>
<path d="M23.4836 7.64062L21.3125 9.81172L19.6719 11.4523L19.125 12.0047V7.64062H23.4836Z" fill="#ACABB1"/>
<path d="M23.5 10.9055V14.1868L22.9531 14.7337L21.3125 16.3743L19.125 18.5673V16.9376V15.286L19.6719 14.7337L21.3125 13.093L22.9531 11.4524L23.5 10.9055Z" fill="#ACABB1"/>
<path d="M23.5 24.0469H22.4062L23.1336 25.1406L23.5 25.6875H19.125L19.4914 25.1406L20.2188 24.0469H19.125V22.4062C19.125 22.2612 19.1826 22.1221 19.2852 22.0196C19.3877 21.917 19.5268 21.8594 19.6719 21.8594H22.9531C23.0982 21.8594 23.2373 21.917 23.3398 22.0196C23.4424 22.1221 23.5 22.2612 23.5 22.4062V24.0469Z" fill="#FF5023"/>
<path d="M23.5 16.9375V19.125L22.4062 20.2188V21.8594H20.2188V20.2188L19.125 19.125V18.5672L21.3125 16.3743L22.9531 14.7336L23.5 14.1868V16.9375Z" fill="#C6C5CA"/>
<path d="M16.9375 23.5V25.6875H12.5625V19.125V16.9375V7.64062H16.9375V10.375V12.5625V14.75V16.9375V19.125V21.3125V23.5Z" fill="#FF9811"/>
<path d="M39.3594 13.1094V39.3594H37.1719V37.1719V25.6875V19.125V16.9375V13.1094H39.3594Z" fill="#8B5E3C"/>
<path d="M37.1719 25.6875V37.1719H9.82812V25.6875H12.5625H16.9375H19.125H23.5H26.2344H29.5156H31.7031H34.9844H37.1719Z" fill="#A97C50"/>
<path d="M37.1719 37.1719H9.82812V39.3594H37.1719V37.1719Z" fill="#8B5E3C"/>
<path d="M9.82812 37.1719V39.3594H7.64062V13.1094H9.82812V16.9375V19.125V25.6875V37.1719Z" fill="#8B5E3C"/>
<path d="M23.1344 25.1406H19.4922L20.2195 24.0469H22.407L23.1344 25.1406Z" fill="#DB451E"/>
<path d="M29.3344 25.1406H26.4141L26.7805 24.0469H28.968L29.3344 25.1406Z" fill="#EE8700"/>
<path d="M34.8031 25.1406H31.8828L32.2492 24.0469H34.4367L34.8031 25.1406Z" fill="#EE8700"/>
<path d="M39.3594 12.5625H37.1719C37.0268 12.5625 36.8877 12.6201 36.7852 12.7227C36.6826 12.8252 36.625 12.9643 36.625 13.1094V16.3906H34.9844V9.28125C34.9846 9.17388 34.9522 9.06896 34.8914 8.98047L33.7977 7.33984C33.7453 7.26863 33.677 7.21073 33.5981 7.17082C33.5192 7.1309 33.4321 7.11011 33.3438 7.11011C33.2554 7.11011 33.1683 7.1309 33.0894 7.17082C33.0105 7.21073 32.9422 7.26863 32.8898 7.33984L31.7961 8.98047C31.7353 9.06896 31.7029 9.17388 31.7031 9.28125V16.3906H29.5156V13.3336L30.4508 12.4039C30.518 12.3374 30.5665 12.2544 30.5915 12.1632C30.6164 12.072 30.6169 11.9758 30.593 11.8844L29.4992 7.50937C29.4699 7.39081 29.4018 7.28547 29.3056 7.21015C29.2095 7.13482 29.0909 7.09384 28.9688 7.09375H26.7812C26.6591 7.09384 26.5405 7.13482 26.4444 7.21015C26.3482 7.28547 26.2801 7.39081 26.2508 7.50937L25.157 11.8844C25.1331 11.9758 25.1336 12.072 25.1585 12.1632C25.1835 12.2544 25.232 12.3374 25.2992 12.4039L26.2344 13.3336V16.3906H24.0469V7.64062C24.0469 7.49558 23.9892 7.35649 23.8867 7.25392C23.7842 7.15137 23.645 7.09375 23.5 7.09375H19.125C18.98 7.09375 18.8408 7.15137 18.7383 7.25392C18.6358 7.35649 18.5781 7.49558 18.5781 7.64062V16.3906H17.4844V7.64062C17.4844 7.49558 17.4267 7.35649 17.3242 7.25392C17.2217 7.15137 17.0825 7.09375 16.9375 7.09375H12.5625C12.4175 7.09375 12.2783 7.15137 12.1758 7.25392C12.0733 7.35649 12.0156 7.49558 12.0156 7.64062V16.3906H10.375V13.1094C10.375 12.9643 10.3174 12.8252 10.2148 12.7227C10.1123 12.6201 9.97317 12.5625 9.82812 12.5625H7.64062C7.49558 12.5625 7.35649 12.6201 7.25392 12.7227C7.15137 12.8252 7.09375 12.9643 7.09375 13.1094V39.3594C7.09375 39.5044 7.15137 39.6435 7.25392 39.7461C7.35649 39.8486 7.49558 39.9062 7.64062 39.9062H39.3594C39.5044 39.9062 39.6435 39.8486 39.7461 39.7461C39.8486 39.6435 39.9062 39.5044 39.9062 39.3594V13.1094C39.9062 12.9643 39.8486 12.8252 39.7461 12.7227C39.6435 12.6201 39.5044 12.5625 39.3594 12.5625ZM9.28125 38.8125H8.1875V13.6562H9.28125V38.8125ZM32.7969 9.44531L33.3438 8.625L33.8906 9.44531V10.9219H32.7969V9.44531ZM32.7969 12.0156H33.8906V21.3125H32.7969V12.0156ZM32.25 22.4062H34.4375V23.5C34.3506 23.4996 34.2649 23.5203 34.1877 23.5603C34.1106 23.6004 34.0443 23.6584 33.9945 23.7297C33.9437 23.7998 33.9103 23.881 33.897 23.9665C33.8836 24.0521 33.8908 24.1396 33.918 24.2219L34.2242 25.1406H32.4633L32.7695 24.2219C32.7967 24.1396 32.8039 24.0521 32.7905 23.9665C32.7772 23.881 32.7438 23.7998 32.693 23.7297C32.6432 23.6584 32.5769 23.6004 32.4998 23.5603C32.4226 23.5203 32.3369 23.4996 32.25 23.5V22.4062ZM29.5156 17.4844H31.7031V18.5781H29.5156V17.4844ZM29.5156 19.6719H31.7031V21.4656C31.5374 21.5606 31.3996 21.6975 31.3036 21.8626C31.2075 22.0278 31.1567 22.2152 31.1562 22.4062V24.0469C31.1558 24.1572 31.189 24.2651 31.2516 24.356C31.3141 24.4469 31.403 24.5165 31.5062 24.5555L31.3094 25.1406H29.9094L29.7125 24.5555C29.8158 24.5165 29.9046 24.4469 29.9672 24.356C30.0297 24.2651 30.063 24.1572 30.0625 24.0469V22.4062C30.062 22.2152 30.0112 22.0278 29.9152 21.8626C29.8192 21.6975 29.6814 21.5606 29.5156 21.4656V19.6719ZM27.2078 8.1875H28.5422L29.4555 11.8461L28.5805 12.7211C28.4797 12.8254 28.423 12.9644 28.4219 13.1094V14.2031H27.3281V13.1094C27.327 12.9644 27.2703 12.8254 27.1695 12.7211L26.2945 11.8461L27.2078 8.1875ZM28.4492 24.2219L28.7555 25.1406H26.9945L27.3008 24.2219C27.3279 24.1396 27.3351 24.0521 27.3218 23.9665C27.3085 23.881 27.275 23.7998 27.2242 23.7297C27.1745 23.6584 27.1082 23.6004 27.031 23.5603C26.9538 23.5203 26.8681 23.4996 26.7812 23.5V22.4062H28.9688V23.5C28.8819 23.4996 28.7962 23.5203 28.719 23.5603C28.6418 23.6004 28.5755 23.6584 28.5258 23.7297C28.475 23.7998 28.4415 23.881 28.4282 23.9665C28.4149 24.0521 28.4221 24.1396 28.4492 24.2219ZM27.3281 21.3125V15.2969H28.4219V21.3125H27.3281ZM24.0469 17.4844H26.2344V18.5781H24.0469V17.4844ZM23.7242 19.6719H26.2344V21.4656C26.0686 21.5606 25.9308 21.6975 25.8348 21.8626C25.7388 22.0278 25.688 22.2152 25.6875 22.4062V24.0469C25.687 24.1572 25.7203 24.2651 25.7828 24.356C25.8454 24.4469 25.9342 24.5165 26.0375 24.5555L25.8406 25.1406H23.7953L23.4289 24.5938H23.5C23.645 24.5938 23.7842 24.5361 23.8867 24.4336C23.9892 24.331 24.0469 24.1919 24.0469 24.0469V22.4062C24.046 22.1165 23.9305 21.8388 23.7256 21.6338C23.5206 21.4289 23.2429 21.3134 22.9531 21.3125V20.443L23.7242 19.6719ZM19.6719 8.1875H22.1656L19.6719 10.6813V8.1875ZM19.6719 12.2289L22.9531 8.94766V10.6813L19.6719 13.9625V12.2289ZM19.6719 15.5102L22.9531 12.2289V13.9625L19.6719 17.2437V15.5102ZM19.6719 18.7914L22.9531 15.5102V18.9008L22.018 19.8305C21.9172 19.9348 21.8605 20.0738 21.8594 20.2188V21.3125H20.7656V20.2188C20.7645 20.0738 20.7078 19.9348 20.607 19.8305L19.6719 18.9008V18.7914ZM21.9523 24.3477L22.4773 25.1406H20.1477L20.6727 24.3477C20.729 24.2666 20.7615 24.1713 20.7663 24.0727C20.7712 23.974 20.7482 23.876 20.7 23.7898C20.6543 23.7019 20.5851 23.6283 20.5002 23.5771C20.4153 23.526 20.3179 23.4993 20.2188 23.5H19.6719V22.4062H22.9531V23.5H22.4062C22.3071 23.4993 22.2097 23.526 22.1248 23.5771C22.0399 23.6283 21.9707 23.7019 21.925 23.7898C21.8768 23.876 21.8538 23.974 21.8587 24.0727C21.8635 24.1713 21.896 24.2666 21.9523 24.3477ZM17.4844 17.4844H18.5781V18.5781H17.4844V17.4844ZM17.4844 19.6719H18.9008L19.6719 20.443V21.3125C19.3821 21.3134 19.1044 21.4289 18.8994 21.6338C18.6945 21.8388 18.579 22.1165 18.5781 22.4062V24.0469C18.5781 24.1919 18.6358 24.331 18.7383 24.4336C18.8408 24.5361 18.98 24.5938 19.125 24.5938H19.1961L18.8297 25.1406H17.4844V19.6719ZM13.1094 8.1875H16.3906V9.82812H14.75V10.9219H16.3906V12.0156H14.75V13.1094H16.3906V14.2031H14.75V15.2969H16.3906V16.3906H14.75V17.4844H16.3906V18.5781H14.75V19.6719H16.3906V20.7656H14.75V21.8594H16.3906V22.9531H14.75V24.0469H16.3906V25.1406H13.1094V8.1875ZM10.375 17.4844H12.0156V18.5781H10.375V17.4844ZM10.375 19.6719H12.0156V25.1406H10.375V19.6719ZM36.625 38.8125H10.375V37.7188H36.625V38.8125ZM36.625 36.625H10.375V26.2344H36.625V36.625ZM36.625 25.1406H35.3781L35.1813 24.5555C35.2845 24.5165 35.3734 24.4469 35.4359 24.356C35.4985 24.2651 35.5317 24.1572 35.5312 24.0469V22.4062C35.5308 22.2152 35.48 22.0278 35.3839 21.8626C35.2879 21.6975 35.1501 21.5606 34.9844 21.4656V19.6719H36.625V25.1406ZM36.625 18.5781H34.9844V17.4844H36.625V18.5781ZM38.8125 38.8125H37.7188V13.6562H38.8125V38.8125Z" fill="black"/>
<line x1="24" y1="47" x2="24" y2="63" stroke="#283891" stroke-width="2"/>
</svg>
