<svg width="47" height="63" viewBox="0 0 47 63" fill="none" xmlns="http://www.w3.org/2000/svg">
<rect width="47" height="47" rx="8.83459" fill="#283891"/>
<g clip-path="url(#clip0_921_1901)">
<path d="M8 31.8074C8 32.502 8.28841 33.1544 8.8125 33.6458L10.2448 34.9885C10.7689 35.4799 11.4648 35.7502 12.2057 35.7502C13.1348 35.7502 13.9974 35.3175 14.5137 34.593C15.8262 32.7467 17.4512 31.136 19.3438 29.8054C20.9954 28.6439 22.3874 27.223 23.4811 25.5824L25.1917 23.0169L27.8047 20.5671C28.6081 19.8152 30.3359 19.2201 31.9525 19.6034C32.765 19.839 33.3333 20.5543 33.3333 21.3752C33.3333 21.5046 33.3151 21.642 33.278 21.7946C33.2279 22.0039 33.2949 22.223 33.457 22.375L34.862 23.6921C34.9922 23.8142 35.1628 23.8752 35.3333 23.8752C35.5039 23.8752 35.6745 23.8142 35.8047 23.6921L39.8047 19.9421C40.0651 19.698 40.0651 19.3025 39.8047 19.0583L38.3997 17.7412C38.2389 17.5892 38.0046 17.5245 37.7806 17.5734C37.6178 17.6082 37.4714 17.6252 37.3333 17.6252C36.2305 17.6252 35.3333 16.7842 35.3333 15.7502C35.3333 15.616 35.3542 15.4731 35.3997 15.3004C35.4551 15.0905 35.3906 14.8689 35.2292 14.7139L31.5612 11.1976C29.5267 9.29028 26.8483 8.25024 24 8.25024C21.8424 8.25024 20.4154 8.91919 19.0352 9.56616C18.7585 9.69556 18.6133 9.98669 18.6842 10.2687C18.7552 10.5507 19.0241 10.7502 19.3333 10.7502C22.3906 10.7502 23.5358 11.8239 24.862 13.0671C25.8431 13.9869 25.0065 16.4229 24.1953 17.1833L21.5823 19.6331L18.8457 21.2367C17.0957 22.2621 15.5801 23.567 14.3411 25.1149C12.9219 26.8898 11.2038 28.4132 9.23503 29.6437C8.46159 30.1277 8 30.9364 8 31.8074Z" fill="#303C42"/>
<path d="M26.862 19.6833L24.6667 21.7415L22.9427 20.1252L25.138 18.0671C26.3574 16.924 27.4531 13.7281 25.8047 12.1833C24.8307 11.2697 23.7617 10.2681 21.8672 9.78833C22.498 9.61133 23.1895 9.50024 24 9.50024C26.4922 9.50024 28.8359 10.4103 30.5983 12.0625L34.0313 15.3535C34.0104 15.4902 34 15.6215 34 15.7502C34 17.5868 35.6764 19.0931 37.7012 18.8539L38.3906 19.5002L35.3333 22.3665L34.6439 21.7201C34.6595 21.6029 34.6667 21.4888 34.6667 21.3752C34.6667 20.0026 33.7201 18.8069 32.3112 18.3998C30.1628 17.8944 27.9505 18.6628 26.862 19.6833Z" fill="#D7CCC8"/>
<path d="M9.33398 31.8074C9.33398 31.3551 9.57357 30.9352 9.97591 30.6837C12.0703 29.3745 13.8984 27.7534 15.4082 25.865C16.5482 24.441 17.9427 23.2405 19.5534 22.2963L21.9043 20.9187L23.821 22.7156L22.3516 24.9196C21.3444 26.4296 20.0638 27.7369 18.5449 28.8057C16.5306 30.2211 14.8014 31.9349 13.4049 33.899C12.9225 34.5759 11.8014 34.6803 11.1882 34.1047L9.75586 32.762C9.48372 32.5068 9.33398 32.1681 9.33398 31.8074Z" fill="#FF8F00"/>
<path opacity="0.1" d="M37.7013 18.8539C35.6765 19.0931 34.0001 17.5868 34.0001 15.7502C34.0001 15.6214 34.0105 15.4902 34.0313 15.3535L31.9177 13.3273L23.8047 20.9332L24.6667 21.7414L26.8621 19.6833C27.9506 18.6628 30.1628 17.8944 32.3113 18.3998C33.7201 18.8069 34.6667 20.0025 34.6667 21.3752C34.6667 21.4887 34.6596 21.6029 34.644 21.7201L35.3334 22.3664L38.3907 19.5002L37.7013 18.8539Z" fill="black"/>
<path opacity="0.1" d="M11.1869 34.1047C11.8002 34.6803 12.9213 34.5759 13.4037 33.899C14.8002 31.9349 16.5294 30.221 18.5437 28.8056C20.0626 27.7369 21.3432 26.4295 22.3503 24.9195L23.8197 22.7155L22.8613 21.817L10.4707 33.4332L11.1869 34.1047Z" fill="black"/>
<path d="M38.862 30.0493L30.3776 22.0958C30.2045 21.9335 29.9499 21.8718 29.7149 21.939C29.5671 21.9805 29.446 22 29.3334 22C28.5983 22 28 21.4391 28 20.75C28 20.6444 28.0209 20.5309 28.0651 20.393C28.1361 20.1726 28.0723 19.9334 27.8985 19.7704L26.9434 18.8756C26.0847 18.0693 24.584 18.0687 23.724 18.875L23.6667 18.9287L16 11.7412V10.8501C16 10.1793 15.614 9.55555 14.9922 9.2223L10.9974 7.08241C10.8926 7.02571 10.7772 6.99937 10.6628 7.00001C10.4915 7.00097 10.3226 7.06344 10.1953 7.18312L8.19534 9.05812C7.98244 9.25709 7.93882 9.56532 8.08791 9.81007L10.3705 13.5552C10.7259 14.1381 11.392 14.5 12.1074 14.5H13.0573L20.724 21.6875L20.6673 21.7406C20.237 22.1434 20 22.6793 20 23.25C20 23.8201 20.237 24.356 20.6667 24.7588L21.6224 25.6542C21.7969 25.8178 22.0508 25.8788 22.2852 25.811C22.433 25.7695 22.5541 25.75 22.6667 25.75C23.4017 25.75 24 26.3109 24 27C24 27.1056 23.9792 27.2185 23.9349 27.3558C23.8633 27.5762 23.9278 27.8161 24.1016 27.979L32.586 35.9331C33.3093 36.6112 34.3106 37 35.3334 37C36.3561 37 37.3574 36.6112 38.0808 35.9331L38.862 35.2007C39.5853 34.5226 40 33.5839 40 32.625C40 31.6661 39.5853 30.7274 38.862 30.0493Z" fill="#303C42"/>
<path d="M13.8047 13.4331C13.6797 13.3159 13.5104 13.25 13.3333 13.25H12.1074C11.8685 13.25 11.6465 13.1292 11.528 12.9351L9.49805 9.60437L10.778 8.40442L14.3301 10.3075C14.5378 10.4186 14.6667 10.6267 14.6667 10.8501V12C14.6667 12.166 14.737 12.3247 14.862 12.4419L22.724 19.8125L21.6667 20.8037L13.8047 13.4331Z" fill="#D7CCC8"/>
<path d="M37.9199 34.3169L37.1387 35.0493C36.1882 35.9405 34.4798 35.9405 33.5293 35.0493L25.3053 27.3394C25.3249 27.224 25.334 27.1111 25.334 27C25.334 25.5108 23.9557 24.287 22.306 24.5269L21.61 23.875C21.4323 23.7078 21.334 23.4862 21.334 23.25C21.334 23.0138 21.4316 22.7917 21.61 22.625L24.6673 19.7588C25.0241 19.4256 25.6452 19.4243 26.0007 19.7588L26.696 20.4101C26.6771 20.526 26.6673 20.6389 26.6673 20.75C26.6667 22.2387 28.0299 23.4673 29.6953 23.2232L37.9199 30.9331C38.3952 31.3787 38.6673 31.9951 38.6673 32.625C38.6673 33.2549 38.3952 33.8714 37.9199 34.3169Z" fill="#1E88E5"/>
<path opacity="0.1" d="M9.49805 9.60437L11.528 12.9351C11.6465 13.1292 11.8685 13.25 12.1074 13.25H13.3333C13.5104 13.25 13.6797 13.3159 13.8047 13.4331L21.6667 20.8037L22.1953 20.3081L10.138 9.00439L9.49805 9.60437Z" fill="black"/>
<path opacity="0.1" d="M23.1387 21.1919L21.61 22.625C21.4316 22.7916 21.334 23.0138 21.334 23.25C21.334 23.4862 21.4323 23.7078 21.61 23.875L22.306 24.5269C23.9557 24.287 25.334 25.5107 25.334 27C25.334 27.1111 25.3249 27.224 25.3053 27.3394L33.5293 35.0493C34.4798 35.9404 36.1882 35.9404 37.1387 35.0493L37.5293 34.6831L23.1387 21.1919Z" fill="black"/>
<path d="M30.3776 22.0958C30.2045 21.9335 29.9499 21.8718 29.7149 21.939C29.5671 21.9805 29.446 22 29.3334 22C28.5983 22 28 21.4391 28 20.75C28 20.6444 28.0209 20.5309 28.0651 20.393C28.0688 20.3817 28.0631 20.3702 28.066 20.3589C28.9438 19.7124 30.4901 19.2566 31.9525 19.6033C32.765 19.8389 33.3334 20.5542 33.3334 21.3752C33.3334 21.5046 33.3151 21.6419 33.278 21.7945C33.2279 22.0038 33.2949 22.2229 33.4571 22.3749L34.862 23.6921C34.9922 23.8141 35.1628 23.8752 35.3334 23.8752C35.5039 23.8752 35.6745 23.8141 35.8047 23.6921L39.8047 19.9421C40.0651 19.6979 40.0651 19.3024 39.8047 19.0583L38.3998 17.7411C38.239 17.5892 38.0046 17.5245 37.7806 17.5733C37.6179 17.6081 37.4714 17.6252 37.3334 17.6252C36.2305 17.6252 35.3334 16.7841 35.3334 15.7502C35.3334 15.6159 35.3542 15.4731 35.3998 15.3003C35.4551 15.0904 35.3906 14.8688 35.2292 14.7138L31.5612 11.1976C29.5267 9.2902 26.8483 8.25017 24 8.25017C21.8425 8.25017 20.4154 8.91911 19.0352 9.56608C18.7585 9.69548 18.6133 9.98662 18.6843 10.2686C18.7552 10.5506 19.0241 10.7502 19.3334 10.7502C22.3906 10.7502 23.5358 11.8238 24.862 13.0671C25.8431 13.9869 25.0065 16.4228 24.1953 17.1833L23.0001 18.3038L16 11.7412V10.8501C16 10.1793 15.614 9.55556 14.9922 9.2223L10.9974 7.08241C10.8926 7.02572 10.7772 6.99933 10.6628 7.00001C10.4916 7.00093 10.3226 7.06341 10.1953 7.18312L8.19534 9.05812C7.98244 9.25709 7.93882 9.56532 8.08791 9.81007L10.3705 13.5552C10.7259 14.1381 11.392 14.5 12.1074 14.5H13.0573L19.7056 20.7328L18.8457 21.2366C17.0957 22.262 15.5801 23.5669 14.3412 25.1148C12.9219 26.8897 11.2038 28.4131 9.23505 29.6436C8.46161 30.1276 8.00002 30.9363 8.00002 31.8073C8.00002 32.5019 8.28843 33.1543 8.81252 33.6457L10.2448 34.9884C10.7689 35.4798 11.4649 35.7502 12.2058 35.7502C13.1348 35.7502 13.9974 35.3174 14.5137 34.5929C15.8262 32.7466 17.4512 31.1359 19.3438 29.8053C20.888 28.7194 22.1945 27.3986 23.2533 25.8916C23.691 26.0968 24 26.5109 24 27C24 27.1056 23.9792 27.2185 23.9349 27.3558C23.8633 27.5762 23.9278 27.8161 24.1016 27.979L32.586 35.9331C33.3093 36.6112 34.3106 37 35.3334 37C36.3561 37 37.3574 36.6112 38.0808 35.9331L38.862 35.2007C39.5853 34.5226 40 33.5839 40 32.625C40 31.6661 39.5853 30.7274 38.862 30.0493L30.3776 22.0958Z" fill="url(#paint0_linear_921_1901)"/>
</g>
<line x1="24" y1="47" x2="24" y2="63" stroke="#283891" stroke-width="2"/>
<defs>
<linearGradient id="paint0_linear_921_1901" x1="4.79743" y1="15.7998" x2="40.0472" y2="33.3329" gradientUnits="userSpaceOnUse">
<stop stop-color="white" stop-opacity="0.2"/>
<stop offset="1" stop-color="white" stop-opacity="0"/>
</linearGradient>
<clipPath id="clip0_921_1901">
<rect width="32" height="30" fill="white" transform="translate(8 7)"/>
</clipPath>
</defs>
</svg>
