<svg width="47" height="63" viewBox="0 0 47 63" fill="none" xmlns="http://www.w3.org/2000/svg">
<rect width="47" height="47" rx="8.83459" fill="#283891"/>
<path d="M39.0423 38.0417H8.95898V8.75C8.95898 8.12011 9.20921 7.51602 9.65461 7.07062C10.1 6.62522 10.7041 6.375 11.334 6.375H36.6673C37.2972 6.375 37.9013 6.62522 38.3467 7.07062C38.7921 7.51602 39.0423 8.12011 39.0423 8.75V38.0417Z" fill="url(#paint0_linear_1270_2305)"/>
<path d="M35.875 9.54175H12.125V33.2917H35.875V9.54175Z" fill="url(#paint1_linear_1270_2305)"/>
<path d="M39.0417 39.6249H8.95833C8.53841 39.6249 8.13568 39.4581 7.83875 39.1612C7.54181 38.8642 7.375 38.4615 7.375 38.0416C7.375 37.6217 7.54181 37.2189 7.83875 36.922C8.13568 36.6251 8.53841 36.4583 8.95833 36.4583H39.0417C39.4616 36.4583 39.8643 36.6251 40.1613 36.922C40.4582 37.2189 40.625 37.6217 40.625 38.0416C40.625 38.4615 40.4582 38.8642 40.1613 39.1612C39.8643 39.4581 39.4616 39.6249 39.0417 39.6249Z" fill="url(#paint2_linear_1270_2305)"/>
<path d="M35.8752 8.69385H12.1252C12.0138 8.69374 11.9035 8.7156 11.8006 8.75818C11.6977 8.80075 11.6042 8.8632 11.5254 8.94195C11.4467 9.02071 11.3842 9.11422 11.3417 9.21713C11.2991 9.32005 11.2772 9.43035 11.2773 9.54172V33.2917C11.2772 33.4031 11.2991 33.5134 11.3417 33.6163C11.3842 33.7192 11.4467 33.8127 11.5254 33.8915C11.6042 33.9702 11.6977 34.0327 11.8006 34.0753C11.9035 34.1178 12.0138 34.1397 12.1252 34.1396H35.8752C35.9866 34.1397 36.0969 34.1178 36.1998 34.0753C36.3027 34.0327 36.3962 33.9702 36.475 33.8915C36.5537 33.8127 36.6162 33.7192 36.6588 33.6163C36.7013 33.5134 36.7232 33.4031 36.7231 33.2917V9.54172C36.7232 9.43035 36.7013 9.32005 36.6588 9.21713C36.6162 9.11422 36.5537 9.02071 36.475 8.94195C36.3962 8.8632 36.3027 8.80075 36.1998 8.75818C36.0969 8.7156 35.9866 8.69374 35.8752 8.69385ZM35.0273 20.595H24.822V10.3896H35.0273V20.595ZM23.1785 10.3896V20.595H12.9731V10.3896H23.1785ZM12.9731 22.2385H23.1785V32.4438H12.9731V22.2385ZM24.822 32.4438V22.2385H35.0273V32.4438H24.822Z" fill="url(#paint3_linear_1270_2305)"/>
<path opacity="0.35" d="M16.0825 15.875C15.926 15.8749 15.7729 15.8285 15.6428 15.7415C15.5126 15.6545 15.4112 15.5309 15.3513 15.3862C15.2914 15.2416 15.2757 15.0824 15.3062 14.9289C15.3368 14.7753 15.4121 14.6343 15.5228 14.5236L17.1061 12.9402C17.2554 12.796 17.4554 12.7162 17.663 12.718C17.8706 12.7199 18.0691 12.8031 18.2159 12.9499C18.3627 13.0967 18.446 13.2952 18.4478 13.5028C18.4496 13.7104 18.3698 13.9104 18.2256 14.0597L16.6422 15.643C16.4938 15.7915 16.2925 15.8749 16.0825 15.875Z" fill="url(#paint4_linear_1270_2305)"/>
<path opacity="0.35" d="M30.3325 30.125C30.176 30.1249 30.0229 30.0785 29.8928 29.9915C29.7626 29.9045 29.6612 29.7809 29.6013 29.6362C29.5414 29.4916 29.5257 29.3324 29.5562 29.1789C29.5868 29.0253 29.6621 28.8843 29.7728 28.7736L31.3561 27.1902C31.5054 27.046 31.7054 26.9662 31.913 26.968C32.1206 26.9699 32.3191 27.0531 32.4659 27.1999C32.6127 27.3467 32.696 27.5452 32.6978 27.7528C32.6996 27.9604 32.6198 28.1604 32.4756 28.3097L30.8922 29.893C30.7438 30.0415 30.5425 30.1249 30.3325 30.125Z" fill="url(#paint5_linear_1270_2305)"/>
<path opacity="0.35" d="M16.8755 19.0417C16.7189 19.0417 16.5659 18.9952 16.4357 18.9082C16.3056 18.8212 16.2041 18.6976 16.1442 18.553C16.0843 18.4083 16.0687 18.2492 16.0992 18.0956C16.1297 17.9421 16.2051 17.801 16.3158 17.6903L20.2741 13.732C20.4234 13.5878 20.6234 13.508 20.831 13.5098C21.0385 13.5116 21.2371 13.5949 21.3839 13.7416C21.5307 13.8884 21.6139 14.087 21.6157 14.2946C21.6175 14.5021 21.5377 14.7021 21.3935 14.8514L17.4352 18.8097C17.2868 18.9582 17.0854 19.0417 16.8755 19.0417Z" fill="url(#paint6_linear_1270_2305)"/>
<path opacity="0.35" d="M27.1665 29.3335C27.0099 29.3334 26.8569 29.287 26.7268 29.2C26.5966 29.113 26.4952 28.9894 26.4353 28.8447C26.3753 28.7001 26.3597 28.5409 26.3902 28.3874C26.4207 28.2338 26.4961 28.0928 26.6068 27.9821L30.5651 24.0237C30.7144 23.8795 30.9144 23.7997 31.122 23.8015C31.3296 23.8033 31.5281 23.8866 31.6749 24.0334C31.8217 24.1802 31.9049 24.3787 31.9067 24.5863C31.9085 24.7939 31.8287 24.9939 31.6845 25.1432L27.7262 29.1015C27.5778 29.25 27.3764 29.3334 27.1665 29.3335Z" fill="url(#paint7_linear_1270_2305)"/>
<line x1="23" y1="47" x2="23" y2="63" stroke="#283891" stroke-width="2"/>
<defs>
<linearGradient id="paint0_linear_1270_2305" x1="24.0007" y1="6.26179" x2="24.0007" y2="36.1622" gradientUnits="userSpaceOnUse">
<stop stop-color="#C2763E"/>
<stop offset="1" stop-color="#8A552E"/>
</linearGradient>
<linearGradient id="paint1_linear_1270_2305" x1="24" y1="10.5875" x2="24" y2="32.3132" gradientUnits="userSpaceOnUse">
<stop stop-color="white"/>
<stop offset="1" stop-color="#F2EBE6"/>
</linearGradient>
<linearGradient id="paint2_linear_1270_2305" x1="24" y1="36.543" x2="24" y2="39.5964" gradientUnits="userSpaceOnUse">
<stop stop-color="#8A552E"/>
<stop offset="1" stop-color="#543426"/>
</linearGradient>
<linearGradient id="paint3_linear_1270_2305" x1="5.00022" y1="8.80626" x2="24.0002" y2="32.9972" gradientUnits="userSpaceOnUse">
<stop stop-color="#8A552E"/>
<stop offset="1" stop-color="#543426"/>
</linearGradient>
<linearGradient id="paint4_linear_1270_2305" x1="16.8742" y1="12.0298" x2="16.8742" y2="29.8423" gradientUnits="userSpaceOnUse">
<stop stop-color="#EDC2A8"/>
<stop offset="1" stop-color="#D69769"/>
</linearGradient>
<linearGradient id="paint5_linear_1270_2305" x1="31.1242" y1="12.0298" x2="31.1242" y2="29.8423" gradientUnits="userSpaceOnUse">
<stop stop-color="#EDC2A8"/>
<stop offset="1" stop-color="#D69769"/>
</linearGradient>
<linearGradient id="paint6_linear_1270_2305" x1="18.8546" y1="12.0299" x2="18.8546" y2="29.8424" gradientUnits="userSpaceOnUse">
<stop stop-color="#EDC2A8"/>
<stop offset="1" stop-color="#D69769"/>
</linearGradient>
<linearGradient id="paint7_linear_1270_2305" x1="29.1457" y1="12.03" x2="29.1457" y2="29.8425" gradientUnits="userSpaceOnUse">
<stop stop-color="#EDC2A8"/>
<stop offset="1" stop-color="#D69769"/>
</linearGradient>
</defs>
</svg>
