<svg width="47" height="63" viewBox="0 0 47 63" fill="none" xmlns="http://www.w3.org/2000/svg">
<rect width="47" height="47" rx="8.83459" fill="#283891"/>
<path d="M32.5625 38.0625H12.3125L6.6875 33V7.6875H32.5625V38.0625Z" fill="#E6E7E8"/>
<path d="M38.1875 20.625H24.6875C24.0662 20.625 23.5625 21.1287 23.5625 21.75V39.1875C23.5625 39.8088 24.0662 40.3125 24.6875 40.3125H38.1875C38.8088 40.3125 39.3125 39.8088 39.3125 39.1875V21.75C39.3125 21.1287 38.8088 20.625 38.1875 20.625Z" fill="#016CA9"/>
<path d="M37.0625 22.875H25.8125V25.6875H37.0625V22.875Z" fill="#BCE8FE"/>
<path d="M28.0625 27.9375H25.8125V30.1875H28.0625V27.9375Z" fill="#BCE8FE"/>
<path d="M28.0625 31.875H25.8125V34.125H28.0625V31.875Z" fill="#BCE8FE"/>
<path d="M28.0625 35.8125H25.8125V38.0625H28.0625V35.8125Z" fill="#BCE8FE"/>
<path d="M32.5625 27.9375H30.3125V30.1875H32.5625V27.9375Z" fill="#BCE8FE"/>
<path d="M32.5625 31.875H30.3125V34.125H32.5625V31.875Z" fill="#BCE8FE"/>
<path d="M32.5625 35.8125H30.3125V38.0625H32.5625V35.8125Z" fill="#BCE8FE"/>
<path d="M37.0625 27.9375H34.8125V30.1875H37.0625V27.9375Z" fill="#BCE8FE"/>
<path d="M37.0625 31.875H34.8125V38.0625H37.0625V31.875Z" fill="#FF6B81"/>
<path d="M35.9375 13.875H37.0625C37.6592 13.875 38.2315 14.1121 38.6535 14.534C39.0754 14.956 39.3125 15.5283 39.3125 16.125C39.3125 16.7217 39.0754 17.294 38.6535 17.716C38.2315 18.1379 37.6592 18.375 37.0625 18.375H35.9375V13.875Z" fill="#BAE1E5"/>
<path d="M15.6875 16.6875V18.375L9.5 16.125L15.6875 13.875V14.4375V16.6875Z" fill="#D77D41"/>
<path d="M35.9375 16.125H15.6875V18.375H35.9375V16.125Z" fill="#415E6F"/>
<path d="M35.9375 13.875H15.6875V16.125H35.9375V13.875Z" fill="#56788B"/>
<path d="M12.3125 33H6.6875L12.3125 38.0625V33Z" fill="#A7A9AC"/>
<path d="M38.1875 20.0625H33.125V18.9375H37.0625C37.8084 18.9375 38.5238 18.6412 39.0512 18.1137C39.5787 17.5863 39.875 16.8709 39.875 16.125C39.875 15.3791 39.5787 14.6637 39.0512 14.1363C38.5238 13.6088 37.8084 13.3125 37.0625 13.3125H33.125V7.6875C33.125 7.53832 33.0657 7.39524 32.9602 7.28975C32.8548 7.18426 32.7117 7.125 32.5625 7.125H6.6875C6.53832 7.125 6.39524 7.18426 6.28975 7.28975C6.18426 7.39524 6.125 7.53832 6.125 7.6875V33C6.12519 33.0785 6.1418 33.1561 6.17377 33.2278C6.20574 33.2995 6.25235 33.3637 6.31062 33.4163L11.9356 38.4788C12.0379 38.5739 12.1728 38.6262 12.3125 38.625H23V39.1875C23.0013 39.6346 23.1796 40.0631 23.4957 40.3793C23.8119 40.6954 24.2404 40.8737 24.6875 40.875H38.1875C38.6346 40.8737 39.0631 40.6954 39.3793 40.3793C39.6954 40.0631 39.8737 39.6346 39.875 39.1875V21.75C39.8737 21.3029 39.6954 20.8744 39.3793 20.5582C39.0631 20.2421 38.6346 20.0638 38.1875 20.0625ZM36.5 14.4375H37.0625C37.5101 14.4375 37.9393 14.6153 38.2557 14.9318C38.5722 15.2482 38.75 15.6774 38.75 16.125C38.75 16.5726 38.5722 17.0018 38.2557 17.3182C37.9393 17.6347 37.5101 17.8125 37.0625 17.8125H36.5V14.4375ZM35.375 17.8125H16.25V16.6875H35.375V17.8125ZM35.375 14.4375V15.5625H16.25V14.4375H35.375ZM11.75 36.7969L8.15563 33.5625H11.75V36.7969ZM23 21.75V37.5H12.875V33C12.875 32.8508 12.8157 32.7077 12.7102 32.6023C12.6048 32.4968 12.4617 32.4375 12.3125 32.4375H7.25V8.25H32V13.3125H15.6875C15.6222 13.3123 15.5575 13.3237 15.4962 13.3463L9.30875 15.5962C9.20016 15.6357 9.10634 15.7076 9.04003 15.8022C8.97373 15.8968 8.93816 16.0095 8.93816 16.125C8.93816 16.2405 8.97373 16.3532 9.04003 16.4478C9.10634 16.5424 9.20016 16.6143 9.30875 16.6538L15.4962 18.9038C15.5575 18.9263 15.6222 18.9377 15.6875 18.9375H32V20.0625H24.6875C24.2404 20.0638 23.8119 20.2421 23.4957 20.5582C23.1796 20.8744 23.0013 21.3029 23 21.75ZM15.125 14.6794V17.5706L11.1481 16.125L15.125 14.6794ZM38.75 39.1875C38.75 39.3367 38.6907 39.4798 38.5852 39.5852C38.4798 39.6907 38.3367 39.75 38.1875 39.75H24.6875C24.5383 39.75 24.3952 39.6907 24.2898 39.5852C24.1843 39.4798 24.125 39.3367 24.125 39.1875V21.75C24.125 21.6008 24.1843 21.4577 24.2898 21.3523C24.3952 21.2468 24.5383 21.1875 24.6875 21.1875H38.1875C38.3367 21.1875 38.4798 21.2468 38.5852 21.3523C38.6907 21.4577 38.75 21.6008 38.75 21.75V39.1875Z" fill="black"/>
<path d="M37.0625 22.3125H25.8125C25.6633 22.3125 25.5202 22.3718 25.4148 22.4773C25.3093 22.5827 25.25 22.7258 25.25 22.875V25.6875C25.25 25.8367 25.3093 25.9798 25.4148 26.0852C25.5202 26.1907 25.6633 26.25 25.8125 26.25H37.0625C37.2117 26.25 37.3548 26.1907 37.4602 26.0852C37.5657 25.9798 37.625 25.8367 37.625 25.6875V22.875C37.625 22.7258 37.5657 22.5827 37.4602 22.4773C37.3548 22.3718 37.2117 22.3125 37.0625 22.3125ZM36.5 25.125H26.375V23.4375H36.5V25.125Z" fill="black"/>
<path d="M28.0625 27.375H25.8125C25.6633 27.375 25.5202 27.4343 25.4148 27.5398C25.3093 27.6452 25.25 27.7883 25.25 27.9375V30.1875C25.25 30.3367 25.3093 30.4798 25.4148 30.5852C25.5202 30.6907 25.6633 30.75 25.8125 30.75H28.0625C28.2117 30.75 28.3548 30.6907 28.4602 30.5852C28.5657 30.4798 28.625 30.3367 28.625 30.1875V27.9375C28.625 27.7883 28.5657 27.6452 28.4602 27.5398C28.3548 27.4343 28.2117 27.375 28.0625 27.375ZM27.5 29.625H26.375V28.5H27.5V29.625Z" fill="black"/>
<path d="M28.0625 31.3125H25.8125C25.6633 31.3125 25.5202 31.3718 25.4148 31.4773C25.3093 31.5827 25.25 31.7258 25.25 31.875V34.125C25.25 34.2742 25.3093 34.4173 25.4148 34.5227C25.5202 34.6282 25.6633 34.6875 25.8125 34.6875H28.0625C28.2117 34.6875 28.3548 34.6282 28.4602 34.5227C28.5657 34.4173 28.625 34.2742 28.625 34.125V31.875C28.625 31.7258 28.5657 31.5827 28.4602 31.4773C28.3548 31.3718 28.2117 31.3125 28.0625 31.3125ZM27.5 33.5625H26.375V32.4375H27.5V33.5625Z" fill="black"/>
<path d="M28.0625 35.25H25.8125C25.6633 35.25 25.5202 35.3093 25.4148 35.4148C25.3093 35.5202 25.25 35.6633 25.25 35.8125V38.0625C25.25 38.2117 25.3093 38.3548 25.4148 38.4602C25.5202 38.5657 25.6633 38.625 25.8125 38.625H28.0625C28.2117 38.625 28.3548 38.5657 28.4602 38.4602C28.5657 38.3548 28.625 38.2117 28.625 38.0625V35.8125C28.625 35.6633 28.5657 35.5202 28.4602 35.4148C28.3548 35.3093 28.2117 35.25 28.0625 35.25ZM27.5 37.5H26.375V36.375H27.5V37.5Z" fill="black"/>
<path d="M32.5625 27.375H30.3125C30.1633 27.375 30.0202 27.4343 29.9148 27.5398C29.8093 27.6452 29.75 27.7883 29.75 27.9375V30.1875C29.75 30.3367 29.8093 30.4798 29.9148 30.5852C30.0202 30.6907 30.1633 30.75 30.3125 30.75H32.5625C32.7117 30.75 32.8548 30.6907 32.9602 30.5852C33.0657 30.4798 33.125 30.3367 33.125 30.1875V27.9375C33.125 27.7883 33.0657 27.6452 32.9602 27.5398C32.8548 27.4343 32.7117 27.375 32.5625 27.375ZM32 29.625H30.875V28.5H32V29.625Z" fill="black"/>
<path d="M32.5625 31.3125H30.3125C30.1633 31.3125 30.0202 31.3718 29.9148 31.4773C29.8093 31.5827 29.75 31.7258 29.75 31.875V34.125C29.75 34.2742 29.8093 34.4173 29.9148 34.5227C30.0202 34.6282 30.1633 34.6875 30.3125 34.6875H32.5625C32.7117 34.6875 32.8548 34.6282 32.9602 34.5227C33.0657 34.4173 33.125 34.2742 33.125 34.125V31.875C33.125 31.7258 33.0657 31.5827 32.9602 31.4773C32.8548 31.3718 32.7117 31.3125 32.5625 31.3125ZM32 33.5625H30.875V32.4375H32V33.5625Z" fill="black"/>
<path d="M32.5625 35.25H30.3125C30.1633 35.25 30.0202 35.3093 29.9148 35.4148C29.8093 35.5202 29.75 35.6633 29.75 35.8125V38.0625C29.75 38.2117 29.8093 38.3548 29.9148 38.4602C30.0202 38.5657 30.1633 38.625 30.3125 38.625H32.5625C32.7117 38.625 32.8548 38.5657 32.9602 38.4602C33.0657 38.3548 33.125 38.2117 33.125 38.0625V35.8125C33.125 35.6633 33.0657 35.5202 32.9602 35.4148C32.8548 35.3093 32.7117 35.25 32.5625 35.25ZM32 37.5H30.875V36.375H32V37.5Z" fill="black"/>
<path d="M37.0625 27.375H34.8125C34.6633 27.375 34.5202 27.4343 34.4148 27.5398C34.3093 27.6452 34.25 27.7883 34.25 27.9375V30.1875C34.25 30.3367 34.3093 30.4798 34.4148 30.5852C34.5202 30.6907 34.6633 30.75 34.8125 30.75H37.0625C37.2117 30.75 37.3548 30.6907 37.4602 30.5852C37.5657 30.4798 37.625 30.3367 37.625 30.1875V27.9375C37.625 27.7883 37.5657 27.6452 37.4602 27.5398C37.3548 27.4343 37.2117 27.375 37.0625 27.375ZM36.5 29.625H35.375V28.5H36.5V29.625Z" fill="black"/>
<path d="M37.0625 31.3125H34.8125C34.6633 31.3125 34.5202 31.3718 34.4148 31.4773C34.3093 31.5827 34.25 31.7258 34.25 31.875V38.0625C34.25 38.2117 34.3093 38.3548 34.4148 38.4602C34.5202 38.5657 34.6633 38.625 34.8125 38.625H37.0625C37.2117 38.625 37.3548 38.5657 37.4602 38.4602C37.5657 38.3548 37.625 38.2117 37.625 38.0625V31.875C37.625 31.7258 37.5657 31.5827 37.4602 31.4773C37.3548 31.3718 37.2117 31.3125 37.0625 31.3125ZM36.5 37.5H35.375V32.4375H36.5V37.5Z" fill="black"/>
<line x1="24" y1="47" x2="24" y2="63" stroke="#283891" stroke-width="2"/>
</svg>
