<svg width="47" height="63" viewBox="0 0 47 63" fill="none" xmlns="http://www.w3.org/2000/svg">
<rect width="47" height="47" rx="8.83459" fill="#283891"/>
<line x1="24" y1="47" x2="24" y2="63" stroke="#283891" stroke-width="2"/>
<path d="M37.3548 18.8542H9.64648V32.7084H37.3548V18.8542Z" fill="#CFD8DC"/>
<path d="M37.3548 32.7083H9.64648V35.6249H37.3548V32.7083Z" fill="#B0BEC5"/>
<path d="M34.4375 22.5H25.6875V35.625H34.4375V22.5Z" fill="#455A64"/>
<path d="M22.7708 22.5H12.5625V30.5208H22.7708V22.5Z" fill="#E3F2FD"/>
<path d="M22.041 23.2292H13.291V29.7917H22.041V23.2292Z" fill="#1E88E5"/>
<path d="M32.6146 29.427C32.3958 29.427 32.25 29.5728 32.25 29.7916V31.2499C32.25 31.4687 32.3958 31.6145 32.6146 31.6145C32.8333 31.6145 32.9792 31.4687 32.9792 31.2499V29.7916C32.9792 29.5728 32.8333 29.427 32.6146 29.427Z" fill="#90A4AE"/>
<path d="M23.5 21.0417C24.7081 21.0417 25.6875 20.0624 25.6875 18.8542C25.6875 17.6461 24.7081 16.6667 23.5 16.6667C22.2919 16.6667 21.3125 17.6461 21.3125 18.8542C21.3125 20.0624 22.2919 21.0417 23.5 21.0417Z" fill="#558B2F"/>
<path d="M32.25 21.0417C33.4581 21.0417 34.4375 20.0624 34.4375 18.8542C34.4375 17.6461 33.4581 16.6667 32.25 16.6667C31.0419 16.6667 30.0625 17.6461 30.0625 18.8542C30.0625 20.0624 31.0419 21.0417 32.25 21.0417Z" fill="#558B2F"/>
<path d="M14.75 21.0417C15.9581 21.0417 16.9375 20.0624 16.9375 18.8542C16.9375 17.6461 15.9581 16.6667 14.75 16.6667C13.5419 16.6667 12.5625 17.6461 12.5625 18.8542C12.5625 20.0624 13.5419 21.0417 14.75 21.0417Z" fill="#558B2F"/>
<path d="M35.1667 9.375H11.8333C11.0313 9.375 10.375 10.0312 10.375 10.8333V13.0208H36.625V10.8333C36.625 10.0312 35.9688 9.375 35.1667 9.375Z" fill="#7CB342"/>
<path d="M25.6875 13.0208H21.3125V18.8541H25.6875V13.0208Z" fill="#7CB342"/>
<path d="M32.9798 13.0208H29.334L30.0632 18.8541H34.4382L32.9798 13.0208Z" fill="#7CB342"/>
<path d="M14.0208 13.0208H17.6667L16.9375 18.8541H12.5625L14.0208 13.0208Z" fill="#7CB342"/>
<path d="M27.875 21.0417C29.0831 21.0417 30.0625 20.0624 30.0625 18.8542C30.0625 17.6461 29.0831 16.6667 27.875 16.6667C26.6669 16.6667 25.6875 17.6461 25.6875 18.8542C25.6875 20.0624 26.6669 21.0417 27.875 21.0417Z" fill="#FFA000"/>
<path d="M38.8125 18.8542C38.8125 20.0938 37.8646 21.0417 36.625 21.0417C35.3854 21.0417 34.4375 20.0938 34.4375 18.8542C34.4375 17.6147 35.3854 16.6667 36.625 16.6667L38.8125 18.8542Z" fill="#FFA000"/>
<path d="M19.125 21.0417C20.3331 21.0417 21.3125 20.0624 21.3125 18.8542C21.3125 17.6461 20.3331 16.6667 19.125 16.6667C17.9169 16.6667 16.9375 17.6461 16.9375 18.8542C16.9375 20.0624 17.9169 21.0417 19.125 21.0417Z" fill="#FFA000"/>
<path d="M8.1875 18.8542C8.1875 20.0938 9.13542 21.0417 10.375 21.0417C11.6146 21.0417 12.5625 20.0938 12.5625 18.8542C12.5625 17.6147 11.6146 16.6667 10.375 16.6667L8.1875 18.8542Z" fill="#FFA000"/>
<path d="M29.3333 13.0208H25.6875V18.8541H30.0625L29.3333 13.0208Z" fill="#FFC107"/>
<path d="M36.6243 13.0208H32.9785L34.4368 18.8541H38.8118L36.6243 13.0208Z" fill="#FFC107"/>
<path d="M17.6667 13.0208H21.3125V18.8541H16.9375L17.6667 13.0208Z" fill="#FFC107"/>
<path d="M10.375 13.0208H14.0208L12.5625 18.8541H8.1875L10.375 13.0208Z" fill="#FFC107"/>
</svg>
