<svg width="36" height="36" viewBox="0 0 36 36" fill="none" xmlns="http://www.w3.org/2000/svg">
<rect width="36" height="36" rx="4.90909" fill="#FFA033"/>
<path d="M21.8752 8.21875H26.0938C26.3175 8.21875 26.5321 8.30764 26.6904 8.46588C26.8486 8.62411 26.9375 8.83872 26.9375 9.0625V26.7812C26.9375 27.005 26.8486 27.2196 26.6904 27.3779C26.5321 27.5361 26.3175 27.625 26.0938 27.625H10.9062C10.6825 27.625 10.4679 27.5361 10.3096 27.3779C10.1514 27.2196 10.0625 27.005 10.0625 26.7812V9.0625C10.0625 8.83872 10.1514 8.62411 10.3096 8.46588C10.4679 8.30764 10.6825 8.21875 10.9062 8.21875H15.1248" stroke="white" stroke-width="2" stroke-linecap="round" stroke-linejoin="round"/>
<path d="M14.2812 11.5938V10.75C14.2813 9.63112 14.7257 8.55806 15.5169 7.76689C16.3081 6.97572 17.3811 6.53125 18.5 6.53125C19.6189 6.53125 20.6919 6.97572 21.4831 7.76689C22.2743 8.55806 22.7188 9.63112 22.7188 10.75V11.5938H14.2812Z" stroke="white" stroke-width="2" stroke-linecap="round" stroke-linejoin="round"/>
<mask id="mask0_57_9520" style="mask-type:alpha" maskUnits="userSpaceOnUse" x="12" y="14" width="13" height="12">
<path d="M25 16.7857L24.0714 14H21.75L18.0357 17.7143L15.7143 15.3929L12 17.7143L13.8571 22.8214L18.5 25.6071L21.2857 23.2857L25 16.7857Z" fill="#D9D9D9"/>
</mask>
<g mask="url(#mask0_57_9520)">
<path d="M22.4435 16.1293C22.8061 15.7667 23.394 15.7667 23.7567 16.1293C24.1193 16.4919 24.1193 17.0799 23.7567 17.4425L18.4127 22.7855C17.6874 23.5106 16.5116 23.5106 15.7864 22.7854L14.1307 21.1297C13.7681 20.767 13.7681 20.1791 14.1307 19.8165C14.4933 19.4538 15.0813 19.4538 15.4439 19.8165L16.4435 20.8161C16.8061 21.1787 17.3941 21.1787 17.7567 20.8161L22.4435 16.1293Z" fill="white"/>
<path fill-rule="evenodd" clip-rule="evenodd" d="M18.5016 9.35913C17.5979 9.35913 16.925 9.72369 16.3531 10.0335C16.22 10.1057 16.0923 10.1749 15.9684 10.2358C15.2488 10.5898 14.1583 11.0103 11.9416 11.1601C10.4865 11.2584 9.1919 12.4429 9.24993 14.0353C9.34537 16.6545 9.64921 19.3342 10.2603 21.5924C10.8582 23.802 11.805 25.8184 13.3436 26.8442C14.8151 27.8252 16.0254 28.6755 16.8351 29.256C17.8293 29.9687 19.1739 29.9687 20.1681 29.256C20.9778 28.6755 22.1881 27.8252 23.6595 26.8442C25.1982 25.8184 26.145 23.8021 26.7429 21.5925C27.354 19.3343 27.6578 16.6546 27.7532 14.0353C27.8113 12.4429 26.5167 11.2584 25.0616 11.1601C22.8449 11.0103 21.7544 10.5898 21.0347 10.2358C20.9109 10.1749 20.7832 10.1057 20.6501 10.0336C20.0782 9.72372 19.4053 9.35913 18.5016 9.35913ZM12.0668 13.013C14.5113 12.8478 15.8394 12.3689 16.7882 11.9022C17.0592 11.7689 17.2688 11.6578 17.4409 11.5666C17.9117 11.317 18.1018 11.2163 18.5016 11.2163C18.9014 11.2163 19.0915 11.317 19.5623 11.5666C19.7344 11.6578 19.944 11.7689 20.215 11.9022C21.1637 12.3689 22.4919 12.8478 24.9364 13.013C25.5279 13.053 25.914 13.51 25.8973 13.9677C25.8048 16.5079 25.5111 19.0347 24.9502 21.1074C24.3762 23.2286 23.5765 24.6675 22.6294 25.299C21.1373 26.2937 19.9095 27.1563 19.0861 27.7466C18.7387 27.9956 18.2645 27.9956 17.9171 27.7466C17.0936 27.1563 15.8659 26.2937 14.3738 25.299C13.4266 24.6675 12.627 23.2286 12.0529 21.1073C11.4921 19.0346 11.1984 16.5079 11.1058 13.9677C11.0892 13.51 11.4752 13.053 12.0668 13.013Z" fill="white"/>
</g>
</svg>
