<svg width="36" height="36" viewBox="0 0 36 36" fill="none" xmlns="http://www.w3.org/2000/svg">
<rect width="36" height="36" rx="4.90909" fill="#58A6FB"/>
<path fill-rule="evenodd" clip-rule="evenodd" d="M9.13861 14.5856C9.10395 14.7935 9.07799 14.9844 9.05852 15.1541C8.89911 15.2031 8.72733 15.2683 8.55279 15.3556C8.18416 15.5399 7.78511 15.8321 7.48045 16.2891C7.17162 16.7523 7 17.325 7 18C7 18.675 7.17162 19.2477 7.48045 19.7109C7.78511 20.1679 8.18416 20.4601 8.55279 20.6444C8.72733 20.7317 8.89911 20.7969 9.05852 20.8459C9.07798 21.0156 9.10395 21.2065 9.13861 21.4144C9.27452 22.2299 9.54822 23.3325 10.1056 24.4472C10.6649 25.5658 11.5196 26.7149 12.8203 27.5821C14.1273 28.4534 15.825 29 18 29C20.175 29 21.8727 28.4534 23.1797 27.5821C24.4804 26.7149 25.3351 25.5658 25.8944 24.4472C26.4518 23.3325 26.7255 22.2299 26.8614 21.4144C26.896 21.2065 26.922 21.0156 26.9415 20.8459C27.1009 20.7969 27.2727 20.7317 27.4472 20.6444C27.8158 20.4601 28.2149 20.1679 28.5196 19.7109C28.8284 19.2477 29 18.675 29 18C29 17.325 28.8284 16.7523 28.5196 16.2891C28.2149 15.8321 27.8158 15.5399 27.4472 15.3556C27.2727 15.2683 27.1009 15.2031 26.9415 15.1541C26.922 14.9844 26.896 14.7935 26.8614 14.5856C26.7255 13.7701 26.4518 12.6675 25.8944 11.5528C25.3351 10.4342 24.4804 9.28511 23.1797 8.41795C21.8727 7.54662 20.175 7 18 7C15.825 7 14.1273 7.54662 12.8203 8.41795C11.5196 9.28511 10.6649 10.4342 10.1056 11.5528C9.54822 12.6675 9.27452 13.7701 9.13861 14.5856ZM24.9025 21H11.0975C11.2064 21.692 11.4331 22.63 11.8944 23.5528C12.3351 24.4342 12.9804 25.2851 13.9297 25.9179C14.8727 26.5466 16.175 27 18 27C19.825 27 21.1273 26.5466 22.0703 25.9179C23.0196 25.2851 23.6649 24.4342 24.1056 23.5528C24.5669 22.63 24.7936 21.692 24.9025 21ZM24.9025 15H24C23.4477 15 23 15.4477 23 16C23 16.5523 23.4477 17 24 17H26C26.3084 17.012 26.6759 17.1291 26.8554 17.3984C26.9216 17.4977 27 17.675 27 18C27 18.325 26.9216 18.5023 26.8554 18.6016C26.6759 18.8709 26.3084 18.988 26 19H10C9.69155 18.988 9.32414 18.8709 9.14455 18.6016C9.07838 18.5023 9 18.325 9 18C9 17.675 9.07838 17.4977 9.14455 17.3984C9.32414 17.1291 9.69155 17.012 10 17H12C12.5523 17 13 16.5523 13 16C13 15.4477 12.5523 15 12 15H11.0975C11.2064 14.308 11.4331 13.37 11.8944 12.4472C12.3351 11.5658 12.9804 10.7149 13.9297 10.0821C14.2444 9.87224 14.5992 9.68195 15 9.52152V12C15 12.5523 15.4477 13 16 13C16.5523 13 17 12.5523 17 12V9.04872C17.3146 9.01691 17.6476 9 18 9C18.3524 9 18.6854 9.01691 19 9.04872V12C19 12.5523 19.4477 13 20 13C20.5523 13 21 12.5523 21 12V9.52152C21.4008 9.68195 21.7556 9.87224 22.0703 10.0821C23.0196 10.7149 23.6649 11.5658 24.1056 12.4472C24.5669 13.37 24.7936 14.308 24.9025 15Z" fill="white"/>
</svg>
