<svg width="36" height="36" viewBox="0 0 36 36" fill="none" xmlns="http://www.w3.org/2000/svg">
<rect width="36" height="36" rx="4.90909" fill="#EA6A6A"/>
<path d="M14.5 17C15.3284 17 16 16.3284 16 15.5C16 14.6716 15.3284 14 14.5 14C13.6716 14 13 14.6716 13 15.5C13 16.3284 13.6716 17 14.5 17Z" fill="white"/>
<path d="M23 15.5C23 16.3284 22.3284 17 21.5 17C20.6716 17 20 16.3284 20 15.5C20 14.6716 20.6716 14 21.5 14C22.3284 14 23 14.6716 23 15.5Z" fill="white"/>
<path d="M21.1091 22.4588C21.3597 22.9443 21.9548 23.1395 22.4449 22.8944C22.9388 22.6474 23.1391 22.0468 22.8921 21.5528C22.8096 21.3884 22.7046 21.2343 22.5945 21.0875C22.4117 20.8438 22.1358 20.5299 21.7473 20.2191C20.9578 19.5875 19.7406 19 17.9977 19C16.2547 19 15.0375 19.5875 14.248 20.2191C13.8595 20.5299 13.5836 20.8438 13.4008 21.0875C13.2903 21.2348 13.1898 21.3889 13.1038 21.5517C12.8591 22.0392 13.0626 22.6505 13.5504 22.8944C14.0405 23.1395 14.6357 22.9443 14.8862 22.4588C14.9 22.4339 15.0882 22.1082 15.4973 21.7809C15.9578 21.4125 16.7406 21 17.9977 21C19.2547 21 20.0375 21.4125 20.498 21.7809C20.9072 22.1082 21.0953 22.4339 21.1091 22.4588Z" fill="white"/>
<path fill-rule="evenodd" clip-rule="evenodd" d="M18 29C24.0751 29 29 24.0751 29 18C29 11.9249 24.0751 7 18 7C11.9249 7 7 11.9249 7 18C7 24.0751 11.9249 29 18 29ZM18 26.9932C13.0332 26.9932 9.00683 22.9668 9.00683 18C9.00683 13.0332 13.0332 9.00683 18 9.00683C22.9668 9.00683 26.9932 13.0332 26.9932 18C26.9932 22.9668 22.9668 26.9932 18 26.9932Z" fill="white"/>
</svg>
