<svg width="36" height="36" viewBox="0 0 36 36" fill="none" xmlns="http://www.w3.org/2000/svg">
<rect width="36" height="36" rx="4.90909" fill="#3FAD46"/>
<path d="M21.9047 14.3814C22.2952 13.9909 22.9284 13.9909 23.3189 14.3814C23.7094 14.7719 23.7094 15.4051 23.3189 15.7956L18.0541 21.0592C17.079 22.0341 15.4985 22.0354 14.5218 21.062L12.7071 19.2535C12.3166 18.863 12.3166 18.2298 12.7071 17.8393C13.0976 17.4488 13.7308 17.4488 14.1213 17.8393L15.577 19.2949C15.9675 19.6855 16.6007 19.6855 16.9912 19.2949L21.9047 14.3814Z" fill="white"/>
<path fill-rule="evenodd" clip-rule="evenodd" d="M18 29C24.0751 29 29 24.0751 29 18C29 11.9249 24.0751 7 18 7C11.9249 7 7 11.9249 7 18C7 24.0751 11.9249 29 18 29ZM18 26.9932C13.0332 26.9932 9.00683 22.9668 9.00683 18C9.00683 13.0332 13.0332 9.00683 18 9.00683C22.9668 9.00683 26.9932 13.0332 26.9932 18C26.9932 22.9668 22.9668 26.9932 18 26.9932Z" fill="white"/>
</svg>
