<svg width="16" height="16" viewBox="0 0 16 16" fill="none" xmlns="http://www.w3.org/2000/svg">
<g opacity="0.3">
<path d="M14.4582 7.54329C14.4582 11.3621 11.3624 14.4579 7.54354 14.4579C3.72469 14.4579 0.628906 11.3621 0.628906 7.54329C0.628906 3.72445 3.72469 0.628662 7.54354 0.628662C11.3624 0.628662 14.4582 3.72445 14.4582 7.54329ZM1.89041 7.54329C1.89041 10.6654 4.4214 13.1964 7.54354 13.1964C10.6657 13.1964 13.1967 10.6654 13.1967 7.54329C13.1967 4.42116 10.6657 1.89016 7.54354 1.89016C4.4214 1.89016 1.89041 4.42116 1.89041 7.54329Z" fill="#0F0F0F"/>
<path d="M7.54354 3.14307C7.19637 3.14307 6.91494 3.42451 6.91494 3.77168V7.83664C6.91494 7.83664 6.91494 8.00053 6.9946 8.12383C7.04788 8.22837 7.13099 8.31921 7.24017 8.38224L10.1442 10.0589C10.4448 10.2325 10.8293 10.1294 11.0029 9.82879C11.1764 9.52813 11.0734 9.14369 10.7728 8.9701L8.17214 7.46862V3.77168C8.17214 3.42451 7.89071 3.14307 7.54354 3.14307Z" fill="#0F0F0F"/>
</g>
</svg>
