<svg width="20" height="20" viewBox="0 0 20 20" fill="none" xmlns="http://www.w3.org/2000/svg">
<path fill-rule="evenodd" clip-rule="evenodd" d="M15.8921 15.8915C13.3454 18.4386 9.57416 18.9889 6.48803 17.5617C6.03244 17.3782 5.65892 17.23 5.30383 17.23C4.31476 17.2359 3.08365 18.1949 2.44382 17.5558C1.80398 16.9159 2.76373 15.6838 2.76373 14.6888C2.76373 14.3336 2.62136 13.9668 2.43795 13.5103C1.01004 10.4247 1.56111 6.65223 4.1079 4.106C7.35901 0.853683 12.641 0.853683 15.8921 4.10516C19.1491 7.3625 19.1433 12.6401 15.8921 15.8915Z" stroke="#6C757D" stroke-opacity="0.6" stroke-width="1.5" stroke-linecap="round" stroke-linejoin="round"/>
<path d="M13.2821 10.3442H13.2896" stroke="#6C757D" stroke-opacity="0.6" stroke-width="2" stroke-linecap="round" stroke-linejoin="round"/>
<path d="M9.94221 10.3442H9.94971" stroke="#6C757D" stroke-opacity="0.6" stroke-width="2" stroke-linecap="round" stroke-linejoin="round"/>
<path d="M6.60042 10.3442H6.60792" stroke="#6C757D" stroke-opacity="0.6" stroke-width="2" stroke-linecap="round" stroke-linejoin="round"/>
</svg>
