<svg width="20" height="20" viewBox="0 0 20 20" fill="none" xmlns="http://www.w3.org/2000/svg">
<mask id="path-1-inside-1_56_1027" fill="white">
<path fill-rule="evenodd" clip-rule="evenodd" d="M7.63166 17.3095V14.7539C7.63165 14.1039 8.16158 13.5757 8.81816 13.5713H11.2232C11.8829 13.5713 12.4177 14.1008 12.4177 14.7539V17.3175C12.4176 17.8694 12.8625 18.3204 13.4198 18.3334H15.0232C16.6216 18.3334 17.9173 17.0506 17.9173 15.4682V8.19822C17.9088 7.57571 17.6135 6.99114 17.1156 6.61088L11.6321 2.23777C10.6714 1.47633 9.30582 1.47633 8.34517 2.23777L2.88567 6.61882C2.38587 6.99754 2.09014 7.58308 2.08398 8.20615V15.4682C2.08398 17.0506 3.37971 18.3334 4.97808 18.3334H6.58145C7.15261 18.3334 7.61563 17.875 7.61563 17.3095"/>
</mask>
<path d="M6.13166 17.3095C6.13166 18.1379 6.80324 18.8095 7.63166 18.8095C8.46009 18.8095 9.13166 18.1379 9.13166 17.3095H6.13166ZM7.63166 14.7539H9.13166V14.7539L7.63166 14.7539ZM8.81816 13.5713V12.0713L8.8082 12.0714L8.81816 13.5713ZM12.4177 17.3175L13.9177 17.3179V17.3175H12.4177ZM13.4198 18.3334L13.385 19.8329C13.3966 19.8332 13.4082 19.8334 13.4198 19.8334V18.3334ZM15.0232 18.3334V16.8334V18.3334ZM17.9173 8.19822H19.4173C19.4173 8.19136 19.4173 8.18451 19.4172 8.17765L17.9173 8.19822ZM17.1156 6.61088L16.1804 7.78361C16.1886 7.79016 16.1969 7.79662 16.2052 7.80299L17.1156 6.61088ZM11.6321 2.23777L12.5673 1.06503L12.5638 1.06225L11.6321 2.23777ZM8.34517 2.23777L7.4134 1.06223L7.40637 1.06788L8.34517 2.23777ZM2.88567 6.61882L3.79158 7.81436C3.80266 7.80597 3.81363 7.79741 3.82447 7.78871L2.88567 6.61882ZM2.08398 8.20615L0.584058 8.19133C0.584009 8.19627 0.583984 8.20121 0.583984 8.20615H2.08398ZM9.13166 17.3095V14.7539H6.13166V17.3095H9.13166ZM9.13166 14.7539C9.13167 14.9424 8.98197 15.0703 8.82813 15.0713L8.8082 12.0714C7.3412 12.0811 6.13163 13.2653 6.13166 14.7539L9.13166 14.7539ZM8.81816 15.0713H11.2232V12.0713H8.81816V15.0713ZM11.2232 15.0713C11.0688 15.0713 10.9177 14.9434 10.9177 14.7539H13.9177C13.9177 13.2582 12.6971 12.0713 11.2232 12.0713V15.0713ZM10.9177 14.7539V17.3175H13.9177V14.7539H10.9177ZM10.9177 17.317C10.9174 18.6977 12.0267 19.8014 13.385 19.8329L13.4547 16.8338C13.6984 16.8394 13.9178 17.041 13.9177 17.3179L10.9177 17.317ZM13.4198 19.8334H15.0232V16.8334H13.4198V19.8334ZM15.0232 19.8334C17.4358 19.8334 19.4173 17.8932 19.4173 15.4682H16.4173C16.4173 16.208 15.8074 16.8334 15.0232 16.8334V19.8334ZM19.4173 15.4682V8.19822H16.4173V15.4682H19.4173ZM19.4172 8.17765C19.4023 7.09146 18.8871 6.07634 18.0261 5.41877L16.2052 7.80299C16.34 7.90594 16.4153 8.05996 16.4175 8.21878L19.4172 8.17765ZM18.0509 5.43815L12.5673 1.06504L10.6968 3.41051L16.1804 7.78361L18.0509 5.43815ZM12.5638 1.06225C11.0573 -0.131835 8.9199 -0.131835 7.41341 1.06225L9.27692 3.41329C9.69174 3.08449 10.2855 3.08449 10.7003 3.41329L12.5638 1.06225ZM7.40637 1.06788L1.94687 5.44892L3.82447 7.78871L9.28396 3.40767L7.40637 1.06788ZM1.97976 5.42327C1.11265 6.08031 0.594834 7.10048 0.584058 8.19133L3.58391 8.22097C3.58545 8.06567 3.65908 7.91476 3.79158 7.81436L1.97976 5.42327ZM0.583984 8.20615V15.4682H3.58398V8.20615H0.583984ZM0.583984 15.4682C0.583984 17.8932 2.56554 19.8334 4.97808 19.8334V16.8334C4.19389 16.8334 3.58398 16.208 3.58398 15.4682H0.583984ZM4.97808 19.8334H6.58145V16.8334H4.97808V19.8334ZM6.58145 19.8334C7.96679 19.8334 9.11563 18.7176 9.11563 17.3095H6.11563C6.11563 17.0324 6.33844 16.8334 6.58145 16.8334V19.8334Z" fill="#6C757D" fill-opacity="0.6" mask="url(#path-1-inside-1_56_1027)"/>
</svg>
