<svg width="20" height="20" viewBox="0 0 20 20" fill="none" xmlns="http://www.w3.org/2000/svg">
<path d="M11.5417 3.54193V5.5586" stroke="#6C757D" stroke-opacity="0.6" stroke-width="1.5" stroke-linecap="round" stroke-linejoin="round"/>
<path d="M11.5417 14.8001V16.4868" stroke="#6C757D" stroke-opacity="0.6" stroke-width="1.5" stroke-linecap="round" stroke-linejoin="round"/>
<path d="M11.5417 11.9372V7.91968" stroke="#6C757D" stroke-opacity="0.6" stroke-width="1.5" stroke-linecap="round" stroke-linejoin="round"/>
<path fill-rule="evenodd" clip-rule="evenodd" d="M15.5845 16.6667C17.1028 16.6667 18.3327 15.4521 18.3327 13.9526V11.7922C17.328 11.7922 16.5188 10.9931 16.5188 10.0009C16.5188 9.00864 17.328 8.20867 18.3327 8.20867L18.3318 6.04739C18.3318 4.54788 17.1011 3.33334 15.5836 3.33334H4.41511C2.89759 3.33334 1.66688 4.54788 1.66688 6.04739L1.66602 8.27905C2.67074 8.27905 3.47991 9.00864 3.47991 10.0009C3.47991 10.9931 2.67074 11.7922 1.66602 11.7922V13.9526C1.66602 15.4521 2.89585 16.6667 4.41424 16.6667H15.5845Z" stroke="#6C757D" stroke-opacity="0.6" stroke-width="1.5" stroke-linecap="round" stroke-linejoin="round"/>
</svg>
