<?xml version="1.0" encoding="UTF-8" standalone="no"?> <svg width="64" height="64" viewBox="0 0 64 64" fill="none" xmlns="http://www.w3.org/2000/svg">
<path d="M32 3L3 27V61H61V27L32 3Z" fill="#A8DBA8"/>
<path d="M58.9997 13.724L29.5508 7.99976L20.392 55.1179L49.8408 60.8421L58.9997 13.724Z" fill="#79BD9A"/>
<path d="M48.678 15.793L38.347 13.785C37.7322 15.0724 36.7842 16.1719 35.6014 16.9697C34.4186 17.7674 33.044 18.2343 31.62 18.322L25.082 51.955L46.682 56.155L53.215 22.52C51.9277 21.9052 50.8281 20.9572 50.0304 19.7744C49.2327 18.5916 48.7658 17.217 48.678 15.793Z" fill="#A8DBA8"/>
<path d="M47 7H17V55H47V7Z" fill="#79BD9A"/>
<path d="M37.262 11H26.738C26.3802 12.3812 25.6594 13.6416 24.6505 14.6505C23.6416 15.6594 22.3812 16.3802 21 16.738V51H43V16.738C41.6188 16.3802 40.3584 15.6594 39.3495 14.6505C38.3406 13.6416 37.6198 12.3812 37.262 11V11Z" fill="#A8DBA8"/>
<path d="M34.5446 7.99954L5.00037 13.209L13.3355 60.4798L42.8797 55.2703L34.5446 7.99954Z" fill="#79BD9A"/>
<path d="M25.649 13.63L15.284 15.458C15.1715 16.8803 14.6806 18.2466 13.8623 19.4153C13.044 20.5841 11.928 21.5127 10.63 22.105L16.58 55.846L38.246 52.026L32.3 18.284C30.877 18.1721 29.5099 17.6816 28.3404 16.8632C27.1709 16.0449 26.2416 14.9286 25.649 13.63V13.63Z" fill="#A8DBA8"/>
<path d="M21.509 22.453C22.6135 22.453 23.509 21.5576 23.509 20.453C23.509 19.3484 22.6135 18.453 21.509 18.453C20.4044 18.453 19.509 19.3484 19.509 20.453C19.509 21.5576 20.4044 22.453 21.509 22.453Z" fill="#79BD9A"/>
<path d="M23.94 41.24C27.806 41.24 30.94 38.106 30.94 34.24C30.94 30.374 27.806 27.24 23.94 27.24C20.074 27.24 16.94 30.374 16.94 34.24C16.94 38.106 20.074 41.24 23.94 41.24Z" fill="#79BD9A"/>
<path d="M32 51L3 27V61H61V27L32 51Z" fill="white"/>
<path d="M42.038 42.692L32 51L21.962 42.692L9.522 53.806L3 28V61H61L42.038 42.692Z" fill="#CFF09E"/>
<path d="M32 41L3 61H61L32 41Z" fill="white"/>
<path d="M32 41L3 61H61L44.637 57.05C41.0351 56.1808 37.8303 54.1253 35.5382 51.2141C33.2461 48.3029 31.9998 44.7053 32 41V41Z" fill="#CFF09E"/>
<path d="M61.638 26.229L58.149 23.342L59.981 13.915C60.0315 13.6547 59.9765 13.385 59.8282 13.1652C59.6798 12.9454 59.4503 12.7936 59.19 12.743L48 10.568V6.99999C48 6.73477 47.8946 6.48042 47.7071 6.29288C47.5196 6.10534 47.2652 5.99999 47 5.99999H37.193L32.638 2.22899C32.4586 2.08036 32.233 1.99902 32 1.99902C31.767 1.99902 31.5414 2.08036 31.362 2.22899L26.807 5.99999H17C16.7348 5.99999 16.4804 6.10534 16.2929 6.29288C16.1054 6.48042 16 6.73477 16 6.99999V10.254L4.826 12.225C4.56512 12.2713 4.33329 12.4193 4.18142 12.6364C4.02955 12.8535 3.97005 13.122 4.016 13.383L5.782 23.4L2.362 26.229C2.24862 26.3229 2.15739 26.4407 2.09481 26.574C2.03223 26.7073 1.99986 26.8527 2 27V61C2 61.2652 2.10536 61.5196 2.29289 61.7071C2.48043 61.8946 2.73478 62 3 62H61C61.2652 62 61.5196 61.8946 61.7071 61.7071C61.8946 61.5196 62 61.2652 62 61V27C62.0001 26.8527 61.9678 26.7073 61.9052 26.574C61.8426 26.4407 61.7514 26.3229 61.638 26.229V26.229ZM23.753 45.473L4 59.1V29.126L23.753 45.473ZM11.743 22.659C12.9099 21.9995 13.9146 21.0875 14.6835 19.9897C15.4524 18.8919 15.9661 17.636 16.187 16.314L25.095 14.744C25.7542 15.9107 26.6661 16.9151 27.7638 17.6837C28.8615 18.4523 30.1172 18.9656 31.439 19.186L35.5 42.2L32.57 40.18C32.4032 40.0652 32.2055 40.0037 32.003 40.0037C31.8005 40.0037 31.6028 40.0652 31.436 40.18L25.467 44.296L22.895 42.167C23.2412 42.2159 23.5903 42.2416 23.94 42.244C24.4067 42.2437 24.8724 42.2029 25.332 42.122C26.9552 41.8467 28.455 41.0804 29.6293 39.9265C30.8036 38.7725 31.5959 37.2863 31.8995 35.6682C32.2031 34.05 32.0034 32.3777 31.3273 30.8765C30.6511 29.3754 29.5311 28.1176 28.118 27.2726C26.705 26.4277 25.0669 26.0362 23.4245 26.1509C21.7822 26.2656 20.2144 26.8811 18.9326 27.9143C17.6507 28.9475 16.7164 30.3488 16.2556 31.9293C15.7947 33.5099 15.8294 35.1938 16.355 36.754L13.868 34.696L11.743 22.659ZM28.854 37.682C28.2881 38.4904 27.5315 39.1467 26.6514 39.5928C25.7712 40.039 24.7946 40.2611 23.808 40.2396C22.8215 40.2181 21.8554 39.9536 20.9955 39.4696C20.1356 38.9855 19.4084 38.2969 18.8782 37.4646C18.3481 36.6323 18.0314 35.6822 17.9562 34.6982C17.881 33.7143 18.0496 32.7271 18.4472 31.8239C18.8447 30.9207 19.4588 30.1296 20.2352 29.5205C21.0116 28.9114 21.9262 28.5031 22.898 28.332C23.2463 28.2704 23.5993 28.2393 23.953 28.239C25.3622 28.2411 26.7257 28.7392 27.8045 29.6459C28.8833 30.5526 29.6085 31.8101 29.853 33.198C29.9914 33.9743 29.9744 34.7704 29.8029 35.5401C29.6314 36.3098 29.3089 37.0378 28.854 37.682V37.682ZM32 42.215L57.789 60H6.211L32 42.215ZM42 41.426L41.523 41.821L36.264 12H36.522C36.9692 13.2636 37.6932 14.4112 38.641 15.359C39.5888 16.3068 40.7364 17.0308 42 17.478V41.426ZM40.247 45.473L60 29.126V59.1L40.247 45.473ZM48 17.728C48.6238 19.9663 50.0909 21.8757 52.093 23.055L49.772 34.993L48 36.46V17.728ZM59.432 27L57.056 28.966L57.714 25.578L59.432 27ZM57.827 14.515L54.627 30.975L52.2 32.984L54.2 22.711C54.2424 22.4934 54.2113 22.2678 54.1116 22.0697C54.0119 21.8717 53.8491 21.7124 53.649 21.617C52.5219 21.0805 51.5591 20.2517 50.8609 19.2168C50.1627 18.182 49.7546 16.979 49.679 15.733C49.6655 15.5116 49.5788 15.301 49.4326 15.1343C49.2863 14.9675 49.0887 14.8542 48.871 14.812L48 14.643V12.6L57.827 14.515ZM46 38.115L44 39.771V16.738C43.9999 16.5163 43.9262 16.301 43.7905 16.1258C43.6547 15.9505 43.4646 15.8254 43.25 15.77C42.0412 15.4578 40.9381 14.8275 40.0553 13.9447C39.1724 13.0619 38.5422 11.9588 38.23 10.75C38.1746 10.5354 38.0494 10.3452 37.8742 10.2095C37.699 10.0737 37.4837 10 37.262 9.99999H35.912L35.559 7.99999H46V38.115ZM32 4.29999L34.056 5.99999H29.944L32 4.29999ZM18 7.99999H28.785L18 9.89999V7.99999ZM33.732 9.15899L39.751 43.287L38.536 44.293L37.808 43.793L33.28 18.11C33.2414 17.8917 33.1314 17.6924 32.9672 17.5434C32.8031 17.3944 32.594 17.3042 32.373 17.287C31.1286 17.19 29.933 16.7612 28.9106 16.0453C27.8882 15.3293 27.0765 14.3523 26.56 13.216C26.4681 13.0143 26.3117 12.8488 26.1155 12.7456C25.9192 12.6424 25.6943 12.6074 25.476 12.646L15.11 14.473C14.8917 14.5116 14.6924 14.6216 14.5434 14.7858C14.3944 14.9499 14.3042 15.159 14.287 15.38C14.1899 16.6245 13.7611 17.8202 13.0451 18.8427C12.3291 19.8652 11.3522 20.6771 10.216 21.194C10.0143 21.2859 9.84882 21.4423 9.74564 21.6385C9.64246 21.8347 9.60741 22.0597 9.646 22.278L11.488 32.726L9.109 30.757L6.158 14.021L33.732 9.15899ZM6.732 28.79L4.568 27L6.181 25.665L6.732 28.79Z" fill="#3B8686"/>
<path d="M19.788 22.91C20.2895 23.2638 20.8882 23.4539 21.502 23.454C21.9404 23.4536 22.3733 23.3574 22.7706 23.1722C23.1678 22.9869 23.5198 22.7172 23.802 22.3817C24.0841 22.0462 24.2895 21.6532 24.4039 21.2301C24.5182 20.8069 24.5388 20.3639 24.464 19.932C24.3783 19.4462 24.174 18.989 23.8694 18.601C23.5648 18.2129 23.1691 17.906 22.7175 17.7074C22.266 17.5088 21.7724 17.4246 21.2805 17.4623C20.7886 17.5 20.3136 17.6584 19.8975 17.9235C19.4815 18.1886 19.1373 18.5522 18.8953 18.9821C18.6533 19.4121 18.5211 19.895 18.5104 20.3882C18.4997 20.8815 18.6108 21.3697 18.8338 21.8097C19.0568 22.2498 19.3849 22.628 19.789 22.911L19.788 22.91ZM20.688 19.879C20.7634 19.7714 20.8593 19.6797 20.9701 19.6092C21.081 19.5387 21.2046 19.4907 21.334 19.468C21.3915 19.4581 21.4497 19.4531 21.508 19.453C21.6651 19.453 21.82 19.4901 21.9601 19.5611C22.1002 19.6321 22.2215 19.7352 22.3144 19.8619C22.4073 19.9885 22.469 20.1353 22.4945 20.2903C22.5201 20.4453 22.5087 20.6041 22.4615 20.7539C22.4142 20.9037 22.3323 21.0403 22.2224 21.1525C22.1126 21.2648 21.9778 21.3495 21.829 21.4C21.6803 21.4505 21.5217 21.4652 21.3662 21.4429C21.2107 21.4207 21.0627 21.3621 20.934 21.272C20.8264 21.1967 20.7346 21.1009 20.664 20.9902C20.5934 20.8794 20.5453 20.7558 20.5224 20.6265C20.4996 20.4971 20.5025 20.3645 20.5309 20.2362C20.5593 20.108 20.6127 19.9866 20.688 19.879V19.879Z" fill="#3B8686"/>
<path d="M38 50H26C25.7348 50 25.4804 50.1054 25.2929 50.2929C25.1054 50.4804 25 50.7348 25 51C25 51.2652 25.1054 51.5196 25.2929 51.7071C25.4804 51.8946 25.7348 52 26 52H38C38.2652 52 38.5196 51.8946 38.7071 51.7071C38.8946 51.5196 39 51.2652 39 51C39 50.7348 38.8946 50.4804 38.7071 50.2929C38.5196 50.1054 38.2652 50 38 50Z" fill="#3B8686"/>
</svg>
