<svg width="36" height="36" viewBox="0 0 36 36" fill="none" xmlns="http://www.w3.org/2000/svg">
<path d="M22.4301 14.5667H20.5228L20.332 27.6885H22.6208L22.4301 14.5667Z" fill="#283891"/>
<path d="M27.2503 14.5667H25.343L25.1523 27.6885H27.4411L27.2503 14.5667Z" fill="#283891"/>
<path d="M25.1523 27.6884H27.4411L27.3364 20.4836H25.2571L25.1523 27.6884Z" fill="#8E8E99"/>
<path d="M20.332 27.6884H22.6208L22.5161 20.4836H20.4367L20.332 27.6884Z" fill="#8E8E99"/>
<path d="M19.0863 28.8884H4.89062V34.9078H19.0863V28.8884Z" fill="#9191AA"/>
<path d="M28.6996 24.2532V26.5506L23.8928 24.2532V26.5506L19.0859 24.2532V34.9078H23.8928H28.6996H33.5064V26.5506L28.6996 24.2532Z" fill="#E4EAF2"/>
<path d="M12.2709 19.6399H6.96875V28.8885H12.2709V19.6399Z" fill="#9191AA"/>
<path d="M16.8498 28.8884H14.8629V19.6398C14.8623 19.1245 14.6573 18.6304 14.2929 18.266C13.9285 17.9016 13.4344 17.6967 12.9191 17.6961H12.7665C12.2512 17.6967 11.7571 17.9017 11.3928 18.2661C11.0284 18.6304 10.8234 19.1245 10.8228 19.6398H8.83594C8.83711 18.5977 9.2516 17.5986 9.98847 16.8618C10.7253 16.1249 11.7244 15.7104 12.7665 15.7092H12.9191C13.9612 15.7104 14.9603 16.1249 15.6972 16.8617C16.4341 17.5986 16.8486 18.5977 16.8498 19.6398V28.8884Z" fill="#3D4151"/>
<path d="M23.0927 29.1934H21.4766V32.2743H23.0927V29.1934Z" fill="#3D4151"/>
<path d="M27.1045 29.1934H25.4883V32.2743H27.1045V29.1934Z" fill="#3D4151"/>
<path d="M31.1162 29.1934H29.5V32.2743H31.1162V29.1934Z" fill="#3D4151"/>
<path d="M18.0507 8.47066C17.6353 8.36808 17.211 8.30599 16.7836 8.28526C15.9161 8.22896 15.1011 7.84963 14.4994 7.2221C14.1757 6.98616 13.7718 6.88764 13.3758 6.94797C13.5664 6.0863 13.5061 5.29271 13.1111 4.59029C12.8244 4.00296 12.408 3.48843 11.8934 3.08554C11.3787 2.68265 10.7793 2.40194 10.1403 2.26458C9.50136 2.12722 8.83953 2.13682 8.2048 2.29263C7.57007 2.44845 6.97903 2.74642 6.47629 3.16405C5.65799 3.37042 4.90119 3.77026 4.26955 4.32994C3.6379 4.88962 3.14988 5.59278 2.8465 6.3803C2.54313 7.16781 2.43327 8.01666 2.52618 8.85546C2.61909 9.69426 2.91204 10.4985 3.3804 11.2005C3.3804 11.2005 6.30582 14.1286 11.2092 11.5296C13.703 12.3222 15.9639 10.6049 15.9639 10.6049C15.9639 10.6049 17.2316 12.1803 19.573 11.0814L20.5041 9.90399C20.0392 9.31772 19.2782 8.78577 18.0507 8.47066Z" fill="#E4EAF2"/>
<path d="M15.9627 4.98781C16.6691 4.98781 17.2417 4.41515 17.2417 3.70875C17.2417 3.00234 16.6691 2.42969 15.9627 2.42969C15.2562 2.42969 14.6836 3.00234 14.6836 3.70875C14.6836 4.41515 15.2562 4.98781 15.9627 4.98781Z" fill="#ADBCC9"/>
<path d="M28.3958 4.09499C28.3474 3.51404 28.1447 2.95653 27.8089 2.48005C27.473 2.00357 27.016 1.62538 26.4851 1.38455C25.9542 1.14372 25.3686 1.04897 24.7889 1.11009C24.2091 1.17121 23.6562 1.38598 23.1872 1.73223C23.056 1.82789 22.9072 1.89668 22.7493 1.93464C22.5914 1.9726 22.4276 1.97898 22.2673 1.95342C21.8784 1.89526 21.4815 1.92051 21.1031 2.02749C20.7247 2.13448 20.3734 2.32074 20.0725 2.57393C19.7716 2.82711 19.528 3.14142 19.3579 3.49597C19.1878 3.85052 19.0951 4.2372 19.0859 4.63033C19.0859 4.63033 19.7586 7.44765 23.1168 6.78769C23.1454 7.54485 23.3774 8.65714 24.385 9.23833C27.498 11.0334 28.1371 8.46147 28.1371 8.46147C28.2095 7.76034 28.1823 7.05249 28.0564 6.35897C28.0151 6.12596 28.0433 5.88594 28.1374 5.66883C28.3521 5.17359 28.4409 4.63289 28.3958 4.09499Z" fill="#E4EAF2"/>
<path d="M16.7198 11.4689C17.3455 11.7589 18.3245 11.942 19.6023 11.3418C20.0777 11.4697 20.4917 11.7632 20.7698 12.1694C20.7966 12.2104 20.8359 12.2418 20.8818 12.2589C20.9277 12.276 20.9779 12.278 21.025 12.2646C21.0721 12.2511 21.1137 12.223 21.1437 12.1843C21.1737 12.1455 21.1905 12.0982 21.1918 12.0492C21.2203 11.2757 20.9768 10.5166 20.5035 9.90407C18.5855 10.8191 17.1355 10.361 16.3624 9.93446C16.195 9.84299 16.0045 9.8028 15.8144 9.8189C15.6244 9.835 15.4433 9.90667 15.2938 10.025C14.9535 10.2904 14.3593 10.5968 13.3313 10.7944C11.7642 11.0965 10.4045 10.3286 9.74566 9.93488C9.71135 9.91463 9.67174 9.90516 9.63198 9.90768C9.59222 9.91021 9.55413 9.92463 9.52266 9.94906C9.49119 9.97349 9.46778 10.0068 9.45548 10.0447C9.44317 10.0826 9.44253 10.1233 9.45364 10.1616C9.49812 10.3271 9.55939 10.4876 9.6365 10.6406C9.70072 10.7691 9.71649 10.9164 9.68093 11.0556C9.64536 11.1948 9.56083 11.3165 9.44284 11.3984C8.61462 11.9785 6.61345 12.8638 3.38086 11.2005C3.77664 11.7995 4.2906 12.3113 4.89121 12.7046C5.49182 13.0978 6.16643 13.3643 6.87368 13.4876C7.58092 13.6109 8.30591 13.5885 9.00417 13.4217C9.70244 13.2548 10.3593 12.9471 10.9344 12.5175C11.1186 12.383 11.3283 12.2876 11.5507 12.2369C11.773 12.1863 12.0034 12.1815 12.2276 12.2229C12.4308 12.2574 12.6365 12.2744 12.8426 12.2739C13.6539 12.2749 14.4477 12.0382 15.1259 11.593C15.3591 11.4386 15.6279 11.3462 15.9068 11.3245C16.1856 11.3028 16.4655 11.3525 16.7198 11.4689Z" fill="#ADBCC9"/>
<path d="M25.4525 9.06934C23.5744 8.1038 23.7845 6.52266 24.0472 5.717C24.0587 5.6811 24.0579 5.64243 24.0451 5.60699C24.0324 5.57154 24.0083 5.54129 23.9766 5.52091C23.9449 5.50053 23.9074 5.49116 23.8699 5.49424C23.8323 5.49732 23.7968 5.51268 23.7689 5.53795C23.6358 5.66718 23.4858 5.77762 23.3228 5.86619C20.8358 7.17331 19.6039 5.65972 19.0875 4.63086H19.0867C19.0775 5.03357 19.1562 5.43345 19.3174 5.80262C19.4785 6.1718 19.7182 6.50142 20.0198 6.76851C20.3213 7.0356 20.6775 7.23374 21.0634 7.34915C21.4493 7.46456 21.8558 7.49445 22.2544 7.43674C22.4167 7.41668 22.5808 7.45542 22.7169 7.54594C22.8531 7.63646 22.9523 7.77277 22.9966 7.93015C23.1975 8.57791 23.6166 9.13611 24.1825 9.50992C25.335 10.3131 25.8143 11.1767 26.0135 11.7652C26.0371 11.8345 26.0788 11.8962 26.1343 11.9439C26.1898 11.9916 26.2571 12.0236 26.3291 12.0366C26.4012 12.0495 26.4754 12.043 26.544 12.0176C26.6127 11.9922 26.6733 11.949 26.7196 11.8923C27.5142 10.91 28.0068 9.71831 28.1378 8.46168C27.657 9.18084 26.8243 9.77462 25.4525 9.06934Z" fill="#ADBCC9"/>
<path d="M28.5035 23.9434C28.4512 23.9764 28.4081 24.0221 28.3782 24.0763C28.3483 24.1304 28.3327 24.1913 28.3327 24.2531V25.9699L27.7768 25.7042L27.6148 14.5612C27.6134 14.465 27.5743 14.3733 27.5058 14.3058C27.4373 14.2383 27.345 14.2004 27.2489 14.2004H25.3416C25.2454 14.2004 25.1531 14.2383 25.0847 14.3058C25.0162 14.3733 24.977 14.465 24.9757 14.5612L24.8341 24.2978L24.0497 23.9229C23.9939 23.8962 23.9323 23.884 23.8705 23.8876C23.8088 23.8912 23.7489 23.9104 23.6966 23.9434C23.6443 23.9764 23.6012 24.0221 23.5713 24.0762C23.5414 24.1304 23.5258 24.1913 23.5258 24.2531V25.9699L22.9572 25.6981L22.7959 14.5612C22.7945 14.465 22.7554 14.3733 22.6869 14.3058C22.6184 14.2383 22.5261 14.2004 22.4299 14.2004H20.5222C20.426 14.2004 20.3337 14.2383 20.2652 14.3058C20.1967 14.3733 20.1576 14.465 20.1562 14.5612L20.0148 24.2918L19.2429 23.9229C19.1871 23.8962 19.1255 23.8841 19.0637 23.8877C19.002 23.8913 18.9422 23.9105 18.8899 23.9435C18.8375 23.9764 18.7944 24.0221 18.7646 24.0763C18.7347 24.1304 18.7191 24.1913 18.7191 24.2531V28.5223H12.6354V19.6397C12.6354 19.5426 12.5968 19.4495 12.5282 19.3809C12.4595 19.3123 12.3664 19.2737 12.2694 19.2737H6.9672C6.87012 19.2737 6.77702 19.3123 6.70838 19.3809C6.63973 19.4495 6.60117 19.5426 6.60117 19.6397V28.5223H4.88947C4.79239 28.5223 4.69929 28.5609 4.63065 28.6295C4.562 28.6982 4.52344 28.7913 4.52344 28.8883V34.9077C4.52344 35.0048 4.562 35.0979 4.63065 35.1666C4.69929 35.2352 4.79239 35.2738 4.88947 35.2738H18.9699C19.0079 35.266 19.047 35.266 19.085 35.2738H33.5055C33.6025 35.2738 33.6956 35.2352 33.7643 35.1666C33.8329 35.0979 33.8715 35.0048 33.8715 34.9077V26.5505C33.8715 26.4814 33.8519 26.4137 33.8151 26.3553C33.7783 26.2969 33.7256 26.2501 33.6633 26.2203L28.8563 23.9227C28.8005 23.8961 28.7389 23.884 28.6772 23.8876C28.6155 23.8913 28.5557 23.9104 28.5035 23.9434ZM26.8881 14.9328L26.9635 20.1179H25.627L25.7023 14.9328H26.8881ZM25.6164 20.85H26.9742L27.0396 25.3522L25.5611 24.6455L25.6164 20.85ZM22.0687 14.9325L22.1441 20.1176H20.8075L20.8829 14.9325H22.0687ZM20.7968 20.8496H22.1546L22.2201 25.3457L20.7418 24.6393L20.7968 20.8496ZM7.33324 20.0058H11.9033V28.5223H7.33324V20.0058ZM5.2554 29.2544H18.7194V34.5417H5.2554V29.2544ZM28.8938 26.8602C28.9462 26.8272 28.9893 26.7815 29.0191 26.7273C29.049 26.6731 29.0646 26.6123 29.0646 26.5505V24.8337L33.1394 26.7813V34.5417H19.451V24.8337L23.734 26.8807C23.7898 26.9074 23.8514 26.9195 23.9132 26.9159C23.9749 26.9124 24.0348 26.8932 24.0871 26.8602C24.1394 26.8272 24.1825 26.7815 24.2124 26.7273C24.2423 26.6732 24.2579 26.6123 24.2579 26.5505V24.8337L28.5408 26.8807C28.5966 26.9074 28.6583 26.9195 28.72 26.9159C28.7817 26.9123 28.8415 26.8931 28.8938 26.8602Z" fill="#3D4151"/>
<path d="M7.48498 13.9243C7.57943 13.929 7.6737 13.9314 7.76779 13.9314C9.18707 13.9311 10.5546 13.3984 11.6 12.4384C11.9997 12.5744 12.4194 12.6424 12.8416 12.6396C13.9932 12.6399 15.1021 12.203 15.9439 11.4171C16.4945 11.8388 17.7863 12.5381 19.6296 11.731C19.901 11.8283 20.1438 11.992 20.3358 12.2071C20.5277 12.4222 20.6628 12.682 20.7286 12.9628C20.7487 13.0402 20.7936 13.1089 20.8565 13.1585C20.9193 13.208 20.9967 13.2355 21.0767 13.2369C21.1567 13.2383 21.2349 13.2134 21.2994 13.1661C21.3639 13.1188 21.4112 13.0516 21.4339 12.9749C21.4517 12.9147 21.8622 11.4836 21.0897 10.1202C20.5403 9.15205 19.5482 8.47747 18.1407 8.11578C17.7024 8.00724 17.2546 7.94168 16.8036 7.92C16.0485 7.87087 15.3374 7.54756 14.804 7.01089C14.7698 6.97711 14.7293 6.95038 14.6848 6.93224C14.6403 6.91411 14.5927 6.90491 14.5446 6.90519C14.4965 6.90546 14.449 6.9152 14.4047 6.93385C14.3604 6.95249 14.3202 6.97968 14.2864 7.01386C14.2527 7.04804 14.2259 7.08853 14.2078 7.13304C14.1896 7.17755 14.1805 7.22519 14.1807 7.27325C14.181 7.32131 14.1907 7.36884 14.2094 7.41314C14.228 7.45743 14.2552 7.49762 14.2894 7.53141C14.9495 8.1932 15.8285 8.59118 16.7613 8.65059C17.1651 8.66975 17.566 8.72815 17.9584 8.82498C19.1621 9.13436 19.9996 9.68929 20.4478 10.4742C20.649 10.8331 20.7717 11.2306 20.8078 11.6405C20.4978 11.3215 20.1058 11.0944 19.6749 10.984C19.5973 10.9678 19.5165 10.9773 19.4447 11.0109C17.3961 11.9726 16.243 10.7232 16.1963 10.6712C16.1615 10.631 16.1181 10.5989 16.0694 10.5774C16.0206 10.5559 15.9677 10.5455 15.9145 10.5468C15.8612 10.5478 15.8088 10.5603 15.7609 10.5836C15.7129 10.6068 15.6706 10.6402 15.6369 10.6814C15.2825 11.0701 14.8505 11.3802 14.3689 11.5915C13.8872 11.8028 13.3665 11.9106 12.8405 11.9081C12.4347 11.9125 12.0323 11.8341 11.6579 11.6774C11.5906 11.6485 11.5161 11.6404 11.4442 11.6543C11.3722 11.6682 11.3061 11.7034 11.2544 11.7553C10.7198 12.2912 10.0686 12.6964 9.35168 12.9393C8.63474 13.1822 7.87139 13.2562 7.12112 13.1557C6.37086 13.0551 5.65396 12.7826 5.02631 12.3595C4.39865 11.9363 3.87719 11.3739 3.50258 10.7162C3.12797 10.0584 2.91033 9.32298 2.86663 8.56727C2.82292 7.81156 2.95433 7.05597 3.25062 6.35939C3.5469 5.66281 4.00004 5.04406 4.57474 4.55138C5.14943 4.0587 5.83014 3.70539 6.5638 3.519C6.61679 3.50557 6.6661 3.48047 6.70812 3.44552C7.20723 3.03096 7.80079 2.74575 8.43633 2.61511C9.07187 2.48446 9.7298 2.51241 10.352 2.69647C10.9741 2.88054 11.5414 3.21505 12.0035 3.67044C12.4657 4.12583 12.8085 4.68807 13.0018 5.30746C13.0024 5.30958 13.0037 5.31138 13.0043 5.31349C13.0049 5.31561 13.0053 5.31805 13.006 5.32038C13.0103 5.33245 13.425 6.54491 12.6841 7.50007C12.626 7.57688 12.6005 7.67351 12.6132 7.76899C12.6258 7.86448 12.6756 7.95113 12.7517 8.01016C12.8278 8.06919 12.9241 8.09584 13.0197 8.08433C13.1154 8.07283 13.2026 8.02409 13.2626 7.94869C14.2453 6.68171 13.7193 5.14207 13.6967 5.07706C13.4681 4.35129 13.0661 3.69218 12.5254 3.15682C11.9846 2.62146 11.3216 2.22599 10.5936 2.00465C9.86556 1.78332 9.09457 1.7428 8.34737 1.8866C7.60018 2.0304 6.8993 2.35419 6.30545 2.82992C5.00715 3.1798 3.87626 3.98137 3.11612 5.09051C2.35598 6.19966 2.01646 7.54359 2.15862 8.88068C2.30077 10.2178 2.91528 11.4603 3.89163 12.3848C4.86798 13.3093 6.14213 13.8552 7.48498 13.9243Z" fill="#3D4151"/>
<path d="M15.9633 5.35391C16.2887 5.35393 16.6068 5.25746 16.8774 5.07671C17.1479 4.89595 17.3588 4.63902 17.4833 4.33841C17.6078 4.03781 17.6404 3.70703 17.5769 3.3879C17.5135 3.06877 17.3568 2.77564 17.1267 2.54556C16.8966 2.31548 16.6035 2.1588 16.2844 2.09533C15.9652 2.03185 15.6345 2.06444 15.3339 2.18897C15.0332 2.31349 14.7763 2.52437 14.5956 2.79492C14.4148 3.06547 14.3183 3.38354 14.3184 3.70892C14.3188 4.14505 14.4923 4.56319 14.8007 4.87158C15.1091 5.17997 15.5272 5.35343 15.9633 5.35391ZM15.9633 2.7959C16.1439 2.7959 16.3204 2.84945 16.4706 2.94977C16.6207 3.05009 16.7378 3.19269 16.8069 3.35952C16.876 3.52636 16.8941 3.70993 16.8588 3.88704C16.8236 4.06415 16.7366 4.22684 16.609 4.35453C16.4813 4.48222 16.3186 4.56917 16.1415 4.6044C15.9644 4.63963 15.7808 4.62155 15.6139 4.55245C15.4471 4.48334 15.3045 4.36632 15.2042 4.21617C15.1039 4.06602 15.0503 3.8895 15.0503 3.70892C15.0506 3.46685 15.1469 3.23477 15.318 3.0636C15.4892 2.89242 15.7213 2.79615 15.9633 2.7959Z" fill="#3D4151"/>
<path d="M21.4344 7.80268C21.5301 7.81452 21.6265 7.78814 21.7029 7.72925C21.7792 7.67036 21.8293 7.58374 21.8421 7.48818C21.8549 7.39263 21.8296 7.29586 21.7715 7.21891C21.7134 7.14195 21.6273 7.09102 21.5319 7.07718C21.1983 7.03169 20.8779 6.91667 20.5916 6.73954C20.3052 6.56242 20.0593 6.32715 19.8696 6.04895C19.6799 5.77075 19.5508 5.45583 19.4905 5.12456C19.4302 4.79329 19.4402 4.45307 19.5198 4.12589C19.5993 3.79872 19.7467 3.4919 19.9523 3.22528C20.1579 2.95866 20.4172 2.73818 20.7135 2.57812C21.0097 2.41806 21.3362 2.32198 21.6719 2.2961C22.0076 2.27022 22.345 2.31512 22.6623 2.42788C22.7283 2.45144 22.7996 2.45552 22.8679 2.43966C22.9361 2.4238 22.9983 2.38865 23.0472 2.33841C23.5403 1.83162 24.2011 1.52179 24.906 1.46687C25.611 1.41195 26.3118 1.6157 26.8774 2.04001C27.443 2.46433 27.8347 3.08015 27.9792 3.77231C28.1237 4.46448 28.0112 5.18558 27.6626 5.80077C27.6178 5.87965 27.6038 5.97236 27.6235 6.06092C28.2749 8.99238 27.0884 10.8991 26.3847 11.7276C26.181 11.074 25.6699 10.1009 24.3903 9.20901C23.6865 8.71857 23.2997 8.05722 23.2401 7.24362C23.2401 7.24235 23.2396 7.24119 23.2395 7.24002C23.2393 7.23886 23.2395 7.23738 23.2395 7.23611C23.2384 7.22425 23.1431 6.05022 24.3924 5.55025C24.4379 5.53301 24.4795 5.5069 24.5147 5.47342C24.55 5.43994 24.5782 5.39977 24.5978 5.35526C24.6173 5.31074 24.6278 5.26278 24.6287 5.21416C24.6295 5.16555 24.6206 5.11725 24.6026 5.0721C24.5845 5.02696 24.5577 4.98585 24.5235 4.9512C24.4894 4.91655 24.4488 4.88904 24.4039 4.87028C24.359 4.85152 24.3109 4.84189 24.2623 4.84194C24.2137 4.84199 24.1655 4.85173 24.1207 4.87059C22.7252 5.42859 22.4569 6.69642 22.5098 7.29657V7.29868V7.30419V7.30578C22.5874 8.33146 23.0922 9.19705 23.971 9.80926C25.7693 11.0626 25.7869 12.4216 25.7868 12.4758C25.7854 12.5456 25.804 12.6143 25.8405 12.6739C25.8769 12.7334 25.9296 12.7813 25.9924 12.8119C26.0551 12.8425 26.1253 12.8545 26.1947 12.8465C26.264 12.8384 26.3296 12.8107 26.3837 12.7667C26.5027 12.6698 29.2617 10.3663 28.3663 6.03657C28.7575 5.27848 28.8702 4.40708 28.6846 3.57442C28.4989 2.74176 28.0268 2.00073 27.3505 1.48065C26.6743 0.96057 25.8369 0.694466 24.9845 0.728778C24.1321 0.76309 23.3188 1.09564 22.6865 1.66839C22.2723 1.55467 21.8392 1.52721 21.4139 1.58773C20.9887 1.64825 20.5804 1.79545 20.2144 2.02021C19.8483 2.24497 19.5323 2.5425 19.286 2.89437C19.0396 3.24623 18.8682 3.64494 18.7822 4.06579C18.6963 4.48663 18.6976 4.92064 18.7863 5.34093C18.8749 5.76122 19.0489 6.15884 19.2974 6.50914C19.546 6.85944 19.8639 7.15496 20.2313 7.3774C20.5988 7.59983 21.008 7.74444 21.4336 7.80226L21.4344 7.80268Z" fill="#3D4151"/>
</svg>
