<svg width="28" height="26" viewBox="0 0 28 26" fill="none" xmlns="http://www.w3.org/2000/svg">
<path opacity="0.2" d="M4.45117 17.9744V5.25217C4.45117 5.04129 4.54193 4.83904 4.70347 4.68992C4.86501 4.5408 5.08411 4.45703 5.31257 4.45703H22.5406C22.769 4.45703 22.9881 4.5408 23.1497 4.68992C23.3112 4.83904 23.402 5.04129 23.402 5.25217V16.3841L23.402 16.3841L18.8427 12.1755C18.6811 12.0264 18.462 11.9426 18.2336 11.9426C18.0051 11.9426 17.786 12.0264 17.6245 12.1755L12.8129 16.617C12.6513 16.7661 12.4322 16.8499 12.2038 16.8499C11.9753 16.8499 11.7562 16.7661 11.5947 16.617L9.36727 14.5609C9.20573 14.4118 8.98663 14.3281 8.75817 14.3281C8.52971 14.3281 8.31061 14.4118 8.14907 14.5609L4.45117 17.9744Z" fill="#979797"/>
<path d="M22.5406 4.45703H5.31257C4.83683 4.45703 4.45117 4.81303 4.45117 5.25217V21.1549C4.45117 21.5941 4.83683 21.9501 5.31257 21.9501H22.5406C23.0163 21.9501 23.402 21.5941 23.402 21.1549V5.25217C23.402 4.81303 23.0163 4.45703 22.5406 4.45703Z" stroke="#979797" stroke-width="1.59028" stroke-linecap="round" stroke-linejoin="round"/>
<path d="M23.402 16.3841L18.8427 12.1755C18.6811 12.0264 18.462 11.9426 18.2336 11.9426C18.0051 11.9426 17.786 12.0264 17.6245 12.1755L12.8129 16.617C12.6513 16.7661 12.4322 16.8499 12.2038 16.8499C11.9753 16.8499 11.7562 16.7661 11.5947 16.617L9.36727 14.5609C9.20573 14.4118 8.98663 14.328 8.75817 14.328C8.52971 14.328 8.31061 14.4118 8.14907 14.5609L4.45117 17.9744" stroke="#979797" stroke-width="1.59028" stroke-linecap="round" stroke-linejoin="round"/>
<path d="M10.9112 10.8183C11.6248 10.8183 12.2033 10.2843 12.2033 9.62557C12.2033 8.96686 11.6248 8.43286 10.9112 8.43286C10.1976 8.43286 9.61914 8.96686 9.61914 9.62557C9.61914 10.2843 10.1976 10.8183 10.9112 10.8183Z" fill="#979797"/>
</svg>
