<?xml version="1.0" encoding="utf-8"?>
<!-- Generator: Adobe Illustrator 24.0.2, SVG Export Plug-In . SVG Version: 6.00 Build 0)  -->
<svg version="1.1" id="Layer_1" xmlns="http://www.w3.org/2000/svg" xmlns:xlink="http://www.w3.org/1999/xlink" x="0px" y="0px"
	 viewBox="0 0 512 512" style="enable-background:new 0 0 512 512;" xml:space="preserve">
<style type="text/css">
	.st0{fill:#C1E8F7;}
	.st1{fill:#F4CCAF;}
	.st2{fill:#F4F4F4;}
	.st3{fill:#EAEAEA;}
	.st4{fill:#FF9325;}
	.st5{fill:#FCD4B5;}
	.st6{fill:#554C44;}
	.st7{fill:#FFC211;}
	.st8{fill:#FFB21D;}
	.st9{fill:#FFA027;}
	.st10{fill:#E0E0E0;}
</style>
<circle id="XMLID_8233_" class="st0" cx="256.0887" cy="255.7101" r="249.4083"/>
<g id="XMLID_7837_">
	<path id="XMLID_7855_" class="st1" d="M212.2836,299.9607c0,0-2.9775,14.8027,6.3952,27.8289
		c8.1724,11.3569,20.7829,32.0704,26.8583,42.8909l0.0019-0.0007c0.2915,0.497,0.5715,1.0266,0.8564,1.5418
		c0.1209,0.2203,0.2633,0.4729,0.3772,0.6809c0.1877,0.3479,0.3757,0.6935,0.5604,1.0496c0.7559,1.4171,1.274,2.4612,1.5184,3.0706
		c5.2083,11.0386,8.9342,24.0849,10.3803,29.5302c1.0125-4.0122,2.5999-9.5725,4.9354-15.9365
		c1.5592-4.4465,3.4032-9.1823,5.485-13.5937c0.2437-0.6093,0.7614-1.6534,1.5184-3.0706c0.1843-0.356,0.3723-0.7017,0.5597-1.0496
		c0.1142-0.2081,0.2567-0.4606,0.3776-0.6809c0.2852-0.5152,0.5645-1.0448,0.856-1.5418l0.0026,0.0007
		c6.0751-10.8205,18.6852-31.5341,26.8572-42.8909c9.373-13.0262,6.3955-27.8289,6.3955-27.8289l-1.4361-4.8812
		c-1.4954-4.7032-2.2576-9.2732-2.634-13.413c-16.9624,14.397-22.9974,19.2686-43.8478,18.5516
		c-20.2421,0.6961-26.5301-3.8846-42.4003-17.3248c-0.3342,3.1013-0.8909,6.4156-1.8155,9.8318
		c0.1224-0.0453,0.2444-0.0879,0.3668-0.135L212.2836,299.9607z"/>
	<path id="XMLID_7854_" class="st2" d="M193.7093,358.1135c0.3334-15.0019,2.4619-34.5786,4.2967-45.1084
		c-4.6487,2.8814-10.4897,5.6211-17.0362,8.3549c0.003,0.0081,0.0174,0.0107,0.0204,0.0189
		C184.1698,331.1157,188.5318,343.9227,193.7093,358.1135z"/>
	<path id="XMLID_7853_" class="st2" d="M258.6041,409.1479l-0.0045,0.0174c0,0,0.01-0.04,0.0119-0.0471
		c0.1224-0.5307,0.2607-1.1086,0.4128-1.7276c-1.554-2.9938-5.3478-9.6445-12.5174-18.5869
		c-7.4474-9.2896-12.099-10.3707-12.099-10.3707s-4.8397-2.4193,0.8642-5.3586l3.6725-1.8236
		c-21.1178-11.9633-30.6343,1.0177-38.2004,5.623c16.1454,41.8595,37.5064,89.0768,56.6875,106.3333
		c0.112,0.1005,0.2192,0.3405,0.3242,0.6446v-70.6672C257.7559,413.1846,258.014,411.7033,258.6041,409.1479z"/>
	<path id="XMLID_7852_" class="st3" d="M324.5503,351.4724c4.2266-11.7811,7.8219-22.3825,10.5479-30.7281
		c-5.465-2.3206-10.3903-4.6542-14.4893-7.0817C322.1544,322.7827,323.8775,338.046,324.5503,351.4724z"/>
	<path id="XMLID_7851_" class="st3" d="M259.2516,406.6263c0.8619-3.2508,2.5554-9.2795,4.9153-16.01
		c-2.3354,6.364-3.9229,11.9243-4.9354,15.9365C259.239,406.5792,259.2442,406.601,259.2516,406.6263z"/>
	<path id="XMLID_7850_" class="st3" d="M279.558,371.2509l3.6725,1.8236c5.7039,2.9393,0.8645,5.3586,0.8645,5.3586
		s-3.3416,2.3047-12.0997,10.3707c-7.8064,7.1903-11.306,14.5698-12.659,18.144c0.3653,1.3871,0.5671,2.2175,0.5671,2.2175
		s-0.2585-0.5778-0.7918-1.6118c-0.3468,0.9769-0.4962,1.5521-0.5074,1.5944c-0.5901,2.5554-0.8482,4.0367-0.8482,4.0367v70.6672
		c0.076,0.2218,0.1483,0.5489,0.2207,0.8738c0.214-1.2188,0.4451-1.9757,0.6965-2.202
		c19.2957-17.36,40.7954-65.0361,56.9738-107.0803C308.3708,370.122,298.7675,360.3688,279.558,371.2509z"/>
	<path id="XMLID_7849_" class="st3" d="M259.0417,407.4214c-0.0052-0.0093-0.0122-0.0219-0.0174-0.0308
		c-0.1521,0.619-0.2904,1.1969-0.4128,1.7276C258.6327,409.0292,258.7736,408.4507,259.0417,407.4214z"/>
	<path id="XMLID_7848_" class="st2" d="M98.7599,350.9391c-1.0904,0.0664-2.2234,0.221-3.4418,0.5463
		c-12.1097,3.2315-19.026,34.9714-27.392,67.8266c17.5651,20.185,38.3001,37.5175,61.4644,51.2102
		c-0.0156-9.7376-0.4035-18.641-1.6738-25.6622C123.6934,422.6388,97.7304,358.7681,98.7599,350.9391z"/>
	<path id="XMLID_7847_" class="st2" d="M420.9098,351.4854c-1.2532-0.3342-2.4152-0.4848-3.5334-0.5452
		c-0.2834,10.3069-25.0644,71.5711-28.9872,93.2374c-1.1979,6.6162-1.6074,14.9159-1.6664,23.9951
		c22.9848-14.1626,43.4907-31.9461,60.7346-52.5614C439.9187,383.9964,432.5689,354.5964,420.9098,351.4854z"/>
	<path id="XMLID_7846_" class="st4" d="M417.3764,350.9402c0.0226-0.8115-0.0886-1.3448-0.392-1.4806
		c-4.1602-1.8552-80.3143-33.528-81.8698-28.7643c-0.0056,0.0156-0.0108,0.0334-0.0163,0.049
		c-2.726,8.3456-6.3214,18.947-10.5479,30.7281c0.7425,14.8194,0.2047,27.372-3.2753,26.8495
		c-1.7962-0.2689-3.6295-1.416-5.6282-2.8784c-16.1783,42.0442-37.6781,89.7203-56.9738,107.0803
		c-0.2514,0.2263-0.4825,0.9832-0.6965,2.202c0.6646,2.9819,1.169,10.2119,1.5503,20.3055
		c46.6024-0.632,90.1142-14.0087,127.1959-36.8585c0.059-9.0793,0.4684-17.3789,1.6664-23.9951
		C392.312,422.5113,417.093,361.2471,417.3764,350.9402z"/>
	<path id="XMLID_7845_" class="st5" d="M258.3011,300.218c20.8504,0.7169,26.8854-4.1547,43.8478-18.5516
		c0.2043-0.174,0.3909-0.3305,0.5982-0.507c18.308-15.5415,9.0848-47.9776,20.1999-45.9503
		c10.917,1.9913,23.3156-27.5838,15.484-35.0374c-3.8045-0.3631-6.9355,3.2389-9.8618,8.1602
		c-3.2845,5.5232-2.008,14.0476-5.2747,13.8492c-3.9584-13.4164-3.5657-25.5335-2.8187-39.0994
		c-18.17,4.7347-40.5139,8.4669-60.5725,8.4669c-18.1155,0-38.6176-3.2126-56.0833-7.4555c0.2815,3.111,0.4703,6.1318,0.6324,7.8004
		c0.8883,9.1401-4.8085,20.3942-6.9096,22.5557c-1.3645,1.4034-4.6962,7.2493-6.6856,7.7355
		c-1.6341,0.3991-0.5252-9.1464-5.9816-17.3826c-4.31-6.5057-6.3058-5.0696-6.3058-5.0696
		c-8.7343,6.7501,3.9696,37.5038,15.0854,35.4766c11.1154-2.0273,1.8915,30.4088,20.1995,45.9503
		c0.7103,0.6031,1.3727,1.1635,2.0462,1.7339C231.771,296.3334,238.059,300.9142,258.3011,300.218z"/>
	<path id="XMLID_7844_" class="st6" d="M320.4758,183.0816c-0.7469,13.5658-1.1397,25.683,2.8187,39.0994
		c3.2668,0.1984,1.9902-8.326,5.2747-13.8492c2.9263-4.9213,6.0573-8.5233,9.8618-8.1602c0.4659,0.0434,0.9369,0.1213,1.4238,0.2904
		c3.4759-7.3839,5.758-16.5374,6.7623-26.1095C340.1527,177.2457,331.03,180.3315,320.4758,183.0816z"/>
	<path id="XMLID_7843_" class="st6" d="M184.8756,204.8021c5.4565,8.2362,4.3475,17.7817,5.9816,17.3826
		c1.9894-0.4862,5.3211-6.3321,6.6856-7.7355c2.1011-2.1615,7.7978-13.4156,6.9096-22.5557
		c-0.1621-1.6686-0.3509-4.6895-0.6324-7.8004c-12.5637-3.0524-23.5393-6.6362-30.9284-9.9486
		c0.0508,0.632,0.0883,1.244,0.1539,1.9015c0.4254,4.2396,3.0008,19.8716,5.5243,23.6865
		C178.5698,199.7325,180.5656,198.2964,184.8756,204.8021z"/>
	<path id="XMLID_7842_" class="st7" d="M272.4422,176.3337c12.8007-0.8953,32.2306-2.5261,42.7007-4.7529
		c21.0507-4.4773,31.5167-7.681,36.6883-8.4046c0.7381-0.3053,1.1241-0.4836,1.1241-0.4836c0-25.3615-5.7595-70.948-43.6739-92.1025
		C306.7627,74.8134,274.6512,129.5296,272.4422,176.3337z"/>
	<path id="XMLID_7841_" class="st7" d="M204.6634,171.5809c10.4704,2.2268,29.9007,3.8583,42.7021,4.7529
		c-2.2108-46.8041-34.3224-101.5203-36.8403-105.7436c-37.9151,21.1545-43.6742,66.741-43.6742,92.1025
		c0,0,0.3865,0.1784,1.1241,0.4836C173.1468,163.8998,183.6124,167.1035,204.6634,171.5809z"/>
	<path id="XMLID_7840_" class="st8" d="M203.82,184.093c17.4657,4.2429,37.9678,7.4555,56.0833,7.4555
		c20.0586,0,42.4025-3.7322,60.5725-8.4669c10.5543-2.7501,19.6769-5.8359,26.1414-8.7291
		c6.3318-2.8339,10.1203-5.4817,10.1203-7.4373c0-3.2979-0.7377-4.3219-4.9064-3.7389c-5.1716,0.7236-15.6376,3.9273-36.6883,8.4046
		c-10.4701,2.2268-29.9,3.8576-42.7007,4.7529c2.209-46.8041,34.3205-101.5203,36.8392-105.7436
		c0.1027-0.1721,0.1736-0.2908,0.1736-0.2908c-10.9482-11.0687-32.4739-17.6504-51.1539-17.4813
		c-17.7594,0.1606-37.9007,7.2946-47.9498,17.4813c0,0,0.0705,0.1179,0.174,0.2908c2.5179,4.2233,34.6295,58.9395,36.8403,105.7436
		c-12.8015-0.8946-32.2317-2.5261-42.7021-4.7529c-21.051-4.4773-31.5166-7.681-36.6883-8.4046
		c-4.1687-0.583-4.9064,0.441-4.9064,3.7389c0,1.9086,3.6766,4.4747,9.8229,7.2293
		C180.2807,177.4568,191.2563,181.0406,203.82,184.093z"/>
	<path id="XMLID_7839_" class="st9" d="M257.9766,484.7256c-0.0723-0.3249-0.1447-0.652-0.2207-0.8738
		c-0.105-0.3041-0.2122-0.5441-0.3242-0.6446c-19.181-17.2565-40.5421-64.4738-56.6875-106.3333
		c-1.2072,0.7354-2.3699,1.2758-3.5167,1.4479c-2.9437,0.4417-3.7789-8.4825-3.5182-20.2084
		c-5.1776-14.1908-9.5395-26.9978-12.7191-36.7346c-0.003-0.0081-0.0174-0.0107-0.0204-0.0189
		c-1.8132-4.6298-77.6966,26.9299-81.8486,28.7843c-0.204,0.0905-0.3082,0.3902-0.3612,0.7948
		c-1.0296,7.829,24.9334,71.6997,28.9568,93.9209c1.2703,7.0212,1.6582,15.9247,1.6738,25.6622
		c37.1382,21.9526,80.4322,34.5957,126.6982,34.5957c1.1527,0,2.2887-0.0716,3.4381-0.0868
		C259.1456,494.9376,258.6412,487.7076,257.9766,484.7256z"/>
	<path id="XMLID_7838_" class="st10" d="M193.7093,358.1135c-0.2607,11.7259,0.5745,20.6501,3.5182,20.2084
		c1.1468-0.1721,2.3095-0.7125,3.5167-1.4479c7.5661-4.6053,17.0826-17.5862,38.2004-5.623l-3.6725,1.8236
		c-5.7038,2.9393-0.8642,5.3586-0.8642,5.3586s4.6516,1.0811,12.099,10.3707c7.1696,8.9424,10.9633,15.5931,12.5174,18.5869
		c0.0052,0.0089,0.0122,0.0215,0.0174,0.0308c-0.2682,1.0292-0.4091,1.6078-0.4302,1.6968
		c-0.0019,0.007-0.0119,0.0471-0.0119,0.0471l0.0045-0.0174c0.0111-0.0423,0.1606-0.6175,0.5074-1.5944
		c0.5333,1.034,0.7918,1.6118,0.7918,1.6118s-0.2018-0.8304-0.5671-2.2175c1.353-3.5742,4.8527-10.9537,12.659-18.144
		c8.7581-8.066,12.0997-10.3707,12.0997-10.3707s4.8393-2.4193-0.8645-5.3586l-3.6725-1.8236
		c19.2096-10.8821,28.8129-1.129,36.0889,4.1925c1.9987,1.4624,3.832,2.6096,5.6282,2.8784c3.48,0.5226,4.0178-12.03,3.2753-26.8495
		c-0.6728-13.4264-2.3959-28.6898-3.9414-37.8098c-0.4131-2.4378-0.8137-4.4588-1.1772-5.8622
		c-3.2267-12.445-9.3889-12.9057-15.3813-15.2104l0.7325,2.4894l1.4361,4.8812c0,0,2.9774,14.8027-6.3955,27.8289
		c-8.1721,11.3569-20.7821,32.0704-26.8572,42.8909l-0.0026-0.0007c-0.2915,0.497-0.5708,1.0266-0.856,1.5418
		c-0.1209,0.2203-0.2633,0.4729-0.3776,0.6809c-0.1873,0.3479-0.3753,0.6935-0.5597,1.0496
		c-0.757,1.4171-1.2747,2.4612-1.5184,3.0706c-2.0818,4.4113-3.9258,9.1471-5.485,13.5937
		c-2.3599,6.7304-4.0534,12.7592-4.9153,16.01c-0.0074-0.0252-0.0126-0.0471-0.02-0.0735
		c-1.4461-5.4453-5.172-18.4915-10.3803-29.5302c-0.2444-0.6093-0.7625-1.6534-1.5184-3.0706
		c-0.1847-0.356-0.3727-0.7017-0.5604-1.0496c-0.1139-0.2081-0.2563-0.4606-0.3772-0.6809
		c-0.2848-0.5152-0.5649-1.0448-0.8564-1.5418l-0.0019,0.0007c-6.0755-10.8205-18.6859-31.5341-26.8583-42.8909
		c-9.3726-13.0262-6.3952-27.8289-6.3952-27.8289l2.1686-7.3706c-0.1224,0.0471-0.2444,0.0898-0.3668,0.135
		c-5.8755,2.1904-11.8535,2.884-15.0138,15.0753c-0.3308,1.2758-0.6924,3.0624-1.0656,5.2046
		C196.1713,323.5348,194.0428,343.1116,193.7093,358.1135z"/>
</g>
</svg>
