<svg width="28" height="27" viewBox="0 0 28 27" fill="none" xmlns="http://www.w3.org/2000/svg">
<path opacity="0.2" d="M22.5407 7.09245H19.0944L17.3716 4.70703H10.4804L8.75762 7.09245H5.31264C4.85573 7.09245 4.41753 7.25999 4.09444 7.55823C3.77135 7.85646 3.58984 8.26096 3.58984 8.68273V19.8147C3.58984 20.2364 3.77135 20.6409 4.09444 20.9392C4.41753 21.2374 4.85573 21.4049 5.31264 21.4049H22.5407C22.9976 21.4049 23.4358 21.2374 23.7589 20.9392C24.0819 20.6409 24.2635 20.2364 24.2635 19.8147V8.68273C24.2635 8.26096 24.0819 7.85646 23.7589 7.55823C23.4358 7.25999 22.9976 7.09245 22.5407 7.09245ZM13.9266 17.4293C13.16 17.4293 12.4105 17.2194 11.7731 16.8262C11.1356 16.4331 10.6388 15.8742 10.3454 15.2204C10.052 14.5666 9.97526 13.8472 10.1248 13.1531C10.2744 12.459 10.6436 11.8214 11.1857 11.321C11.7278 10.8206 12.4185 10.4798 13.1704 10.3418C13.9223 10.2037 14.7017 10.2746 15.41 10.5454C16.1183 10.8162 16.7237 11.2748 17.1497 11.8632C17.5756 12.4516 17.803 13.1434 17.803 13.8511C17.803 14.8001 17.3946 15.7102 16.6676 16.3812C15.9407 17.0523 14.9547 17.4293 13.9266 17.4293Z" fill="#979797"/>
<path d="M22.5407 21.4049H5.31264C4.85573 21.4049 4.41753 21.2374 4.09444 20.9392C3.77135 20.6409 3.58984 20.2364 3.58984 19.8147V8.68273C3.58984 8.26096 3.77135 7.85646 4.09444 7.55823C4.41753 7.25999 4.85573 7.09245 5.31264 7.09245H8.75762L10.4804 4.70703H17.3716L19.0944 7.09245H22.5407C22.9976 7.09245 23.4358 7.25999 23.7589 7.55823C24.0819 7.85646 24.2635 8.26096 24.2635 8.68273V19.8147C24.2635 20.2364 24.0819 20.6409 23.7589 20.9392C23.4358 21.2374 22.9976 21.4049 22.5407 21.4049Z" stroke="#979797" stroke-width="1.59028" stroke-linecap="round" stroke-linejoin="round"/>
<path d="M13.9271 17.4294C16.0679 17.4294 17.8034 15.8275 17.8034 13.8513C17.8034 11.8752 16.0679 10.2732 13.9271 10.2732C11.7863 10.2732 10.0508 11.8752 10.0508 13.8513C10.0508 15.8275 11.7863 17.4294 13.9271 17.4294Z" stroke="#979797" stroke-width="1.59028" stroke-linecap="round" stroke-linejoin="round"/>
</svg>
